SplineFontDB: 3.0
FontName: NovaFlat-Bold
FullName: Nova Flat Bold
FamilyName: Nova Flat
Weight: Bold
Copyright: Copyright (c) 2020-2024 by Wojciech Kalinowski "wmk69" with Reserved Font Name "NovaFlat-Bold".\nThis Font Software is licensed under the SIL Open Font License, Version 1.1.
Version: 3.1.0; 2021-05-23
ItalicAngle: 0
UnderlinePosition: -80
UnderlineWidth: 320
Ascent: 1638
Descent: 410
InvalidEm: 0
LayerCount: 2
Layer: 0 1 "Warstwa t+AUIA-a" 1
Layer: 1 1 "Plan pierwszy" 0
XUID: [1021 783 23647091 8360855]
StyleMap: 0x0020
FSType: 0
OS2Version: 3
OS2_WeightWidthSlopeOnly: 0
OS2_UseTypoMetrics: 1
CreationTime: 1260698820
ModificationTime: 1621761329
PfmFamily: 33
TTFWeight: 700
TTFWidth: 5
LineGap: 200
VLineGap: 0
Panose: 2 12 8 4 2 5 3 6 2 4
OS2TypoAscent: 2000
OS2TypoAOffset: 0
OS2TypoDescent: -500
OS2TypoDOffset: 0
OS2TypoLinegap: 200
OS2WinAscent: 2000
OS2WinAOffset: 0
OS2WinDescent: 500
OS2WinDOffset: 0
HheadAscent: 2000
HheadAOffset: 0
HheadDescent: -500
HheadDOffset: 0
OS2SubXSize: 1434
OS2SubYSize: 1331
OS2SubXOff: 0
OS2SubYOff: 287
OS2SupXSize: 1434
OS2SupYSize: 1331
OS2SupXOff: 0
OS2SupYOff: 977
OS2StrikeYSize: 102
OS2StrikeYPos: 512
OS2CapHeight: 1530
OS2XHeight: 1120
OS2Vendor: '    '
OS2CodePages: 20000093.00000000
OS2UnicodeRanges: 8000002f.4000204b.00000000.00000000
Lookup: 258 0 0 "'kern' Horizontal Kerning lookup 0" { "'kern' Horizontal Kerning lookup 0-1 subtable" [307,0,4] } ['kern' ('DFLT' <'dflt' > 'grek' <'dflt' > 'latn' <'dflt' > ) ]
MarkAttachClasses: 1
DEI: 91125
KernClass2: 65 55 "'kern' Horizontal Kerning lookup 0-1 subtable"
 134 A M N Agrave Aacute Acircumflex Atilde Adieresis Aring Ntilde Amacron Abreve Aogonek Nacute Ncommaaccent Ncaron Eng Aringacute uni1E40
 28 B germandbls uni1E02 uni1E9E
 47 C Ccedilla Cacute Ccircumflex Cdotaccent Ccaron
 122 D O Q Eth Ograve Oacute Ocircumflex Otilde Odieresis Oslash Dcaron Dcroat Omacron Obreve Ohungarumlaut Oslashacute uni1E0A

StartChar: .notdef
Encoding: 65536 -1 0
Width: 1034
Flags: W
HStem: 0 118<298 736> 1392 118<298 736>
VStem: 110 188<118 1392> 736 188<118 1392>
LayerCount: 2
Fore
SplineSet
110 0 m 1,0,-1
 110 1510 l 1,1,-1
 924 1510 l 1,2,-1
 924 0 l 1,3,-1
 110 0 l 1,0,-1
298 118 m 1,4,-1
 736 118 l 1,5,-1
 736 1392 l 1,6,-1
 298 1392 l 1,7,-1
 298 118 l 1,4,-1
EndSplineSet
Validated: 1
EndChar

StartChar: exclam
Encoding: 33 33 4
Width: 640
GlyphClass: 2
Flags: W
HStem: -20 365<202.131 436.878> 1510 20G<427.823 480>
VStem: 140 360<42.5657 282.578> 160 320<542 1383>
LayerCount: 2
Fore
SplineSet
470 1530 m 1,0,-1
 480 1530 l 1,1,-1
 480 542 l 1,2,-1
 170 395 l 1,3,-1
 160 395 l 1,4,-1
 160 1383 l 1,5,-1
 470 1530 l 1,0,-1
320 -20 m 0,6,7
 244 -20 244 -20 192 34 c 128,-1,8
 140 88 140 88 140 162 c 0,9,10
 140 238 140 238 192 291 c 0,11,12
 245 345 245 345 320 345 c 128,-1,13
 395 345 395 345 447.5 291.5 c 128,-1,14
 500 238 500 238 500 163 c 128,-1,15
 500 88 500 88 447 34 c 128,-1,16
 394 -20 394 -20 320 -20 c 0,6,7
EndSplineSet
Validated: 1
EndChar

StartChar: quotedbl
Encoding: 34 34 5
Width: 510
GlyphClass: 2
Flags: W
HStem: 1100 480
VStem: 30 180<1181 1499> 300 180<1181 1499>
LayerCount: 2
Fore
SplineSet
470 1580 m 1,0,-1
 480 1580 l 1,1,-1
 480 1181 l 1,2,-1
 310 1100 l 1,3,-1
 300 1100 l 1,4,-1
 300 1499 l 1,5,-1
 470 1580 l 1,0,-1
200 1580 m 1,6,-1
 210 1580 l 1,7,-1
 210 1181 l 1,8,-1
 40 1100 l 1,9,-1
 30 1100 l 1,10,-1
 30 1499 l 1,11,-1
 200 1580 l 1,6,-1
EndSplineSet
Validated: 1
EndChar

StartChar: numbersign
Encoding: 35 35 6
Width: 1408
GlyphClass: 2
Flags: W
HStem: 460 180<190 408 588 820 1000 1218> 872 180<190 408 588 820 1000 1218>
VStem: 408 180<242 460 640 872 1052 1269> 820 180<242 460 640 872 1052 1269>
LayerCount: 2
Fore
SplineSet
578 1350 m 1,0,-1
 588 1350 l 1,1,-1
 588 1052 l 1,2,-1
 820 1052 l 1,3,-1
 820 1269 l 1,4,-1
 990 1350 l 1,5,-1
 1000 1350 l 1,6,-1
 1000 1052 l 1,7,-1
 1298 1052 l 1,8,-1
 1298 1042 l 1,9,-1
 1218 872 l 1,10,-1
 1000 872 l 1,11,-1
 1000 640 l 1,12,-1
 1298 640 l 1,13,-1
 1298 630 l 1,14,-1
 1218 460 l 1,15,-1
 1000 460 l 1,16,-1
 1000 242 l 1,17,-1
 830 161 l 1,18,-1
 820 161 l 1,19,-1
 820 460 l 1,20,-1
 588 460 l 1,21,-1
 588 242 l 1,22,-1
 418 161 l 1,23,-1
 408 161 l 1,24,-1
 408 460 l 1,25,-1
 110 460 l 1,26,-1
 110 470 l 1,27,-1
 190 640 l 1,28,-1
 408 640 l 1,29,-1
 408 872 l 1,30,-1
 110 872 l 1,31,-1
 110 882 l 1,32,-1
 190 1052 l 1,33,-1
 408 1052 l 1,34,-1
 408 1269 l 1,35,-1
 578 1350 l 1,0,-1
820 640 m 1,36,-1
 820 872 l 1,37,-1
 588 872 l 1,38,-1
 588 640 l 1,39,-1
 820 640 l 1,36,-1
EndSplineSet
Validated: 1
EndChar

StartChar: dollar
Encoding: 36 36 7
Width: 1150
GlyphClass: 2
Flags: W
HStem: -19 281<386.422 515 635 746.053> 698 301<454.845 515 635 743.333>
VStem: 108 310<1022.67 1231.27> 515 120<-69 -15.5315 265 692 999 1254 1522.5 1579> 790 320<305.312 648.696>
LayerCount: 2
Fore
SplineSet
635 -69 m 1,0,-1
 525 -120 l 1,1,-1
 515 -120 l 1,2,-1
 515 -19 l 1,3,4
 337 -9 337 -9 194 79 c 0,5,6
 31 179 31 179 20 379 c 1,7,-1
 330 526 l 1,8,-1
 340 526 l 1,9,-1
 340 411 l 2,10,11
 340 327 340 327 398 297 c 0,12,13
 451 269 451 269 515 262 c 1,14,-1
 515 698 l 1,15,16
 369 710 369 710 251 784 c 0,17,18
 108 873 108 873 108 1065 c 2,19,-1
 108 1161 l 2,20,21
 108 1350 108 1350 250 1440 c 0,22,23
 369 1515 369 1515 515 1528 c 1,24,-1
 515 1579 l 1,25,-1
 625 1630 l 1,26,-1
 635 1630 l 1,27,-1
 635 1527 l 1,28,29
 777 1515 777 1515 887 1446 c 0,30,31
 1025 1359 1025 1359 1037 1203 c 1,32,-1
 738 1061 l 1,33,-1
 728 1061 l 1,34,-1
 728 1148 l 2,35,36
 728 1211 728 1211 691 1232 c 0,37,38
 665 1247 665 1247 635 1254 c 1,39,-1
 635 991 l 1,40,41
 805 978 805 978 945 890 c 0,42,43
 1110 788 1110 788 1110 562 c 2,44,-1
 1110 411 l 2,45,46
 1110 184 1110 184 941 82 c 0,47,48
 801 -3 801 -3 635 -17 c 1,49,-1
 635 -69 l 1,0,-1
515 999 m 1,50,-1
 515 1255 l 1,51,52
 479 1248 479 1248 454 1232 c 0,53,54
 418 1209 418 1209 418 1148 c 2,55,-1
 418 1106 l 2,56,57
 418 1043 418 1043 454 1022 c 0,58,59
 481 1006 481 1006 515 999 c 1,50,-1
635 692 m 1,60,-1
 635 265 l 1,61,62
 686 274 686 274 732 297 c 0,63,64
 790 326 790 326 790 411 c 2,65,-1
 790 543 l 2,66,67
 790 628 790 628 736 658 c 0,68,69
 691 683 691 683 635 692 c 1,60,-1
EndSplineSet
Validated: 1
EndChar

StartChar: percent
Encoding: 37 37 8
Width: 1846
GlyphClass: 2
Flags: W
HStem: -20 216<1260.04 1481.98> 504 216<1260.02 1481.98> 790 216<364.04 585.976> 1314 216<364.025 585.975>
VStem: 110 231<1031.66 1288.34> 609 231<1031.66 1288.34> 1006 231<221.663 478.337> 1505 231<221.663 478.337>
DStem2: 464 93 711 -20 0.423093 0.906086<2.11609 1585.94>
LayerCount: 2
Fore
SplineSet
1371 -20 m 128,-1,1
 1226 -20 1226 -20 1116 47.5 c 128,-1,2
 1006 115 1006 115 1006 258 c 2,3,-1
 1006 442 l 2,4,5
 1006 585 1006 585 1116 652.5 c 128,-1,6
 1226 720 1226 720 1371 720 c 128,-1,7
 1516 720 1516 720 1626 652.5 c 128,-1,8
 1736 585 1736 585 1736 442 c 2,9,-1
 1736 258 l 2,10,11
 1736 115 1736 115 1626 47.5 c 128,-1,0
 1516 -20 1516 -20 1371 -20 c 128,-1,1
1371.5 196 m 128,-1,13
 1435 196 1435 196 1474 221 c 0,14,15
 1505 242 1505 242 1505 290 c 2,16,-1
 1505 410 l 2,17,18
 1505 458 1505 458 1474 479 c 0,19,20
 1435 504 1435 504 1371 504 c 128,-1,21
 1307 504 1307 504 1268 479 c 0,22,23
 1237 458 1237 458 1237 410 c 2,24,-1
 1237 290 l 2,25,26
 1237 242 1237 242 1268 221 c 0,27,12
 1308 196 1308 196 1371.5 196 c 128,-1,13
475 1530 m 128,-1,29
 620 1530 620 1530 730 1462.5 c 128,-1,30
 840 1395 840 1395 840 1252 c 2,31,-1
 840 1068 l 2,32,33
 840 925 840 925 730 857.5 c 128,-1,34
 620 790 620 790 475 790 c 128,-1,35
 330 790 330 790 220 857.5 c 128,-1,36
 110 925 110 925 110 1068 c 2,37,-1
 110 1252 l 2,38,39
 110 1395 110 1395 220 1462.5 c 128,-1,28
 330 1530 330 1530 475 1530 c 128,-1,29
475 1314 m 128,-1,41
 411 1314 411 1314 372 1289 c 0,42,43
 341 1268 341 1268 341 1220 c 2,44,-1
 341 1100 l 2,45,46
 341 1052 341 1052 372 1031 c 0,47,48
 412 1006 412 1006 475.5 1006 c 128,-1,49
 539 1006 539 1006 578 1031 c 0,50,51
 609 1052 609 1052 609 1100 c 2,52,-1
 609 1220 l 2,53,54
 609 1268 609 1268 578 1289 c 0,55,40
 539 1314 539 1314 475 1314 c 128,-1,41
701 -20 m 1,56,-1
 464 93 l 1,57,-1
 1135 1530 l 1,58,-1
 1145 1530 l 1,59,-1
 1381 1417 l 1,60,-1
 711 -20 l 1,61,-1
 701 -20 l 1,56,-1
EndSplineSet
Validated: 1
EndChar

StartChar: ampersand
Encoding: 38 38 9
Width: 1692
GlyphClass: 2
Flags: W
HStem: -20 300<473.111 894.976> 1245 285<539.275 815.508>
VStem: 110 320<322.98 657.444> 200 310<981.663 1217.5>
DStem2: 834 955 637 701 0.666352 -0.745637<24.3907 475.935 814.02 1024.86>
LayerCount: 2
Fore
SplineSet
946 355 m 1,0,1
 637 701 l 1,2,3
 562 701 562 701 489 667 c 0,4,5
 430 640 430 640 430 560 c 2,6,-1
 430 422 l 2,7,8
 430 342 430 342 488 315 c 0,9,10
 563 280 563 280 674 280 c 0,11,12
 844 280 844 280 946 355 c 1,0,1
675 -20 m 0,13,14
 448 -20 448 -20 279 82 c 0,15,16
 110 183 110 183 110 410 c 2,17,-1
 110 539 l 2,18,19
 110 756 110 756 277 855 c 1,20,21
 200 934 200 934 200 1060 c 2,22,-1
 200 1161 l 2,23,24
 200 1330 200 1330 348 1445 c 24,25,26
 457 1530 457 1530 675 1530 c 24,27,28
 869 1530 869 1530 1002 1445 c 0,29,30
 1140 1357 1140 1357 1149 1189 c 1,31,-1
 855 1050 l 1,32,-1
 845 1050 l 1,33,-1
 845 1149 l 2,34,35
 845 1201 845 1201 805 1219 c 0,36,37
 747 1245 747 1245 676 1245 c 128,-1,38
 605 1245 605 1245 550 1219 c 0,39,40
 510 1200 510 1200 510 1149 c 2,41,-1
 510 1051 l 2,42,43
 510 1002 510 1002 550 981 c 0,44,45
 600 955 600 955 675 955 c 18,46,-1
 834 955 l 1,47,-1
 1151 600 l 1,48,49
 1200 722 1200 722 1210 851 c 1,50,-1
 1525 1000 l 1,51,-1
 1535 1000 l 1,52,53
 1534 612 1534 612 1364 361 c 1,54,-1
 1582 118 l 1,55,-1
 1291 -20 l 1,56,-1
 1281 -20 l 1,57,-1
 1143 134 l 1,58,59
 941 -20 941 -20 675 -20 c 0,13,14
EndSplineSet
Validated: 1
EndChar

StartChar: quotesingle
Encoding: 39 39 10
Width: 240
GlyphClass: 2
Flags: W
HStem: 1100 480
VStem: 30 180<1181 1499>
LayerCount: 2
Fore
SplineSet
200 1580 m 1,0,-1
 210 1580 l 1,1,-1
 210 1181 l 1,2,-1
 40 1100 l 1,3,-1
 30 1100 l 1,4,-1
 30 1499 l 1,5,-1
 200 1580 l 1,0,-1
EndSplineSet
Validated: 1
EndChar

StartChar: parenleft
Encoding: 40 40 11
Width: 756
GlyphClass: 2
Flags: W
HStem: -240 301<536.617 726> 1449 301<536.617 726>
VStem: 160 320<116.661 1393.34>
LayerCount: 2
Fore
SplineSet
726 -240 m 1,0,1
 496 -240 496 -240 328 -138 c 128,-1,2
 160 -36 160 -36 160 191 c 2,3,-1
 160 1319 l 2,4,5
 160 1546 160 1546 328 1648 c 128,-1,6
 496 1750 496 1750 726 1750 c 1,7,-1
 726 1449 l 1,8,9
 613 1449 613 1449 538 1408 c 0,10,11
 480 1376 480 1376 480 1284 c 2,12,-1
 480 226 l 2,13,14
 480 134 480 134 538 102 c 0,15,16
 613 61 613 61 726 61 c 1,17,-1
 726 -240 l 1,0,1
EndSplineSet
Validated: 1
EndChar

StartChar: parenright
Encoding: 41 41 12
Width: 756
GlyphClass: 2
Flags: W
HStem: -240 301<30 219.383> 1449 301<30 219.383>
VStem: 276 320<116.661 1393.34>
LayerCount: 2
Fore
SplineSet
30 -240 m 1,0,1
 30 61 l 1,2,3
 143 61 143 61 218 102 c 0,4,5
 276 134 276 134 276 226 c 2,6,-1
 276 1284 l 2,7,8
 276 1376 276 1376 218 1408 c 0,9,10
 143 1449 143 1449 30 1449 c 1,11,-1
 30 1750 l 1,12,13
 260 1750 260 1750 428 1648 c 128,-1,14
 596 1546 596 1546 596 1319 c 2,15,-1
 596 191 l 2,16,17
 596 -36 596 -36 428 -138 c 128,-1,18
 260 -240 260 -240 30 -240 c 1,0,1
EndSplineSet
Validated: 1
EndChar

StartChar: asterisk
Encoding: 42 42 13
Width: 790
GlyphClass: 2
Flags: W
VStem: 305 180<921 1054 1366 1499>
DStem2: 190 1432 30 1317 0.866084 -0.499898<0 132.593 444.456 577.049> 30 1103 190 988 0.866084 0.499898<81.0853 213.678 525.542 658.134>
LayerCount: 2
Fore
SplineSet
475 1580 m 1,0,-1
 485 1580 l 1,1,-1
 485 1366 l 1,2,-1
 600 1432 l 1,3,-1
 755 1326 l 1,4,-1
 760 1317 l 1,5,-1
 575 1210 l 1,6,-1
 760 1103 l 1,7,-1
 755 1094 l 1,8,-1
 600 988 l 1,9,-1
 485 1054 l 1,10,-1
 485 921 l 1,11,-1
 315 840 l 1,12,-1
 305 840 l 1,13,-1
 305 1054 l 1,14,-1
 190 988 l 1,15,-1
 35 1094 l 1,16,-1
 30 1103 l 1,17,-1
 215 1210 l 1,18,-1
 30 1317 l 1,19,-1
 35 1326 l 1,20,-1
 190 1432 l 1,21,-1
 305 1366 l 1,22,-1
 305 1499 l 1,23,-1
 475 1580 l 1,0,-1
EndSplineSet
Validated: 1
EndChar

StartChar: plus
Encoding: 43 43 14
Width: 1240
GlyphClass: 2
Flags: W
HStem: 620 270<235 485 755 1005>
VStem: 485 270<370 620 890 1140>
LayerCount: 2
Fore
SplineSet
745 1265 m 1,0,-1
 755 1265 l 1,1,-1
 755 890 l 1,2,-1
 1130 890 l 1,3,-1
 1130 880 l 1,4,-1
 1005 620 l 1,5,-1
 755 620 l 1,6,-1
 755 370 l 1,7,-1
 495 245 l 1,8,-1
 485 245 l 1,9,-1
 485 620 l 1,10,-1
 110 620 l 1,11,-1
 110 630 l 1,12,-1
 235 890 l 1,13,-1
 485 890 l 1,14,-1
 485 1140 l 1,15,-1
 745 1265 l 1,0,-1
EndSplineSet
Validated: 1
EndChar

StartChar: comma
Encoding: 44 44 15
Width: 496
GlyphClass: 2
Flags: W
HStem: -328 666
VStem: 202 264<-112.817 113.6>
LayerCount: 2
Fore
SplineSet
30 212 m 1,0,-1
 299 338 l 1,1,-1
 309 338 l 1,2,3
 466 236 466 236 466 54 c 0,4,5
 466 -203 466 -203 130 -328 c 1,6,-1
 123 -321 l 1,7,8
 202 -172 202 -172 202 -24 c 0,9,10
 202 132 202 132 30 212 c 1,0,-1
EndSplineSet
Validated: 1
EndChar

StartChar: hyphen
Encoding: 45 45 16
Width: 1240
GlyphClass: 2
Flags: W
HStem: 620 270<235 1005>
LayerCount: 2
Fore
SplineSet
235 890 m 1,0,-1
 1130 890 l 1,1,-1
 1130 880 l 1,2,-1
 1005 620 l 1,3,-1
 110 620 l 1,4,-1
 110 630 l 1,5,-1
 235 890 l 1,0,-1
EndSplineSet
Validated: 1
EndChar

StartChar: period
Encoding: 46 46 17
Width: 420
GlyphClass: 2
Flags: W
HStem: -20 365<92.1309 326.878>
VStem: 30 360<42.5657 282.578>
LayerCount: 2
Fore
SplineSet
210 -20 m 0,0,1
 134 -20 134 -20 82 34 c 128,-1,2
 30 88 30 88 30 162 c 0,3,4
 30 238 30 238 82 291 c 0,5,6
 135 345 135 345 210 345 c 128,-1,7
 285 345 285 345 337.5 291.5 c 128,-1,8
 390 238 390 238 390 163 c 128,-1,9
 390 88 390 88 337 34 c 128,-1,10
 284 -20 284 -20 210 -20 c 0,0,1
EndSplineSet
Validated: 1
EndChar

StartChar: slash
Encoding: 47 47 18
Width: 1105
GlyphClass: 2
Flags: W
DStem2: 10 -87 257 -200 0.423051 0.906106<2.10366 1983.21>
LayerCount: 2
Fore
SplineSet
247 -200 m 1,0,-1
 10 -87 l 1,1,-1
 849 1710 l 1,2,-1
 859 1710 l 1,3,-1
 1095 1597 l 1,4,-1
 257 -200 l 1,5,-1
 247 -200 l 1,0,-1
EndSplineSet
Validated: 1
EndChar

StartChar: zero
Encoding: 48 48 19
Width: 1370
GlyphClass: 2
Flags: W
HStem: -20 300<494.495 875.505> 1230 300<494.495 875.505>
VStem: 120 320<330.27 1179.73> 930 320<330.27 1179.73>
LayerCount: 2
Fore
SplineSet
685 280 m 128,-1,1
 797 280 797 280 872 321 c 0,2,3
 930 353 930 353 930 445 c 2,4,-1
 930 1065 l 2,5,6
 930 1157 930 1157 872 1189 c 0,7,8
 797 1230 797 1230 685 1230 c 128,-1,9
 573 1230 573 1230 498 1189 c 0,10,11
 440 1157 440 1157 440 1065 c 2,12,-1
 440 445 l 2,13,14
 440 353 440 353 498 321 c 0,15,0
 573 280 573 280 685 280 c 128,-1,1
685 -20 m 128,-1,17
 456 -20 456 -20 288 82 c 128,-1,18
 120 184 120 184 120 411 c 2,19,-1
 120 1099 l 2,20,21
 120 1326 120 1326 288 1428 c 128,-1,22
 456 1530 456 1530 685 1530 c 128,-1,23
 914 1530 914 1530 1082 1428 c 128,-1,24
 1250 1326 1250 1326 1250 1099 c 2,25,-1
 1250 411 l 2,26,27
 1250 184 1250 184 1082 82 c 128,-1,16
 914 -20 914 -20 685 -20 c 128,-1,17
EndSplineSet
Validated: 1
EndChar

StartChar: one
Encoding: 49 49 20
Width: 794
GlyphClass: 2
Flags: W
HStem: -20 21G<264 316.177> 1510 20G<531.871 584>
VStem: 264 320<127 1078>
LayerCount: 2
Fore
SplineSet
274 -20 m 1,0,-1
 264 -20 l 1,1,-1
 264 1078 l 1,2,-1
 20 973 l 1,3,-1
 20 1267 l 1,4,-1
 574 1530 l 1,5,-1
 584 1530 l 1,6,-1
 584 127 l 1,7,-1
 274 -20 l 1,0,-1
EndSplineSet
Validated: 1
EndChar

StartChar: two
Encoding: 50 50 21
Width: 1273
GlyphClass: 2
Flags: W
HStem: 0 300<620 1047> 1230 300<443.879 789.753>
VStem: 845 320<862.513 1173.34>
DStem2: 622 667 620 300 0.784375 0.620287<-229.214 265.459>
LayerCount: 2
Fore
SplineSet
40 0 m 1,0,-1
 40 10 l 1,1,-1
 187 323 l 1,2,-1
 622 667 l 2,3,4
 845 843 845 843 845 1007 c 2,5,-1
 845 1065 l 2,6,7
 843 1154 843 1154 787 1189 c 0,8,9
 721 1230 721 1230 616 1230 c 128,-1,10
 511 1230 511 1230 443 1189 c 0,11,12
 397 1161 397 1161 388 1100 c 1,13,-1
 75 952 l 1,14,-1
 65 952 l 1,15,-1
 65 1099 l 2,16,17
 65 1326 65 1326 233 1428 c 128,-1,18
 401 1530 401 1530 615 1530 c 128,-1,19
 829 1530 829 1530 997 1428 c 128,-1,20
 1165 1326 1165 1326 1165 1099 c 2,21,-1
 1165 1018 l 2,22,23
 1165 733 1165 733 883 509 c 2,24,-1
 620 300 l 1,25,-1
 1183 300 l 1,26,-1
 1183 290 l 1,27,-1
 1047 0 l 1,28,-1
 40 0 l 1,0,-1
EndSplineSet
Validated: 1
EndChar

StartChar: three
Encoding: 51 51 22
Width: 1240
GlyphClass: 2
Flags: W
HStem: -20 300<435.202 787.878> 1210 300<308 626>
VStem: 840 320<330.27 647.426>
LayerCount: 2
Fore
SplineSet
610 -20 m 128,-1,1
 396 -20 396 -20 228 82 c 0,2,3
 68 179 68 179 60 388 c 1,4,-1
 370 536 l 1,5,-1
 380 536 l 1,6,-1
 380 445 l 2,7,8
 381 355 381 355 438 321 c 0,9,10
 507 280 507 280 611 280 c 128,-1,11
 715 280 715 280 782 321 c 0,12,13
 840 354 840 354 840 445 c 2,14,-1
 840 533 l 2,15,16
 840 625 840 625 782 657 c 0,17,18
 707 698 707 698 613 698 c 0,19,20
 533 698 533 698 463 673 c 1,21,-1
 368 780 l 1,22,-1
 626 1210 l 1,23,-1
 172 1210 l 1,24,-1
 172 1220 l 1,25,-1
 308 1510 l 1,26,-1
 1139 1510 l 1,27,-1
 804 958 l 1,28,29
 916 943 916 943 992 896 c 0,30,31
 1160 793 1160 793 1160 567 c 2,32,-1
 1160 411 l 2,33,34
 1160 184 1160 184 992 82 c 128,-1,0
 824 -20 824 -20 610 -20 c 128,-1,1
EndSplineSet
Validated: 1
EndChar

StartChar: four
Encoding: 52 52 23
Width: 1317
GlyphClass: 2
Flags: W
HStem: -20 21G<787 839.177> 304 300<532 787 1107 1121> 1510 20G<1054.79 1107>
VStem: 787 320<127 304 604 965>
DStem2: 10 314 532 604 0.582974 0.812491<539.935 981.902>
LayerCount: 2
Fore
SplineSet
532 604 m 1,0,-1
 787 604 l 1,1,-1
 787 965 l 1,2,-1
 532 604 l 1,0,-1
797 -20 m 1,3,-1
 787 -20 l 1,4,-1
 787 304 l 1,5,-1
 10 304 l 1,6,-1
 10 314 l 1,7,-1
 772 1376 l 1,8,-1
 1097 1530 l 1,9,-1
 1107 1530 l 1,10,-1
 1107 604 l 1,11,-1
 1257 604 l 1,12,-1
 1257 594 l 1,13,-1
 1121 304 l 1,14,-1
 1107 304 l 1,15,-1
 1107 127 l 1,16,-1
 797 -20 l 1,3,-1
EndSplineSet
Validated: 1
EndChar

StartChar: five
Encoding: 53 53 24
Width: 1240
GlyphClass: 2
Flags: W
HStem: -20 300<435.202 787.878> 698 300<475.33 784.843> 1210 300<545 962>
VStem: 840 320<330.27 641.339>
LayerCount: 2
Fore
SplineSet
610 -20 m 128,-1,1
 396 -20 396 -20 228 82 c 0,2,3
 68 179 68 179 60 388 c 1,4,-1
 370 536 l 1,5,-1
 380 536 l 1,6,-1
 380 445 l 2,7,8
 381 355 381 355 438 321 c 0,9,10
 507 280 507 280 608 280 c 0,11,12
 711 280 711 280 782 321 c 0,13,14
 840 354 840 354 840 445 c 2,15,-1
 840 533 l 2,16,17
 840 620 840 620 782 657 c 0,18,19
 718 698 718 698 613 698 c 0,20,21
 481 698 481 698 391 636 c 1,22,-1
 108 761 l 1,23,-1
 298 1510 l 1,24,-1
 1098 1510 l 1,25,-1
 1098 1500 l 1,26,-1
 962 1210 l 1,27,-1
 545 1210 l 1,28,-1
 474 978 l 1,29,30
 546 998 546 998 610 998 c 0,31,32
 824 998 824 998 992 896 c 128,-1,33
 1160 794 1160 794 1160 567 c 2,34,-1
 1160 411 l 2,35,36
 1160 184 1160 184 992 82 c 128,-1,0
 824 -20 824 -20 610 -20 c 128,-1,1
EndSplineSet
Validated: 1
EndChar

StartChar: six
Encoding: 54 54 25
Width: 1310
GlyphClass: 2
Flags: W
HStem: -20 300<492.122 847.878> 715 300<492.657 847.878> 1230 300<492.122 847.878>
VStem: 120 320<330.27 665.062 972 1179.73> 900 320<330.27 664.73>
LayerCount: 2
Fore
SplineSet
670 -20 m 128,-1,1
 456 -20 456 -20 288 82 c 128,-1,2
 120 184 120 184 120 411 c 2,3,-1
 120 1099 l 2,4,5
 120 1326 120 1326 288 1428 c 128,-1,6
 456 1530 456 1530 670 1530 c 128,-1,7
 884 1530 884 1530 1052 1428 c 0,8,9
 1195 1341 1195 1341 1217 1176 c 1,10,-1
 910 1029 l 1,11,-1
 900 1029 l 1,12,-1
 900 1065 l 2,13,14
 900 1157 900 1157 842 1189 c 0,15,16
 767 1230 767 1230 670 1230 c 128,-1,17
 573 1230 573 1230 498 1189 c 0,18,19
 440 1157 440 1157 440 1065 c 2,20,-1
 440 972 l 1,21,22
 542 1015 542 1015 670 1015 c 0,23,24
 884 1015 884 1015 1052 913 c 128,-1,25
 1220 811 1220 811 1220 584 c 2,26,-1
 1220 411 l 2,27,28
 1220 184 1220 184 1052 82 c 128,-1,0
 884 -20 884 -20 670 -20 c 128,-1,1
670 715 m 128,-1,30
 573 715 573 715 498 674 c 0,31,32
 440 642 440 642 440 550 c 2,33,-1
 440 445 l 2,34,35
 440 353 440 353 498 321 c 0,36,37
 573 280 573 280 670 280 c 128,-1,38
 767 280 767 280 842 321 c 0,39,40
 900 353 900 353 900 445 c 2,41,-1
 900 550 l 2,42,43
 900 642 900 642 842 674 c 0,44,29
 767 715 767 715 670 715 c 128,-1,30
EndSplineSet
Validated: 1
EndChar

StartChar: seven
Encoding: 55 55 26
Width: 1098
GlyphClass: 2
Flags: W
HStem: -20 21G<132 184.412> 1210 300<146 626>
DStem2: 132 -20 564 179 0.36872 0.92954<344.266 1325.48>
LayerCount: 2
Fore
SplineSet
142 -20 m 1,0,-1
 132 -20 l 1,1,-1
 626 1210 l 1,2,-1
 10 1210 l 1,3,-1
 10 1220 l 1,4,-1
 146 1510 l 1,5,-1
 1088 1510 l 1,6,-1
 1088 1500 l 1,7,-1
 564 179 l 1,8,-1
 142 -20 l 1,0,-1
EndSplineSet
Validated: 1
EndChar

StartChar: eight
Encoding: 56 56 27
Width: 1250
GlyphClass: 2
Flags: W
HStem: -20 300<423.111 826.889> 686 275<501.569 748.431> 1245 285<489.275 760.371>
VStem: 60 320<323.648 640.125> 150 310<987.663 1217.5> 790 310<987.663 1217.77> 870 320<323.648 640.125>
LayerCount: 2
Fore
SplineSet
625 280 m 152,-1,1
 737 280 737 280 812 315 c 0,2,3
 870 342 870 342 870 422 c 2,4,-1
 870 544 l 2,5,6
 870 624 870 624 811 651 c 0,7,8
 736 686 736 686 625 686 c 152,-1,9
 514 686 514 686 439 651 c 0,10,11
 380 623 380 623 380 544 c 2,12,-1
 380 422 l 2,13,14
 380 342 380 342 438 315 c 0,15,0
 513 280 513 280 625 280 c 152,-1,1
625 -20 m 152,-1,17
 398 -20 398 -20 229 82.5 c 128,-1,18
 60 185 60 185 60 410 c 2,19,-1
 60 539 l 2,20,21
 60 756 60 756 227 855 c 1,22,23
 150 934 150 934 150 1060 c 2,24,-1
 150 1161 l 2,25,26
 150 1330 150 1330 298 1445 c 24,27,28
 407 1530 407 1530 625 1530 c 24,29,30
 819 1530 819 1530 952 1445 c 0,31,32
 1100 1350 1100 1350 1100 1161 c 2,33,-1
 1100 1060 l 2,34,35
 1100 934 1100 934 1023 855 c 1,36,37
 1190 756 1190 756 1190 539 c 2,38,-1
 1190 410 l 2,39,40
 1190 185 1190 185 1021 82.5 c 128,-1,16
 852 -20 852 -20 625 -20 c 152,-1,17
623.5 1245 m 152,-1,42
 555 1245 555 1245 500 1219 c 0,43,44
 460 1200 460 1200 460 1149 c 2,45,-1
 460 1057 l 2,46,47
 460 1008 460 1008 500 987 c 0,48,49
 550 961 550 961 625 961 c 152,-1,50
 700 961 700 961 750 987 c 0,51,52
 790 1008 790 1008 790 1057 c 2,53,-1
 790 1149 l 2,54,55
 790 1201 790 1201 750 1219 c 0,56,41
 692 1245 692 1245 623.5 1245 c 152,-1,42
EndSplineSet
Validated: 1
EndChar

StartChar: nine
Encoding: 57 57 28
Width: 1310
GlyphClass: 2
Flags: W
HStem: -20 300<462.122 817.878> 495 300<462.122 817.343> 1230 300<462.122 817.878>
VStem: 90 320<845.27 1179.73> 870 320<330.27 538 844.938 1179.73>
LayerCount: 2
Fore
SplineSet
640 -20 m 128,-1,1
 426 -20 426 -20 258 82 c 0,2,3
 115 169 115 169 93 334 c 1,4,-1
 400 481 l 1,5,-1
 410 481 l 1,6,-1
 410 445 l 2,7,8
 410 353 410 353 468 321 c 0,9,10
 543 280 543 280 640 280 c 128,-1,11
 737 280 737 280 812 321 c 0,12,13
 870 353 870 353 870 445 c 2,14,-1
 870 538 l 1,15,16
 768 495 768 495 640 495 c 0,17,18
 426 495 426 495 258 597 c 128,-1,19
 90 699 90 699 90 926 c 2,20,-1
 90 1099 l 2,21,22
 90 1326 90 1326 258 1428 c 128,-1,23
 426 1530 426 1530 640 1530 c 128,-1,24
 854 1530 854 1530 1022 1428 c 128,-1,25
 1190 1326 1190 1326 1190 1099 c 2,26,-1
 1190 411 l 2,27,28
 1190 184 1190 184 1022 82 c 128,-1,0
 854 -20 854 -20 640 -20 c 128,-1,1
640 795 m 128,-1,30
 737 795 737 795 812 836 c 0,31,32
 870 868 870 868 870 960 c 2,33,-1
 870 1065 l 2,34,35
 870 1157 870 1157 812 1189 c 0,36,37
 737 1230 737 1230 640 1230 c 128,-1,38
 543 1230 543 1230 468 1189 c 0,39,40
 410 1157 410 1157 410 1065 c 2,41,-1
 410 960 l 2,42,43
 410 868 410 868 468 836 c 0,44,29
 543 795 543 795 640 795 c 128,-1,30
EndSplineSet
Validated: 1
EndChar

StartChar: colon
Encoding: 58 58 29
Width: 420
GlyphClass: 2
Flags: W
HStem: -20 365<92.1309 326.878> 573 365<92.1309 326.878>
VStem: 30 360<42.5657 282.578 635.566 875.578>
LayerCount: 2
Fore
SplineSet
210 938 m 128,-1,1
 285 938 285 938 337.5 884.5 c 128,-1,2
 390 831 390 831 390 756 c 128,-1,3
 390 681 390 681 337 627 c 128,-1,4
 284 573 284 573 210 573 c 0,5,6
 134 573 134 573 82 627 c 128,-1,7
 30 681 30 681 30 755 c 0,8,9
 30 831 30 831 82 884 c 0,10,0
 135 938 135 938 210 938 c 128,-1,1
210 -20 m 0,11,12
 134 -20 134 -20 82 34 c 128,-1,13
 30 88 30 88 30 162 c 0,14,15
 30 238 30 238 82 291 c 0,16,17
 135 345 135 345 210 345 c 128,-1,18
 285 345 285 345 337.5 291.5 c 128,-1,19
 390 238 390 238 390 163 c 128,-1,20
 390 88 390 88 337 34 c 128,-1,21
 284 -20 284 -20 210 -20 c 0,11,12
EndSplineSet
Validated: 1
EndChar

StartChar: semicolon
Encoding: 59 59 30
Width: 496
GlyphClass: 2
Flags: W
HStem: 573 365<130.131 364.878>
VStem: 68 360<635.566 875.578> 202 264<-112.817 113.6>
LayerCount: 2
Fore
SplineSet
30 212 m 1,0,-1
 299 338 l 1,1,-1
 309 338 l 1,2,3
 466 236 466 236 466 54 c 0,4,5
 466 -203 466 -203 130 -328 c 1,6,-1
 123 -321 l 1,7,8
 202 -172 202 -172 202 -24 c 0,9,10
 202 132 202 132 30 212 c 1,0,-1
248 938 m 128,-1,12
 323 938 323 938 375.5 884.5 c 128,-1,13
 428 831 428 831 428 756 c 128,-1,14
 428 681 428 681 375 627 c 128,-1,15
 322 573 322 573 248 573 c 0,16,17
 172 573 172 573 120 627 c 128,-1,18
 68 681 68 681 68 755 c 0,19,20
 68 831 68 831 120 884 c 0,21,11
 173 938 173 938 248 938 c 128,-1,12
EndSplineSet
Validated: 1
EndChar

StartChar: less
Encoding: 60 60 31
Width: 1355
GlyphClass: 2
Flags: W
DStem2: 586 751 110 638 0.942398 -0.334493<0 620.627> 227 891 586 751 0.937801 0.347172<288.067 915.972>
LayerCount: 2
Fore
SplineSet
110 638 m 1,0,-1
 110 648 l 1,1,-1
 227 891 l 1,2,-1
 1086 1209 l 1,3,-1
 1195 983 l 1,4,-1
 1195 973 l 1,5,-1
 586 751 l 1,6,-1
 1195 539 l 1,7,-1
 1195 529 l 1,8,-1
 1082 293 l 1,9,-1
 110 638 l 1,0,-1
EndSplineSet
Validated: 1
EndChar

StartChar: equal
Encoding: 61 61 32
Width: 1240
GlyphClass: 2
Flags: W
HStem: 390 270<235 1005> 850 270<235 1005>
LayerCount: 2
Fore
SplineSet
235 660 m 1,0,-1
 1130 660 l 1,1,-1
 1130 650 l 1,2,-1
 1005 390 l 1,3,-1
 110 390 l 1,4,-1
 110 400 l 1,5,-1
 235 660 l 1,0,-1
235 1120 m 1,6,-1
 1130 1120 l 1,7,-1
 1130 1110 l 1,8,-1
 1005 850 l 1,9,-1
 110 850 l 1,10,-1
 110 860 l 1,11,-1
 235 1120 l 1,6,-1
EndSplineSet
Validated: 1
EndChar

StartChar: greater
Encoding: 62 62 33
Width: 1355
GlyphClass: 2
Flags: W
DStem2: 273 1217 160 971 0.942398 -0.334493<0 620.627> 160 537 269 301 0.937801 0.347172<20.2877 648.193>
LayerCount: 2
Fore
SplineSet
1245 872 m 1,0,-1
 1245 862 l 1,1,-1
 1128 619 l 1,2,-1
 269 301 l 1,3,-1
 160 527 l 1,4,-1
 160 537 l 1,5,-1
 769 759 l 1,6,-1
 160 971 l 1,7,-1
 160 981 l 1,8,-1
 273 1217 l 1,9,-1
 1245 872 l 1,0,-1
EndSplineSet
Validated: 1
EndChar

StartChar: question
Encoding: 63 63 34
Width: 1320
GlyphClass: 2
Flags: W
HStem: -20 365<507.131 741.878> 1230 300<488.771 834.843>
VStem: 445 360<42.5657 282.578> 890 320<896.936 1173.34>
LayerCount: 2
Fore
SplineSet
660 1530 m 128,-1,1
 874 1530 874 1530 1042 1428 c 128,-1,2
 1210 1326 1210 1326 1210 1099 c 2,3,-1
 1210 1056 l 2,4,5
 1210 736 1210 736 848 571 c 0,6,7
 791 545 791 545 791 506 c 1,8,-1
 478 359 l 1,9,-1
 468 359 l 1,10,11
 468 693 468 693 711 796 c 0,12,13
 890 872 890 872 890 1038 c 2,14,-1
 890 1065 l 2,15,16
 890 1151 890 1151 832 1189 c 0,17,18
 769 1230 769 1230 659 1230 c 128,-1,19
 549 1230 549 1230 488 1189 c 0,20,21
 441 1159 441 1159 433 1100 c 1,22,-1
 120 952 l 1,23,-1
 110 952 l 1,24,-1
 110 1099 l 2,25,26
 110 1326 110 1326 278 1428 c 128,-1,0
 446 1530 446 1530 660 1530 c 128,-1,1
625 -20 m 0,27,28
 549 -20 549 -20 497 34 c 128,-1,29
 445 88 445 88 445 162 c 0,30,31
 445 238 445 238 497 291 c 0,32,33
 550 345 550 345 625 345 c 128,-1,34
 700 345 700 345 752.5 291.5 c 128,-1,35
 805 238 805 238 805 163 c 128,-1,36
 805 88 805 88 752 34 c 128,-1,37
 699 -20 699 -20 625 -20 c 0,27,28
EndSplineSet
Validated: 1
EndChar

StartChar: at
Encoding: 64 64 35
Width: 1420
GlyphClass: 2
Flags: W
HStem: -430 280<493 706> -20 240<824.722 980> 449 240<831.959 977> 851 269<509.414 914.947>
VStem: 140 300<-101.938 786.897> 544 240<249.665 421.353> 980 300<220 449>
LayerCount: 2
Fore
SplineSet
990 -20 m 1,0,-1
 954 -20 l 2,1,2
 773 -20 773 -20 656 76 c 0,3,4
 544 169 544 169 544 304 c 2,5,-1
 544 389 l 2,6,7
 544 541 544 541 658 618 c 0,8,9
 764 689 764 689 954 689 c 2,10,-1
 977 689 l 1,11,12
 972 774 972 774 919 806 c 0,13,14
 845 851 845 851 708 851 c 0,15,16
 575 851 575 851 498 801 c 0,17,18
 440 763 440 763 440 685 c 2,19,-1
 440 5 l 2,20,21
 440 -82 440 -82 498 -111 c 24,22,23
 575 -150 575 -150 705 -150 c 2,24,-1
 836 -150 l 1,25,-1
 836 -160 l 1,26,-1
 706 -430 l 1,27,28
 479 -430 479 -430 308 -332 c 0,29,30
 140 -236 140 -236 140 13 c 2,31,-1
 140 673 l 2,32,33
 140 888 140 888 308 1014 c 0,34,35
 448 1120 448 1120 711 1120 c 0,36,37
 941 1120 941 1120 1110 1010 c 0,38,39
 1280 900 1280 900 1280 677 c 2,40,-1
 1280 118 l 1,41,-1
 990 -20 l 1,0,-1
980 220 m 1,42,-1
 980 449 l 1,43,-1
 946 449 l 2,44,45
 877 449 877 449 830.5 425 c 128,-1,46
 784 401 784 401 784 351 c 2,47,-1
 784 327 l 2,48,49
 784 270 784 270 823 249 c 24,50,51
 878 220 878 220 946 220 c 2,52,-1
 980 220 l 1,42,-1
EndSplineSet
Validated: 1
EndChar

StartChar: A
Encoding: 65 65 36
Width: 1410
GlyphClass: 2
Flags: W
HStem: -20 21G<140 192.177 950 1002.18> 605 300<460 950> 1230 300<514.495 895.505>
VStem: 140 320<127 605 905 1179.73> 950 320<127 605 905 1179.73>
LayerCount: 2
Fore
SplineSet
150 -20 m 1,0,-1
 140 -20 l 1,1,-1
 140 1099 l 2,2,3
 140 1326 140 1326 308 1428 c 128,-1,4
 476 1530 476 1530 705 1530 c 128,-1,5
 934 1530 934 1530 1102 1428 c 128,-1,6
 1270 1326 1270 1326 1270 1099 c 2,7,-1
 1270 127 l 1,8,-1
 960 -20 l 1,9,-1
 950 -20 l 1,10,-1
 950 605 l 1,11,-1
 460 605 l 1,12,-1
 460 127 l 1,13,-1
 150 -20 l 1,0,-1
460 905 m 1,14,-1
 950 905 l 1,15,-1
 950 1065 l 2,16,17
 950 1157 950 1157 892 1189 c 0,18,19
 817 1230 817 1230 705 1230 c 128,-1,20
 593 1230 593 1230 518 1189 c 0,21,22
 460 1157 460 1157 460 1065 c 2,23,-1
 460 905 l 1,14,-1
EndSplineSet
Validated: 1
EndChar

StartChar: B
Encoding: 66 66 37
Width: 1290
GlyphClass: 2
Flags: W
HStem: 0 300<480 875.068> 686 275<480 798.429> 1225 285<480 798.275>
VStem: 160 320<300 686 961 1225> 840 310<987.632 1198.03> 920 320<343.648 640.125>
LayerCount: 2
Fore
SplineSet
480 686 m 1,0,-1
 480 300 l 1,1,-1
 675 300 l 2,2,3
 784 300 784 300 862 335 c 0,4,5
 920 362 920 362 920 442 c 2,6,-1
 920 544 l 2,7,8
 920 623 920 623 861 651 c 0,9,10
 786 686 786 686 675 686 c 2,11,-1
 480 686 l 1,0,-1
160 0 m 1,12,-1
 160 1384 l 1,13,-1
 428 1510 l 1,14,-1
 675 1510 l 2,15,16
 869 1510 869 1510 1002 1425 c 24,17,18
 1150 1331 1150 1331 1150 1141 c 2,19,-1
 1150 1060 l 2,20,21
 1150 934 1150 934 1073 855 c 1,22,23
 1240 756 1240 756 1240 539 c 2,24,-1
 1240 430 l 2,25,26
 1240 205 1240 205 1071 102.5 c 128,-1,27
 902 0 902 0 675 0 c 2,28,-1
 160 0 l 1,12,-1
480 1225 m 1,29,-1
 480 961 l 1,30,-1
 665 961 l 2,31,32
 750 961 750 961 800 987 c 24,33,34
 840 1007 840 1007 840 1057 c 2,35,-1
 840 1129 l 2,36,37
 840 1181 840 1181 800 1199 c 0,38,39
 745 1225 745 1225 665 1225 c 2,40,-1
 480 1225 l 1,29,-1
EndSplineSet
Validated: 1
EndChar

StartChar: C
Encoding: 67 67 38
Width: 1260
GlyphClass: 2
Flags: W
HStem: -20 300<495.202 841.121> 1230 300<495.157 844.709>
VStem: 120 320<330.375 1179.41>
LayerCount: 2
Fore
SplineSet
670 -20 m 128,-1,1
 456 -20 456 -20 288 82 c 128,-1,2
 120 184 120 184 120 411 c 2,3,-1
 120 1099 l 2,4,5
 120 1326 120 1326 288 1428 c 128,-1,6
 456 1530 456 1530 670 1530 c 128,-1,7
 884 1530 884 1530 1052 1428 c 0,8,9
 1212 1331 1212 1331 1220 1122 c 1,10,-1
 910 974 l 1,11,-1
 900 974 l 1,12,-1
 900 1065 l 2,13,14
 897 1152 897 1152 842 1189 c 0,15,16
 781 1230 781 1230 671 1230 c 0,17,18
 562 1230 562 1230 498 1189 c 0,19,20
 440 1154 440 1154 440 1065 c 2,21,-1
 440 445 l 2,22,23
 441 355 441 355 498 321 c 0,24,25
 567 280 567 280 670 280 c 0,26,27
 774 280 774 280 842 321 c 0,28,29
 888 348 888 348 897 410 c 1,30,-1
 1210 558 l 1,31,-1
 1220 558 l 1,32,-1
 1220 411 l 2,33,34
 1220 184 1220 184 1052 82 c 128,-1,0
 884 -20 884 -20 670 -20 c 128,-1,1
EndSplineSet
Validated: 1
EndChar

StartChar: D
Encoding: 68 68 39
Width: 1390
GlyphClass: 2
Flags: W
HStem: 0 300<480 893.699> 1210 300<480 893.699>
VStem: 160 320<300 1210> 950 320<350.27 1159.73>
LayerCount: 2
Fore
SplineSet
480 300 m 1,0,-1
 705 300 l 2,1,2
 818 300 818 300 892 341 c 0,3,4
 950 373 950 373 950 465 c 2,5,-1
 950 1045 l 2,6,7
 950 1137 950 1137 892 1169 c 0,8,9
 817 1210 817 1210 705 1210 c 2,10,-1
 480 1210 l 1,11,-1
 480 300 l 1,0,-1
160 0 m 1,12,-1
 160 1383 l 1,13,-1
 428 1510 l 1,14,-1
 705 1510 l 2,15,16
 934 1510 934 1510 1102 1408 c 128,-1,17
 1270 1306 1270 1306 1270 1079 c 2,18,-1
 1270 431 l 2,19,20
 1270 204 1270 204 1102 102 c 128,-1,21
 934 0 934 0 705 0 c 2,22,-1
 160 0 l 1,12,-1
EndSplineSet
Validated: 1
EndChar

StartChar: E
Encoding: 69 69 40
Width: 1100
GlyphClass: 2
Flags: W
HStem: 0 300<480 954> 605 300<480 904> 1210 300<480 904>
VStem: 160 320<300 605 905 1210>
CounterMasks: 1 e0
LayerCount: 2
Fore
SplineSet
160 0 m 1,0,-1
 160 1384 l 1,1,-1
 428 1510 l 1,2,-1
 1040 1510 l 1,3,-1
 1040 1500 l 1,4,-1
 904 1210 l 1,5,-1
 480 1210 l 1,6,-1
 480 905 l 1,7,-1
 1040 905 l 1,8,-1
 1040 895 l 1,9,-1
 904 605 l 1,10,-1
 480 605 l 1,11,-1
 480 300 l 1,12,-1
 1090 300 l 1,13,-1
 1090 290 l 1,14,-1
 954 0 l 1,15,-1
 160 0 l 1,0,-1
EndSplineSet
Validated: 1
EndChar

StartChar: F
Encoding: 70 70 41
Width: 1050
GlyphClass: 2
Flags: W
HStem: -20 21G<160 212.177> 605 300<480 904> 1210 300<480 904>
VStem: 160 320<127 605 905 1210>
LayerCount: 2
Fore
SplineSet
170 -20 m 1,0,-1
 160 -20 l 1,1,-1
 160 1384 l 1,2,-1
 428 1510 l 1,3,-1
 1040 1510 l 1,4,-1
 1040 1500 l 1,5,-1
 904 1210 l 1,6,-1
 480 1210 l 1,7,-1
 480 905 l 1,8,-1
 1040 905 l 1,9,-1
 1040 895 l 1,10,-1
 904 605 l 1,11,-1
 480 605 l 1,12,-1
 480 127 l 1,13,-1
 170 -20 l 1,0,-1
EndSplineSet
Validated: 1
EndChar

StartChar: G
Encoding: 71 71 42
Width: 1340
GlyphClass: 2
Flags: W
HStem: -20 300<495.247 844.843> 605 300<703 900> 1230 300<495.157 844.709>
VStem: 120 320<336.661 1179.41> 900 320<336.661 605 1122 1177.6>
CounterMasks: 1 e0
LayerCount: 2
Fore
SplineSet
670 -20 m 128,-1,1
 456 -20 456 -20 288 82 c 128,-1,2
 120 184 120 184 120 411 c 2,3,-1
 120 1099 l 2,4,5
 120 1326 120 1326 288 1428 c 128,-1,6
 456 1530 456 1530 670 1530 c 128,-1,7
 884 1530 884 1530 1052 1428 c 0,8,9
 1212 1331 1212 1331 1220 1122 c 1,10,-1
 910 974 l 1,11,-1
 900 974 l 1,12,-1
 900 1065 l 2,13,14
 897 1152 897 1152 842 1189 c 0,15,16
 781 1230 781 1230 672 1230 c 0,17,18
 562 1230 562 1230 498 1189 c 0,19,20
 440 1154 440 1154 440 1065 c 2,21,-1
 440 445 l 2,22,23
 442 357 442 357 498 321 c 0,24,25
 562 280 562 280 672 280 c 128,-1,26
 782 280 782 280 842 321 c 0,27,28
 900 361 900 361 900 445 c 2,29,-1
 900 605 l 1,30,-1
 567 605 l 1,31,-1
 567 615 l 1,32,-1
 703 905 l 1,33,-1
 1220 905 l 1,34,-1
 1220 411 l 2,35,36
 1220 184 1220 184 1052 82 c 128,-1,0
 884 -20 884 -20 670 -20 c 128,-1,1
EndSplineSet
Validated: 1
EndChar

StartChar: H
Encoding: 72 72 43
Width: 1440
GlyphClass: 2
Flags: W
HStem: -20 21G<160 212.177 960 1012.18> 605 300<480 960> 1510 20G<427.823 480 1227.82 1280>
VStem: 160 320<127 605 905 1383> 960 320<127 605 905 1383>
LayerCount: 2
Fore
SplineSet
170 -20 m 1,0,-1
 160 -20 l 1,1,-1
 160 1383 l 1,2,-1
 470 1530 l 1,3,-1
 480 1530 l 1,4,-1
 480 905 l 1,5,-1
 960 905 l 1,6,-1
 960 1383 l 1,7,-1
 1270 1530 l 1,8,-1
 1280 1530 l 1,9,-1
 1280 127 l 1,10,-1
 970 -20 l 1,11,-1
 960 -20 l 1,12,-1
 960 605 l 1,13,-1
 480 605 l 1,14,-1
 480 127 l 1,15,-1
 170 -20 l 1,0,-1
EndSplineSet
Validated: 1
EndChar

StartChar: I
Encoding: 73 73 44
Width: 640
GlyphClass: 2
Flags: W
HStem: -20 21G<160 212.177> 1510 20G<427.823 480>
VStem: 160 320<127 1383>
LayerCount: 2
Fore
SplineSet
170 -20 m 1,0,-1
 160 -20 l 1,1,-1
 160 1383 l 1,2,-1
 470 1530 l 1,3,-1
 480 1530 l 1,4,-1
 480 127 l 1,5,-1
 170 -20 l 1,0,-1
EndSplineSet
Validated: 1
EndChar

StartChar: J
Encoding: 74 74 45
Width: 1200
GlyphClass: 2
Flags: W
HStem: -20 300<382.651 707.349> 1210 300<251 760>
VStem: 760 320<330.27 1210>
LayerCount: 2
Fore
SplineSet
545 -20 m 128,-1,1
 346 -20 346 -20 178 82 c 0,2,3
 21 177 21 177 10 389 c 1,4,-1
 320 535 l 1,5,-1
 330 535 l 1,6,-1
 330 445 l 2,7,8
 330 353 330 353 388 321 c 0,9,10
 463 280 463 280 545 280 c 128,-1,11
 627 280 627 280 702 321 c 0,12,13
 760 353 760 353 760 445 c 2,14,-1
 760 1210 l 1,15,-1
 115 1210 l 1,16,-1
 115 1220 l 1,17,-1
 251 1510 l 1,18,-1
 1080 1510 l 1,19,-1
 1080 411 l 2,20,21
 1080 184 1080 184 912 82 c 128,-1,0
 744 -20 744 -20 545 -20 c 128,-1,1
EndSplineSet
Validated: 1
EndChar

StartChar: K
Encoding: 75 75 46
Width: 1380
GlyphClass: 2
Flags: W
HStem: -20 21G<160 212.177 940 992.177> 1510 20G<427.823 480 949.836 1023.33>
VStem: 160 320<127 763.062 1066 1383> 940 320<127 762.73>
LayerCount: 2
Fore
SplineSet
170 -20 m 1,0,-1
 160 -20 l 1,1,-1
 160 1383 l 1,2,-1
 470 1530 l 1,3,-1
 480 1530 l 1,4,-1
 480 1066 l 1,5,-1
 971 1530 l 1,6,-1
 981 1530 l 1,7,-1
 1254 1401 l 1,8,-1
 912 1091 l 1,9,10
 1000 1070 1000 1070 1094 1011 c 0,11,12
 1260 909 1260 909 1260 682 c 2,13,-1
 1260 127 l 1,14,-1
 950 -20 l 1,15,-1
 940 -20 l 1,16,-1
 940 648 l 2,17,18
 940 740 940 740 882 772 c 0,19,20
 807 813 807 813 710 813 c 128,-1,21
 613 813 613 813 538 772 c 0,22,23
 480 740 480 740 480 648 c 2,24,-1
 480 127 l 1,25,-1
 170 -20 l 1,0,-1
EndSplineSet
Validated: 1
EndChar

StartChar: L
Encoding: 76 76 47
Width: 1100
GlyphClass: 2
Flags: W
HStem: 0 300<480 954> 1510 20G<427.534 480>
VStem: 160 320<300 1384>
LayerCount: 2
Fore
SplineSet
160 0 m 1,0,-1
 160 1384 l 1,1,-1
 470 1530 l 1,2,-1
 480 1530 l 1,3,-1
 480 300 l 1,4,-1
 1090 300 l 1,5,-1
 1090 290 l 1,6,-1
 954 0 l 1,7,-1
 160 0 l 1,0,-1
EndSplineSet
Validated: 1
EndChar

StartChar: M
Encoding: 77 77 48
Width: 2220
GlyphClass: 2
Flags: W
HStem: -20 21G<140 192.177 950 1002.18 1760 1812.18> 1230 300<514.812 897.571 1323.08 1705.35>
VStem: 140 320<127 1179.73> 950 320<127 1180.06> 1760 320<127 1179.73>
CounterMasks: 1 38
LayerCount: 2
Fore
SplineSet
150 -20 m 1,0,-1
 140 -20 l 1,1,-1
 140 1099 l 2,2,3
 140 1326 140 1326 308 1428 c 128,-1,4
 476 1530 476 1530 707 1530 c 128,-1,5
 938 1530 938 1530 1110 1423 c 1,6,7
 1284 1530 1284 1530 1514 1530 c 128,-1,8
 1744 1530 1744 1530 1912 1428 c 128,-1,9
 2080 1326 2080 1326 2080 1099 c 2,10,-1
 2080 127 l 1,11,-1
 1770 -20 l 1,12,-1
 1760 -20 l 1,13,-1
 1760 1065 l 2,14,15
 1760 1157 1760 1157 1702 1189 c 0,16,17
 1627 1230 1627 1230 1515 1230 c 128,-1,18
 1403 1230 1403 1230 1328 1189 c 0,19,20
 1270 1157 1270 1157 1270 1065 c 2,21,-1
 1270 127 l 1,22,-1
 960 -20 l 1,23,-1
 950 -20 l 1,24,-1
 950 1065 l 2,25,26
 950 1157 950 1157 892 1189 c 0,27,28
 817 1230 817 1230 705 1230 c 128,-1,29
 593 1230 593 1230 518 1189 c 0,30,31
 460 1157 460 1157 460 1065 c 2,32,-1
 460 127 l 1,33,-1
 150 -20 l 1,0,-1
EndSplineSet
Validated: 1
EndChar

StartChar: N
Encoding: 78 78 49
Width: 1410
GlyphClass: 2
Flags: W
HStem: -20 21G<140 192.177 950 1002.18> 1230 300<514.495 895.505>
VStem: 140 320<127 1179.73> 950 320<127 1179.73>
LayerCount: 2
Fore
SplineSet
150 -20 m 1,0,-1
 140 -20 l 1,1,-1
 140 1099 l 2,2,3
 140 1326 140 1326 308 1428 c 128,-1,4
 476 1530 476 1530 705 1530 c 128,-1,5
 934 1530 934 1530 1102 1428 c 128,-1,6
 1270 1326 1270 1326 1270 1099 c 2,7,-1
 1270 127 l 1,8,-1
 960 -20 l 1,9,-1
 950 -20 l 1,10,-1
 950 1065 l 2,11,12
 950 1157 950 1157 892 1189 c 0,13,14
 817 1230 817 1230 705 1230 c 128,-1,15
 593 1230 593 1230 518 1189 c 0,16,17
 460 1157 460 1157 460 1065 c 2,18,-1
 460 127 l 1,19,-1
 150 -20 l 1,0,-1
EndSplineSet
Validated: 1
EndChar

StartChar: O
Encoding: 79 79 50
Width: 1370
GlyphClass: 2
Flags: W
HStem: -20 300<494.495 875.505> 1230 300<494.495 875.505>
VStem: 120 320<330.27 1179.73> 930 320<330.27 1179.73>
LayerCount: 2
Fore
SplineSet
685 280 m 128,-1,1
 797 280 797 280 872 321 c 0,2,3
 930 353 930 353 930 445 c 2,4,-1
 930 1065 l 2,5,6
 930 1157 930 1157 872 1189 c 0,7,8
 797 1230 797 1230 685 1230 c 128,-1,9
 573 1230 573 1230 498 1189 c 0,10,11
 440 1157 440 1157 440 1065 c 2,12,-1
 440 445 l 2,13,14
 440 353 440 353 498 321 c 0,15,0
 573 280 573 280 685 280 c 128,-1,1
685 -20 m 128,-1,17
 456 -20 456 -20 288 82 c 128,-1,18
 120 184 120 184 120 411 c 2,19,-1
 120 1099 l 2,20,21
 120 1326 120 1326 288 1428 c 128,-1,22
 456 1530 456 1530 685 1530 c 128,-1,23
 914 1530 914 1530 1082 1428 c 128,-1,24
 1250 1326 1250 1326 1250 1099 c 2,25,-1
 1250 411 l 2,26,27
 1250 184 1250 184 1082 82 c 128,-1,16
 914 -20 914 -20 685 -20 c 128,-1,17
EndSplineSet
Validated: 1
EndChar

StartChar: P
Encoding: 80 80 51
Width: 1270
GlyphClass: 2
Flags: W
HStem: -20 21G<160 212.177> 440 300<480 863.699> 1210 300<480 863.699>
VStem: 160 320<127 440 740 1210> 920 320<790.27 1159.73>
LayerCount: 2
Fore
SplineSet
170 -20 m 1,0,-1
 160 -20 l 1,1,-1
 160 1383 l 1,2,-1
 428 1510 l 1,3,-1
 675 1510 l 2,4,5
 904 1510 904 1510 1072 1408 c 128,-1,6
 1240 1306 1240 1306 1240 1079 c 2,7,-1
 1240 871 l 2,8,9
 1240 644 1240 644 1072 542 c 128,-1,10
 904 440 904 440 675 440 c 2,11,-1
 480 440 l 1,12,-1
 480 127 l 1,13,-1
 170 -20 l 1,0,-1
480 1210 m 1,14,-1
 480 740 l 1,15,-1
 675 740 l 2,16,17
 788 740 788 740 862 781 c 0,18,19
 920 813 920 813 920 905 c 2,20,-1
 920 1045 l 2,21,22
 920 1137 920 1137 862 1169 c 0,23,24
 787 1210 787 1210 675 1210 c 2,25,-1
 480 1210 l 1,14,-1
EndSplineSet
Validated: 19457
EndChar

StartChar: Q
Encoding: 81 81 52
Width: 1370
GlyphClass: 2
Flags: W
HStem: -40 21G<885.128 969.175> -20 300<496.301 664> 1230 300<494.495 875.505>
VStem: 120 320<330.27 1179.73> 930 320<421.344 1179.73>
LayerCount: 2
Fore
SplineSet
685 -20 m 0,0,1
 456 -20 456 -20 288 82 c 128,-1,2
 120 184 120 184 120 411 c 2,3,-1
 120 1099 l 2,4,5
 120 1326 120 1326 288 1428 c 128,-1,6
 456 1530 456 1530 685 1530 c 128,-1,7
 914 1530 914 1530 1082 1428 c 128,-1,8
 1250 1326 1250 1326 1250 1099 c 2,9,-1
 1250 411 l 2,10,11
 1250 231 1250 231 1144 129 c 1,12,-1
 1197 57 l 1,13,-1
 910 -40 l 1,14,-1
 900 -40 l 1,15,-1
 871 -1 l 1,16,17
 784 -20 784 -20 685 -20 c 0,0,1
664 280 m 1,18,-1
 494 512 l 1,19,-1
 781 609 l 1,20,-1
 791 609 l 1,21,-1
 929 421 l 1,22,23
 930 432 930 432 930 445 c 2,24,-1
 930 1065 l 2,25,26
 930 1157 930 1157 872 1189 c 0,27,28
 797 1230 797 1230 685 1230 c 128,-1,29
 573 1230 573 1230 498 1189 c 0,30,31
 440 1157 440 1157 440 1065 c 2,32,-1
 440 445 l 2,33,34
 440 353 440 353 498 321 c 0,35,36
 566 283 566 283 664 280 c 1,18,-1
EndSplineSet
Validated: 1
EndChar

StartChar: R
Encoding: 82 82 53
Width: 1369
GlyphClass: 2
Flags: W
HStem: -20 21G<160 212.177 998.87 1068> 440 300<480 688> 1210 300<480 863.699>
VStem: 160 320<127 440 740 1210> 920 320<790.27 1159.73>
LayerCount: 2
Fore
SplineSet
480 1210 m 1,0,-1
 480 740 l 1,1,-1
 675 740 l 2,2,3
 788 740 788 740 862 781 c 0,4,5
 920 813 920 813 920 905 c 2,6,-1
 920 1045 l 2,7,8
 920 1137 920 1137 862 1169 c 0,9,10
 787 1210 787 1210 675 1210 c 2,11,-1
 480 1210 l 1,0,-1
170 -20 m 1,12,-1
 160 -20 l 1,13,-1
 160 1383 l 1,14,-1
 428 1510 l 1,15,-1
 675 1510 l 2,16,17
 904 1510 904 1510 1072 1408 c 128,-1,18
 1240 1306 1240 1306 1240 1079 c 2,19,-1
 1240 871 l 2,20,21
 1240 644 1240 644 1072 542 c 0,22,23
 1054 531 1054 531 1036 521 c 1,24,-1
 1329 116 l 1,25,-1
 1023 -20 l 1,26,-1
 1013 -20 l 1,27,-1
 688 440 l 9,28,-1
 480 440 l 1,29,-1
 480 127 l 1,30,-1
 170 -20 l 1,12,-1
EndSplineSet
Validated: 1
EndChar

StartChar: T
Encoding: 84 84 54
Width: 1190
GlyphClass: 2
Flags: W
HStem: -20 21G<435 487.466> 1210 300<146 435 755 1044>
VStem: 435 320<126 1210>
LayerCount: 2
Fore
SplineSet
445 -20 m 1,0,-1
 435 -20 l 1,1,-1
 435 1210 l 1,2,-1
 10 1210 l 1,3,-1
 10 1220 l 1,4,-1
 146 1510 l 1,5,-1
 1180 1510 l 1,6,-1
 1180 1500 l 1,7,-1
 1044 1210 l 1,8,-1
 755 1210 l 1,9,-1
 755 126 l 1,10,-1
 445 -20 l 1,0,-1
EndSplineSet
Validated: 1
EndChar

StartChar: U
Encoding: 85 85 55
Width: 1410
GlyphClass: 2
Flags: W
HStem: -20 300<514.495 895.505> 1510 20G<407.823 460 1217.82 1270>
VStem: 140 320<330.27 1383> 950 320<330.27 1383>
LayerCount: 2
Fore
SplineSet
705 -20 m 128,-1,1
 476 -20 476 -20 308 82 c 128,-1,2
 140 184 140 184 140 411 c 2,3,-1
 140 1383 l 1,4,-1
 450 1530 l 1,5,-1
 460 1530 l 1,6,-1
 460 445 l 2,7,8
 460 353 460 353 518 321 c 0,9,10
 593 280 593 280 705 280 c 128,-1,11
 817 280 817 280 892 321 c 0,12,13
 950 353 950 353 950 445 c 2,14,-1
 950 1383 l 1,15,-1
 1260 1530 l 1,16,-1
 1270 1530 l 1,17,-1
 1270 411 l 2,18,19
 1270 184 1270 184 1102 82 c 128,-1,0
 934 -20 934 -20 705 -20 c 128,-1,1
EndSplineSet
Validated: 1
EndChar

StartChar: V
Encoding: 86 86 56
Width: 1362
GlyphClass: 2
Flags: W
HStem: -20 21G<540.336 600.222> 1510 20G<244.594 304.652 1080.83 1141.64>
DStem2: 297 1530 5 1397 0.357831 -0.933786<19.707 1071.77> 680 529 824 106 0.378605 0.925558<0 1070.81>
LayerCount: 2
Fore
SplineSet
558 -20 m 1,0,-1
 548 -20 l 1,1,-1
 5 1397 l 1,2,-1
 287 1530 l 1,3,-1
 297 1530 l 1,4,-1
 680 529 l 1,5,-1
 1089 1530 l 1,6,-1
 1099 1530 l 1,7,-1
 1357 1409 l 1,8,-1
 824 106 l 1,9,-1
 558 -20 l 1,0,-1
EndSplineSet
Validated: 1
EndChar

StartChar: W
Encoding: 87 87 57
Width: 2220
GlyphClass: 2
Flags: W
HStem: -20 300<514.654 896.921 1322.43 1705.19> 1510 20G<407.823 460 1217.82 1270 2027.82 2080>
VStem: 140 320<330.27 1383> 950 320<329.938 1383> 1760 320<330.27 1383>
CounterMasks: 1 38
LayerCount: 2
Fore
SplineSet
706 -20 m 128,-1,1
 476 -20 476 -20 308 82 c 128,-1,2
 140 184 140 184 140 411 c 2,3,-1
 140 1383 l 1,4,-1
 450 1530 l 1,5,-1
 460 1530 l 1,6,-1
 460 445 l 2,7,8
 460 353 460 353 518 321 c 0,9,10
 593 280 593 280 705 280 c 128,-1,11
 817 280 817 280 892 321 c 0,12,13
 950 353 950 353 950 445 c 2,14,-1
 950 1383 l 1,15,-1
 1260 1530 l 1,16,-1
 1270 1530 l 1,17,-1
 1270 445 l 2,18,19
 1270 353 1270 353 1328 321 c 0,20,21
 1403 280 1403 280 1515 280 c 128,-1,22
 1627 280 1627 280 1702 321 c 0,23,24
 1760 353 1760 353 1760 445 c 2,25,-1
 1760 1383 l 1,26,-1
 2070 1530 l 1,27,-1
 2080 1530 l 1,28,-1
 2080 411 l 2,29,30
 2080 184 2080 184 1912 82 c 128,-1,31
 1744 -20 1744 -20 1513 -20 c 128,-1,32
 1282 -20 1282 -20 1110 87 c 1,33,0
 936 -20 936 -20 706 -20 c 128,-1,1
EndSplineSet
Validated: 1
EndChar

StartChar: X
Encoding: 88 88 58
Width: 1254
GlyphClass: 2
Flags: W
HStem: -20 21G<216.797 282.643 954.55 1020.22> 1510 20G<233.778 299.45 971.357 1036.85>
DStem2: 286 1530 10 1404 0.558191 -0.829712<0 621.824 1044.92 1666.74> 10 98 269 -20 0.562799 0.826594<48.227 672.855 1107.78 1732.41>
LayerCount: 2
Fore
SplineSet
269 -20 m 1,0,-1
 259 -20 l 1,1,-1
 10 98 l 1,2,-1
 452 747 l 1,3,-1
 10 1404 l 1,4,-1
 276 1530 l 1,5,-1
 286 1530 l 1,6,-1
 633 1014 l 1,7,-1
 985 1530 l 1,8,-1
 995 1530 l 1,9,-1
 1244 1411 l 1,10,-1
 802 763 l 1,11,-1
 1244 106 l 1,12,-1
 978 -20 l 1,13,-1
 968 -20 l 1,14,-1
 621 496 l 1,15,-1
 269 -20 l 1,0,-1
EndSplineSet
Validated: 1
EndChar

StartChar: Y
Encoding: 89 89 59
Width: 1270
GlyphClass: 2
Flags: W
HStem: -20 21G<475 527.177> 1510 20G<347.823 400 1137.82 1190>
VStem: 80 320<733.27 1383> 475 320<127 407.402> 870 320<733.27 1383>
CounterMasks: 1 38
LayerCount: 2
Fore
SplineSet
485 -20 m 1,0,-1
 475 -20 l 1,1,-1
 475 398 l 1,2,3
 352 422 352 422 248 485 c 0,4,5
 80 587 80 587 80 814 c 2,6,-1
 80 1383 l 1,7,-1
 390 1530 l 1,8,-1
 400 1530 l 1,9,-1
 400 848 l 2,10,11
 400 756 400 756 458 724 c 0,12,13
 533 683 533 683 635 683 c 128,-1,14
 737 683 737 683 812 724 c 0,15,16
 870 756 870 756 870 848 c 2,17,-1
 870 1383 l 1,18,-1
 1180 1530 l 1,19,-1
 1190 1530 l 1,20,-1
 1190 814 l 2,21,22
 1190 587 1190 587 1022 485 c 0,23,24
 918 422 918 422 795 398 c 1,25,-1
 795 127 l 1,26,-1
 485 -20 l 1,0,-1
EndSplineSet
Validated: 1
EndChar

StartChar: Z
Encoding: 90 90 60
Width: 1138
GlyphClass: 2
Flags: W
HStem: 0 300<501 992> 1210 300<177 637>
DStem2: 10 10 501 300 0.463096 0.886308<484.409 1353.93>
LayerCount: 2
Fore
SplineSet
10 0 m 1,0,-1
 10 10 l 1,1,-1
 637 1210 l 1,2,-1
 41 1210 l 1,3,-1
 41 1220 l 1,4,-1
 177 1510 l 1,5,-1
 1128 1510 l 1,6,-1
 1128 1500 l 1,7,-1
 501 300 l 5,8,-1
 1128 300 l 1,9,-1
 1128 290 l 1,10,-1
 992 0 l 1,11,-1
 10 0 l 1,0,-1
EndSplineSet
Validated: 1
EndChar

StartChar: bracketleft
Encoding: 91 91 61
Width: 920
GlyphClass: 2
Flags: W
HStem: -240 300<480 774> 1450 300<480 774>
VStem: 160 320<60 1450>
LayerCount: 2
Fore
SplineSet
160 -240 m 1,0,-1
 160 1624 l 1,1,-1
 428 1750 l 1,2,-1
 910 1750 l 1,3,-1
 910 1740 l 1,4,-1
 774 1450 l 1,5,-1
 480 1450 l 1,6,-1
 480 60 l 1,7,-1
 910 60 l 1,8,-1
 910 50 l 1,9,-1
 774 -240 l 1,10,-1
 160 -240 l 1,0,-1
EndSplineSet
Validated: 1
EndChar

StartChar: backslash
Encoding: 92 92 62
Width: 1105
GlyphClass: 2
Flags: W
DStem2: 256 1710 10 1597 0.423051 -0.906106<0 1981.11>
LayerCount: 2
Fore
SplineSet
858 -200 m 1,0,-1
 848 -200 l 1,1,-1
 10 1597 l 1,2,-1
 246 1710 l 1,3,-1
 256 1710 l 1,4,-1
 1095 -87 l 1,5,-1
 858 -200 l 1,0,-1
EndSplineSet
Validated: 1
EndChar

StartChar: bracketright
Encoding: 93 93 63
Width: 920
GlyphClass: 2
Flags: W
HStem: -240 300<146 440> 1450 300<146 440>
VStem: 440 320<60 1450>
LayerCount: 2
Fore
SplineSet
492 -240 m 1,0,-1
 10 -240 l 1,1,-1
 10 -230 l 1,2,-1
 146 60 l 1,3,-1
 440 60 l 1,4,-1
 440 1450 l 1,5,-1
 10 1450 l 1,6,-1
 10 1460 l 1,7,-1
 146 1750 l 1,8,-1
 760 1750 l 1,9,-1
 760 -114 l 1,10,-1
 492 -240 l 1,0,-1
EndSplineSet
Validated: 1
EndChar

StartChar: asciicircum
Encoding: 94 94 64
Width: 1010
GlyphClass: 2
Flags: W
HStem: 1039 531
LayerCount: 2
Fore
SplineSet
304 1039 m 1,0,-1
 294 1039 l 1,1,-1
 30 1165 l 1,2,-1
 304 1442 l 1,3,-1
 573 1570 l 1,4,-1
 583 1570 l 1,5,-1
 980 1166 l 1,6,-1
 713 1039 l 1,7,-1
 703 1039 l 1,8,-1
 500 1246 l 1,9,-1
 304 1039 l 1,0,-1
EndSplineSet
Validated: 1
EndChar

StartChar: underscore
Encoding: 95 95 65
Width: 1404
GlyphClass: 2
Flags: W
HStem: -410 200<201 1203>
LayerCount: 2
Fore
SplineSet
110 -410 m 1,0,-1
 110 -400 l 1,1,-1
 201 -210 l 1,2,-1
 1294 -210 l 1,3,-1
 1294 -220 l 1,4,-1
 1203 -410 l 1,5,-1
 110 -410 l 1,0,-1
EndSplineSet
Validated: 1
EndChar

StartChar: grave
Encoding: 96 96 66
Width: 405
GlyphClass: 2
Flags: W
HStem: 1160 410
VStem: 30 345
DStem2: 220 1570 30 1485 0.429396 -0.903116<0 356.108>
LayerCount: 2
Fore
SplineSet
210 1570 m 1,0,-1
 220 1570 l 1,1,-1
 375 1244 l 1,2,-1
 197 1160 l 1,3,-1
 187 1160 l 1,4,-1
 30 1485 l 1,5,-1
 210 1570 l 1,0,-1
EndSplineSet
Validated: 1
EndChar

StartChar: a
Encoding: 97 97 67
Width: 1100
GlyphClass: 2
Flags: W
HStem: -20 220<374.226 630.513> 485 229<374.935 631.141> 820 280<329 625.695>
VStem: 40 300<233.76 451.178> 665 295<233.822 451.24 682 780.344>
LayerCount: 2
Fore
SplineSet
670 -20 m 1,0,-1
 660 -20 l 1,1,-1
 660 16 l 1,2,3
 598 -20 598 -20 500 -20 c 0,4,5
 320 -20 320 -20 188 61 c 24,6,7
 40 151 40 151 40 328 c 2,8,-1
 40 366 l 2,9,10
 40 545 40 545 182.5 629.5 c 128,-1,11
 325 714 325 714 500 714 c 0,12,13
 598 714 598 714 659 682 c 1,14,15
 659 820 659 820 485 820 c 2,16,-1
 200 820 l 1,17,-1
 200 830 l 1,18,-1
 329 1100 l 1,19,-1
 485 1100 l 2,20,21
 678 1100 678 1100 812 1017 c 24,22,23
 960 926 960 926 960 741 c 2,24,-1
 960 118 l 1,25,-1
 670 -20 l 1,0,-1
503 200 m 0,26,27
 574 200 574 200 625 233 c 0,28,29
 665 259 665 259 665 322 c 2,30,-1
 665 363 l 2,31,32
 665 428 665 428 625 452 c 0,33,34
 569 485 569 485 502 485 c 0,35,36
 432 485 432 485 380 452 c 0,37,38
 340 426 340 426 340 363 c 2,39,-1
 340 322 l 2,40,41
 340 257 340 257 380 233 c 0,42,43
 436 200 436 200 503 200 c 0,26,27
EndSplineSet
Validated: 1
EndChar

StartChar: b
Encoding: 98 98 68
Width: 1210
GlyphClass: 2
Flags: W
HStem: -20 280<475.316 754.684> 840 280<474.772 754.684> 1510 20G<387.971 440>
VStem: 140 300<293.822 806.178 1089 1392> 790 300<295.047 804.953>
LayerCount: 2
Fore
SplineSet
615 260 m 128,-1,1
 699 260 699 260 750 293 c 0,2,3
 790 319 790 319 790 382 c 2,4,-1
 790 718 l 2,5,6
 790 781 790 781 750 807 c 0,7,8
 699 840 699 840 615 840 c 128,-1,9
 531 840 531 840 480 807 c 0,10,11
 440 781 440 781 440 718 c 2,12,-1
 440 382 l 2,13,14
 440 319 440 319 480 293 c 0,15,0
 531 260 531 260 615 260 c 128,-1,1
615 -20 m 128,-1,17
 426 -20 426 -20 283 67 c 0,18,19
 140 155 140 155 140 340 c 2,20,-1
 140 1392 l 1,21,-1
 430 1530 l 1,22,-1
 440 1530 l 1,23,-1
 440 1089 l 1,24,25
 520 1120 520 1120 615 1120 c 0,26,27
 804 1120 804 1120 947 1033 c 128,-1,28
 1090 946 1090 946 1090 760 c 2,29,-1
 1090 340 l 2,30,31
 1090 154 1090 154 947 67 c 128,-1,16
 804 -20 804 -20 615 -20 c 128,-1,17
EndSplineSet
Validated: 1
EndChar

StartChar: c
Encoding: 99 99 69
Width: 1080
GlyphClass: 2
Flags: W
HStem: -20 280<455.195 712.693> 840 280<455.195 704.805>
VStem: 120 300<295.047 804.953>
LayerCount: 2
Fore
SplineSet
580 -20 m 128,-1,1
 406 -20 406 -20 263 67 c 128,-1,2
 120 154 120 154 120 340 c 2,3,-1
 120 760 l 2,4,5
 120 946 120 946 263 1033 c 128,-1,6
 406 1120 406 1120 580 1120 c 128,-1,7
 754 1120 754 1120 897 1033 c 0,8,9
 1027 954 1027 954 1039 791 c 1,10,-1
 750 653 l 1,11,-1
 740 653 l 1,12,-1
 740 718 l 2,13,14
 740 781 740 781 700 807 c 0,15,16
 649 840 649 840 580 840 c 128,-1,17
 511 840 511 840 460 807 c 0,18,19
 420 781 420 781 420 718 c 2,20,-1
 420 382 l 2,21,22
 420 319 420 319 460 293 c 0,23,24
 511 260 511 260 580 260 c 128,-1,25
 649 260 649 260 700 293 c 0,26,27
 717 304 717 304 726 321 c 1,28,-1
 1030 465 l 1,29,-1
 1040 465 l 1,30,-1
 1040 340 l 2,31,32
 1040 154 1040 154 897 67 c 128,-1,0
 754 -20 754 -20 580 -20 c 128,-1,1
EndSplineSet
Validated: 1
EndChar

StartChar: d
Encoding: 100 100 70
Width: 1210
GlyphClass: 2
Flags: W
HStem: -20 280<455.316 734.684> 840 280<455.316 735.228> 1510 20G<1017.97 1070>
VStem: 120 300<295.047 804.953> 770 300<295.047 806.178 1089 1392>
LayerCount: 2
Fore
SplineSet
595 260 m 128,-1,1
 679 260 679 260 730 293 c 0,2,3
 770 319 770 319 770 382 c 2,4,-1
 770 718 l 2,5,6
 770 781 770 781 730 807 c 0,7,8
 679 840 679 840 595 840 c 128,-1,9
 511 840 511 840 460 807 c 0,10,11
 420 781 420 781 420 718 c 2,12,-1
 420 382 l 2,13,14
 420 319 420 319 460 293 c 0,15,0
 511 260 511 260 595 260 c 128,-1,1
595 -20 m 128,-1,17
 406 -20 406 -20 263 67 c 128,-1,18
 120 154 120 154 120 340 c 2,19,-1
 120 760 l 2,20,21
 120 946 120 946 263 1033 c 128,-1,22
 406 1120 406 1120 595 1120 c 0,23,24
 690 1120 690 1120 770 1089 c 1,25,-1
 770 1392 l 1,26,-1
 1060 1530 l 1,27,-1
 1070 1530 l 1,28,-1
 1070 340 l 2,29,30
 1070 154 1070 154 927 67 c 128,-1,16
 784 -20 784 -20 595 -20 c 128,-1,17
EndSplineSet
Validated: 1
EndChar

StartChar: e
Encoding: 101 101 71
Width: 1170
GlyphClass: 2
Flags: W
HStem: -20 280<456.109 724.338> 840 280<453.552 716.448>
VStem: 120 300<568 804.953>
DStem2: 420 568 425 346 0.904326 0.426842<0 377.048>
LayerCount: 2
Fore
SplineSet
585 -20 m 128,-1,1
 406 -20 406 -20 263 67 c 128,-1,2
 120 154 120 154 120 340 c 2,3,-1
 120 760 l 2,4,5
 120 946 120 946 263 1033 c 128,-1,6
 406 1120 406 1120 585 1120 c 128,-1,7
 764 1120 764 1120 907 1033 c 128,-1,8
 1050 946 1050 946 1050 760 c 2,9,-1
 1050 641 l 1,10,-1
 425 346 l 1,11,12
 434 310 434 310 460 293 c 0,13,14
 510 260 510 260 585 260 c 0,15,16
 659 260 659 260 710 293 c 0,17,18
 727 304 727 304 736 321 c 1,19,-1
 1040 465 l 1,20,-1
 1050 465 l 1,21,-1
 1050 340 l 2,22,23
 1050 154 1050 154 907 67 c 128,-1,0
 764 -20 764 -20 585 -20 c 128,-1,1
420 568 m 1,24,-1
 750 725 l 1,25,26
 750 781 750 781 710 807 c 0,27,28
 659 840 659 840 585 840 c 128,-1,29
 511 840 511 840 460 807 c 0,30,31
 420 781 420 781 420 718 c 2,32,-1
 420 568 l 1,24,-1
EndSplineSet
Validated: 1
EndChar

StartChar: f
Encoding: 102 102 72
Width: 860
GlyphClass: 2
Flags: W
HStem: -20 21G<140 192.029> 662 280<440 682> 1230 280<481.604 721>
VStem: 140 300<118 662 942 1194.95>
LayerCount: 2
Fore
SplineSet
150 -20 m 1,0,-1
 140 -20 l 1,1,-1
 140 1150 l 2,2,3
 140 1336 140 1336 283 1423 c 128,-1,4
 426 1510 426 1510 615 1510 c 2,5,-1
 850 1510 l 1,6,-1
 850 1500 l 1,7,-1
 721 1230 l 1,8,-1
 626 1230 l 2,9,10
 531 1230 531 1230 480 1197 c 0,11,12
 440 1171 440 1171 440 1108 c 2,13,-1
 440 942 l 1,14,-1
 811 942 l 1,15,-1
 811 932 l 1,16,-1
 682 662 l 1,17,-1
 440 662 l 1,18,-1
 440 118 l 1,19,-1
 150 -20 l 1,0,-1
EndSplineSet
Validated: 1
EndChar

StartChar: g
Encoding: 103 103 73
Width: 1210
GlyphClass: 2
Flags: W
HStem: -410 250<375 728.396> -20 280<455.316 735.797> 840 280<455.316 734.684>
VStem: 120 300<295.047 804.953> 770 300<-126.178 11 293.822 804.953>
LayerCount: 2
Fore
SplineSet
595 260 m 128,-1,1
 679 260 679 260 730 293 c 0,2,3
 770 319 770 319 770 382 c 2,4,-1
 770 718 l 2,5,6
 770 781 770 781 730 807 c 0,7,8
 679 840 679 840 595 840 c 128,-1,9
 511 840 511 840 460 807 c 0,10,11
 420 781 420 781 420 718 c 2,12,-1
 420 382 l 2,13,14
 420 319 420 319 460 293 c 0,15,0
 511 260 511 260 595 260 c 128,-1,1
260 -410 m 1,16,-1
 260 -400 l 1,17,-1
 375 -160 l 1,18,-1
 584 -160 l 2,19,20
 679 -160 679 -160 730 -127 c 0,21,22
 770 -101 770 -101 770 -38 c 2,23,-1
 770 11 l 1,24,25
 694 -20 694 -20 595 -20 c 0,26,27
 406 -20 406 -20 263 67 c 128,-1,28
 120 154 120 154 120 340 c 2,29,-1
 120 760 l 2,30,31
 120 946 120 946 263 1033 c 128,-1,32
 406 1120 406 1120 595 1120 c 128,-1,33
 784 1120 784 1120 927 1033 c 128,-1,34
 1070 946 1070 946 1070 760 c 2,35,-1
 1070 -50 l 2,36,37
 1070 -236 1070 -236 927 -323 c 128,-1,38
 784 -410 784 -410 595 -410 c 2,39,-1
 260 -410 l 1,16,-1
EndSplineSet
Validated: 1
EndChar

StartChar: h
Encoding: 104 104 74
Width: 1250
GlyphClass: 2
Flags: W
HStem: -20 21G<160 212.029 810 862.029> 840 280<494.539 774.684> 1510 20G<407.971 460>
VStem: 160 300<118 806.178 1089 1392> 810 300<118 804.953>
LayerCount: 2
Fore
SplineSet
170 -20 m 1,0,-1
 160 -20 l 1,1,-1
 160 1392 l 1,2,-1
 450 1530 l 1,3,-1
 460 1530 l 1,4,-1
 460 1089 l 1,5,6
 548 1120 548 1120 635 1120 c 0,7,8
 824 1120 824 1120 967 1033 c 128,-1,9
 1110 946 1110 946 1110 760 c 2,10,-1
 1110 118 l 1,11,-1
 820 -20 l 1,12,-1
 810 -20 l 1,13,-1
 810 718 l 2,14,15
 810 781 810 781 770 807 c 0,16,17
 719 840 719 840 635 840 c 128,-1,18
 551 840 551 840 500 807 c 0,19,20
 460 781 460 781 460 718 c 2,21,-1
 460 118 l 1,22,-1
 170 -20 l 1,0,-1
EndSplineSet
Validated: 1
EndChar

StartChar: i
Encoding: 105 105 75
Width: 620
GlyphClass: 2
Flags: W
HStem: -20 21G<160 212.029> 1100 20G<407.971 460> 1180 364<192.131 426.338>
VStem: 130 360<1244.3 1481.73> 160 300<118 982>
LayerCount: 2
Fore
SplineSet
170 -20 m 1,0,-1
 160 -20 l 1,1,-1
 160 982 l 1,2,-1
 450 1120 l 1,3,-1
 460 1120 l 1,4,-1
 460 118 l 1,5,-1
 170 -20 l 1,0,-1
310 1544 m 0,6,7
 386 1544 386 1544 438 1491 c 128,-1,8
 490 1438 490 1438 490 1363 c 0,9,10
 490 1289 490 1289 437 1234 c 0,11,12
 385 1180 385 1180 310 1180 c 0,13,14
 233 1180 233 1180 181.5 1234 c 128,-1,15
 130 1288 130 1288 130 1362 c 0,16,17
 130 1438 130 1438 182 1490 c 0,18,19
 235 1544 235 1544 310 1544 c 0,6,7
EndSplineSet
Validated: 1
EndChar

StartChar: j
Encoding: 106 106 76
Width: 620
GlyphClass: 2
Flags: W
HStem: -410 21G<-75 79.5> 1100 20G<407.971 460> 1180 364<192.131 426.338>
VStem: 130 360<1244.3 1481.73> 160 300<-126.178 982>
LayerCount: 2
Fore
SplineSet
310 1544 m 0,0,1
 386 1544 386 1544 438 1491 c 128,-1,2
 490 1438 490 1438 490 1363 c 0,3,4
 490 1289 490 1289 437 1234 c 0,5,6
 385 1180 385 1180 310 1180 c 0,7,8
 233 1180 233 1180 181.5 1234 c 128,-1,9
 130 1288 130 1288 130 1362 c 0,10,11
 130 1438 130 1438 182 1490 c 0,12,13
 235 1544 235 1544 310 1544 c 0,0,1
-75 -410 m 1,14,-1
 -75 -400 l 1,15,-1
 42 -155 l 1,16,17
 89 -147 89 -147 120 -127 c 0,18,19
 160 -101 160 -101 160 -38 c 2,20,-1
 160 982 l 1,21,-1
 450 1120 l 1,22,-1
 460 1120 l 1,23,-1
 460 -50 l 2,24,25
 460 -236 460 -236 317 -323 c 128,-1,26
 174 -410 174 -410 -15 -410 c 2,27,-1
 -75 -410 l 1,14,-1
EndSplineSet
Validated: 1
EndChar

StartChar: k
Encoding: 107 107 77
Width: 1210
GlyphClass: 2
Flags: W
HStem: -20 21G<160 212.029 790 842.029> 1100 20G<790.4 866.034> 1510 20G<407.971 460>
VStem: 160 300<118 525.178 820 1392> 790 300<118 524.172>
LayerCount: 2
Fore
SplineSet
170 -20 m 1,0,-1
 160 -20 l 1,1,-1
 160 1392 l 1,2,-1
 450 1530 l 1,3,-1
 460 1530 l 1,4,-1
 460 820 l 1,5,-1
 814 1120 l 1,6,-1
 824 1120 l 1,7,-1
 1072 1002 l 1,8,-1
 829 804 l 1,9,10
 894 784 894 784 947 752 c 0,11,12
 1090 666 1090 666 1090 479 c 2,13,-1
 1090 118 l 1,14,-1
 800 -20 l 1,15,-1
 790 -20 l 1,16,-1
 790 437 l 2,17,18
 790 500 790 500 750 526 c 0,19,20
 699 559 699 559 625 559 c 128,-1,21
 551 559 551 559 500 526 c 0,22,23
 460 500 460 500 460 437 c 2,24,-1
 460 118 l 1,25,-1
 170 -20 l 1,0,-1
EndSplineSet
Validated: 1
EndChar

StartChar: l
Encoding: 108 108 78
Width: 620
GlyphClass: 2
Flags: W
HStem: -20 21G<160 212.029> 1510 20G<407.971 460>
VStem: 160 300<118 1392>
LayerCount: 2
Fore
SplineSet
170 -20 m 1,0,-1
 160 -20 l 1,1,-1
 160 1392 l 1,2,-1
 450 1530 l 1,3,-1
 460 1530 l 1,4,-1
 460 118 l 1,5,-1
 170 -20 l 1,0,-1
EndSplineSet
Validated: 1
EndChar

StartChar: m
Encoding: 109 109 79
Width: 1880
GlyphClass: 2
Flags: W
HStem: -20 21G<140 192.029 790 842.029 1440 1492.03> 840 280<475.316 755.498 1124.5 1404.68>
VStem: 140 300<118 804.953> 790 300<118 806.178> 1440 300<118 804.953>
CounterMasks: 1 38
LayerCount: 2
Fore
SplineSet
150 -20 m 1,0,-1
 140 -20 l 1,1,-1
 140 760 l 2,2,3
 140 946 140 946 283 1033 c 128,-1,4
 426 1120 426 1120 615 1120 c 0,5,6
 799 1120 799 1120 940 1037 c 1,7,8
 1081 1120 1081 1120 1265 1120 c 0,9,10
 1454 1120 1454 1120 1597 1033 c 128,-1,11
 1740 946 1740 946 1740 760 c 2,12,-1
 1740 118 l 1,13,-1
 1450 -20 l 1,14,-1
 1440 -20 l 1,15,-1
 1440 718 l 2,16,17
 1440 781 1440 781 1400 807 c 0,18,19
 1349 840 1349 840 1265 840 c 128,-1,20
 1181 840 1181 840 1130 807 c 0,21,22
 1090 781 1090 781 1090 718 c 2,23,-1
 1090 118 l 1,24,-1
 800 -20 l 1,25,-1
 790 -20 l 1,26,-1
 790 718 l 2,27,28
 790 781 790 781 750 807 c 0,29,30
 699 840 699 840 615 840 c 128,-1,31
 531 840 531 840 480 807 c 0,32,33
 440 781 440 781 440 718 c 2,34,-1
 440 118 l 1,35,-1
 150 -20 l 1,0,-1
EndSplineSet
Validated: 1
EndChar

StartChar: n
Encoding: 110 110 80
Width: 1230
GlyphClass: 2
Flags: W
HStem: -20 21G<140 192.029 790 842.029> 840 280<475.316 754.684>
VStem: 140 300<118 804.953> 790 300<118 804.953>
LayerCount: 2
Fore
SplineSet
150 -20 m 1,0,-1
 140 -20 l 1,1,-1
 140 760 l 2,2,3
 140 946 140 946 283 1033 c 128,-1,4
 426 1120 426 1120 615 1120 c 128,-1,5
 804 1120 804 1120 947 1033 c 128,-1,6
 1090 946 1090 946 1090 760 c 2,7,-1
 1090 118 l 1,8,-1
 800 -20 l 1,9,-1
 790 -20 l 1,10,-1
 790 718 l 2,11,12
 790 781 790 781 750 807 c 0,13,14
 699 840 699 840 615 840 c 128,-1,15
 531 840 531 840 480 807 c 0,16,17
 440 781 440 781 440 718 c 2,18,-1
 440 118 l 1,19,-1
 150 -20 l 1,0,-1
EndSplineSet
Validated: 1
EndChar

StartChar: o
Encoding: 111 111 81
Width: 1190
GlyphClass: 2
Flags: W
HStem: -20 280<455.316 734.684> 840 280<455.316 734.684>
VStem: 120 300<295.047 804.953> 770 300<295.047 804.953>
LayerCount: 2
Fore
SplineSet
595 -20 m 128,-1,1
 406 -20 406 -20 263 67 c 128,-1,2
 120 154 120 154 120 340 c 2,3,-1
 120 760 l 2,4,5
 120 946 120 946 263 1033 c 128,-1,6
 406 1120 406 1120 595 1120 c 128,-1,7
 784 1120 784 1120 927 1033 c 128,-1,8
 1070 946 1070 946 1070 760 c 2,9,-1
 1070 340 l 2,10,11
 1070 154 1070 154 927 67 c 128,-1,0
 784 -20 784 -20 595 -20 c 128,-1,1
595 260 m 128,-1,13
 679 260 679 260 730 293 c 0,14,15
 770 319 770 319 770 382 c 2,16,-1
 770 718 l 2,17,18
 770 781 770 781 730 807 c 0,19,20
 679 840 679 840 595 840 c 128,-1,21
 511 840 511 840 460 807 c 0,22,23
 420 781 420 781 420 718 c 2,24,-1
 420 382 l 2,25,26
 420 319 420 319 460 293 c 0,27,12
 511 260 511 260 595 260 c 128,-1,13
EndSplineSet
Validated: 1
EndChar

StartChar: p
Encoding: 112 112 82
Width: 1210
GlyphClass: 2
Flags: W
HStem: -430 21G<140 192.029> -20 280<474.772 754.684> 840 280<475.316 754.684>
VStem: 140 300<-292 11 293.822 804.953> 790 300<295.047 804.953>
LayerCount: 2
Fore
SplineSet
615 840 m 128,-1,1
 531 840 531 840 480 807 c 0,2,3
 440 781 440 781 440 718 c 2,4,-1
 440 382 l 2,5,6
 440 319 440 319 480 293 c 0,7,8
 531 260 531 260 615 260 c 128,-1,9
 699 260 699 260 750 293 c 0,10,11
 790 319 790 319 790 382 c 2,12,-1
 790 718 l 2,13,14
 790 781 790 781 750 807 c 0,15,0
 699 840 699 840 615 840 c 128,-1,1
615 -20 m 0,16,17
 520 -20 520 -20 440 11 c 1,18,-1
 440 -292 l 1,19,-1
 150 -430 l 1,20,-1
 140 -430 l 1,21,-1
 140 760 l 2,22,23
 140 946 140 946 283 1033 c 128,-1,24
 426 1120 426 1120 615 1120 c 128,-1,25
 804 1120 804 1120 947 1033 c 128,-1,26
 1090 946 1090 946 1090 760 c 2,27,-1
 1090 340 l 2,28,29
 1090 154 1090 154 947 67 c 128,-1,30
 804 -20 804 -20 615 -20 c 0,16,17
EndSplineSet
Validated: 1
EndChar

StartChar: q
Encoding: 113 113 83
Width: 1210
GlyphClass: 2
Flags: W
HStem: -430 21G<770 822.029> -20 280<455.316 735.228> 840 280<455.316 734.684>
VStem: 120 300<295.047 804.953> 770 300<-292 11 293.822 806.178>
LayerCount: 2
Fore
SplineSet
595 840 m 128,-1,1
 511 840 511 840 460 807 c 0,2,3
 420 781 420 781 420 718 c 2,4,-1
 420 382 l 2,5,6
 420 319 420 319 460 293 c 0,7,8
 511 260 511 260 595 260 c 128,-1,9
 679 260 679 260 730 293 c 0,10,11
 770 319 770 319 770 382 c 2,12,-1
 770 718 l 2,13,14
 770 781 770 781 730 807 c 0,15,0
 679 840 679 840 595 840 c 128,-1,1
595 -20 m 0,16,17
 406 -20 406 -20 263 67 c 128,-1,18
 120 154 120 154 120 340 c 2,19,-1
 120 760 l 2,20,21
 120 946 120 946 263 1033 c 128,-1,22
 406 1120 406 1120 595 1120 c 128,-1,23
 784 1120 784 1120 927 1033 c 0,24,25
 1070 945 1070 945 1070 760 c 2,26,-1
 1070 -292 l 1,27,-1
 780 -430 l 1,28,-1
 770 -430 l 1,29,-1
 770 11 l 1,30,31
 690 -20 690 -20 595 -20 c 0,16,17
EndSplineSet
Validated: 1
EndChar

StartChar: r
Encoding: 114 114 84
Width: 860
GlyphClass: 2
Flags: W
HStem: -20 21G<140 192.029> 820 280<481.604 721>
VStem: 140 300<118 784.953>
LayerCount: 2
Fore
SplineSet
150 -20 m 1,0,-1
 140 -20 l 1,1,-1
 140 740 l 2,2,3
 140 926 140 926 283 1013 c 128,-1,4
 426 1100 426 1100 615 1100 c 2,5,-1
 850 1100 l 1,6,-1
 850 1090 l 1,7,-1
 721 820 l 1,8,-1
 626 820 l 2,9,10
 531 820 531 820 480 787 c 0,11,12
 440 761 440 761 440 698 c 2,13,-1
 440 118 l 1,14,-1
 150 -20 l 1,0,-1
EndSplineSet
Validated: 1
EndChar

StartChar: t
Encoding: 116 116 85
Width: 890
GlyphClass: 2
Flags: W
HStem: -20 21G<300 352.105> 820 280<139 300 590 751> 1510 20G<537.895 590>
VStem: 300 290<113 820 1100 1397>
LayerCount: 2
Fore
SplineSet
310 -20 m 1,0,-1
 300 -20 l 1,1,-1
 300 820 l 1,2,-1
 10 820 l 1,3,-1
 10 830 l 1,4,-1
 139 1100 l 1,5,-1
 300 1100 l 1,6,-1
 300 1397 l 1,7,-1
 580 1530 l 1,8,-1
 590 1530 l 1,9,-1
 590 1100 l 1,10,-1
 880 1100 l 1,11,-1
 880 1090 l 1,12,-1
 751 820 l 1,13,-1
 590 820 l 1,14,-1
 590 113 l 1,15,-1
 310 -20 l 1,0,-1
EndSplineSet
Validated: 1
EndChar

StartChar: u
Encoding: 117 117 86
Width: 1230
GlyphClass: 2
Flags: W
HStem: -20 280<475.316 754.684> 1100 20G<387.971 440 1037.97 1090>
VStem: 140 300<295.047 982> 790 300<295.047 982>
LayerCount: 2
Fore
SplineSet
615 -20 m 128,-1,1
 426 -20 426 -20 283 67 c 128,-1,2
 140 154 140 154 140 340 c 2,3,-1
 140 982 l 1,4,-1
 430 1120 l 1,5,-1
 440 1120 l 1,6,-1
 440 382 l 2,7,8
 440 319 440 319 480 293 c 0,9,10
 531 260 531 260 615 260 c 128,-1,11
 699 260 699 260 750 293 c 0,12,13
 790 319 790 319 790 382 c 2,14,-1
 790 982 l 1,15,-1
 1080 1120 l 1,16,-1
 1090 1120 l 1,17,-1
 1090 340 l 2,18,19
 1090 154 1090 154 947 67 c 128,-1,0
 804 -20 804 -20 615 -20 c 128,-1,1
EndSplineSet
Validated: 1
EndChar

StartChar: v
Encoding: 118 118 87
Width: 1082
GlyphClass: 2
Flags: W
HStem: -20 21G<404.961 465.031> 1100 20G<225.08 284.661 812.754 872.695>
DStem2: 277 1120 5 995 0.372966 -0.927845<14.5338 732.363> 539 436 692 108 0.395531 0.918453<0 732.64>
LayerCount: 2
Fore
SplineSet
423 -20 m 1,0,-1
 413 -20 l 1,1,-1
 5 995 l 1,2,-1
 267 1120 l 1,3,-1
 277 1120 l 1,4,-1
 539 436 l 1,5,-1
 821 1120 l 1,6,-1
 831 1120 l 1,7,-1
 1077 1002 l 1,8,-1
 692 108 l 1,9,-1
 423 -20 l 1,0,-1
EndSplineSet
Validated: 1
EndChar

StartChar: w
Encoding: 119 119 88
Width: 1880
GlyphClass: 2
Flags: W
HStem: -20 280<475.316 755.498 1124.5 1404.68> 1100 20G<387.971 440 1037.97 1090 1687.97 1740>
VStem: 140 300<295.047 982> 790 300<293.822 982> 1440 300<295.047 982>
CounterMasks: 1 38
LayerCount: 2
Fore
SplineSet
615 -20 m 0,0,1
 426 -20 426 -20 283 67 c 128,-1,2
 140 154 140 154 140 340 c 2,3,-1
 140 982 l 1,4,-1
 430 1120 l 1,5,-1
 440 1120 l 1,6,-1
 440 382 l 2,7,8
 440 319 440 319 480 293 c 0,9,10
 531 260 531 260 615 260 c 128,-1,11
 699 260 699 260 750 293 c 0,12,13
 790 319 790 319 790 382 c 2,14,-1
 790 982 l 1,15,-1
 1080 1120 l 1,16,-1
 1090 1120 l 1,17,-1
 1090 382 l 2,18,19
 1090 319 1090 319 1130 293 c 0,20,21
 1181 260 1181 260 1265 260 c 128,-1,22
 1349 260 1349 260 1400 293 c 0,23,24
 1440 319 1440 319 1440 382 c 2,25,-1
 1440 982 l 1,26,-1
 1730 1120 l 1,27,-1
 1740 1120 l 1,28,-1
 1740 340 l 2,29,30
 1740 154 1740 154 1597 67 c 128,-1,31
 1454 -20 1454 -20 1265 -20 c 0,32,33
 1081 -20 1081 -20 940 63 c 1,34,35
 799 -20 799 -20 615 -20 c 0,0,1
EndSplineSet
Validated: 1
EndChar

StartChar: x
Encoding: 120 120 89
Width: 984
GlyphClass: 2
Flags: W
HStem: -20 21G<198.615 265.03 704.149 770.414> 1100 20G<213.949 279.81 719.952 785.818>
DStem2: 266 1120 10 1003 0.568709 -0.822539<0 408.314 787.26 1194.75> 10 89 251 -20 0.574687 0.818373<49.2969 458.503 849.217 1259.82>
LayerCount: 2
Fore
SplineSet
251 -20 m 1,0,-1
 241 -20 l 1,1,-1
 10 89 l 1,2,-1
 329 543 l 1,3,-1
 10 1003 l 1,4,-1
 256 1120 l 1,5,-1
 266 1120 l 1,6,-1
 498 784 l 1,7,-1
 734 1120 l 1,8,-1
 744 1120 l 1,9,-1
 974 1010 l 1,10,-1
 656 556 l 1,11,-1
 974 96 l 1,12,-1
 728 -20 l 1,13,-1
 718 -20 l 1,14,-1
 486 315 l 1,15,-1
 251 -20 l 1,0,-1
EndSplineSet
Validated: 1
EndChar

StartChar: y
Encoding: 121 121 90
Width: 1250
GlyphClass: 2
Flags: W
HStem: -410 250<395 748.396> -20 280<475.316 755.512> 1100 20G<387.971 440 1037.97 1090>
VStem: 140 300<295.047 982> 790 300<-126.178 11 293.822 982>
LayerCount: 2
Fore
SplineSet
280 -410 m 1,0,-1
 280 -400 l 1,1,-1
 395 -160 l 1,2,-1
 604 -160 l 2,3,4
 699 -160 699 -160 750 -127 c 0,5,6
 790 -101 790 -101 790 -38 c 2,7,-1
 790 11 l 1,8,9
 712 -20 712 -20 615 -20 c 0,10,11
 426 -20 426 -20 283 67 c 128,-1,12
 140 154 140 154 140 340 c 2,13,-1
 140 982 l 1,14,-1
 430 1120 l 1,15,-1
 440 1120 l 1,16,-1
 440 382 l 2,17,18
 440 319 440 319 480 293 c 0,19,20
 531 260 531 260 615 260 c 128,-1,21
 699 260 699 260 750 293 c 0,22,23
 790 319 790 319 790 382 c 2,24,-1
 790 982 l 1,25,-1
 1080 1120 l 1,26,-1
 1090 1120 l 1,27,-1
 1090 -50 l 2,28,29
 1090 -236 1090 -236 947 -323 c 128,-1,30
 804 -410 804 -410 615 -410 c 2,31,-1
 280 -410 l 1,0,-1
EndSplineSet
Validated: 1
EndChar

StartChar: z
Encoding: 122 122 91
Width: 974
GlyphClass: 2
Flags: W
HStem: 0 280<486 835> 820 280<171 488>
DStem2: 488 820 486 280 0.508228 0.861223<-466.077 0>
LayerCount: 2
Fore
SplineSet
10 0 m 1,0,-1
 10 10 l 1,1,-1
 488 820 l 1,2,-1
 42 820 l 1,3,-1
 42 830 l 1,4,-1
 171 1100 l 1,5,-1
 964 1100 l 1,6,-1
 964 1090 l 1,7,-1
 486 280 l 1,8,-1
 964 280 l 1,9,-1
 964 270 l 1,10,-1
 835 0 l 1,11,-1
 10 0 l 1,0,-1
EndSplineSet
Validated: 1
EndChar

StartChar: braceleft
Encoding: 123 123 92
Width: 830
GlyphClass: 2
Flags: W
HStem: -240 301<610.617 800> 1449 301<610.617 800>
VStem: 234 320<116.661 620 890 1393.34>
LayerCount: 2
Fore
SplineSet
800 -240 m 1,0,1
 570 -240 570 -240 402 -138 c 128,-1,2
 234 -36 234 -36 234 191 c 2,3,-1
 234 620 l 1,4,-1
 10 620 l 1,5,-1
 10 630 l 1,6,-1
 135 890 l 1,7,-1
 234 890 l 1,8,-1
 234 1319 l 2,9,10
 234 1546 234 1546 402 1648 c 128,-1,11
 570 1750 570 1750 800 1750 c 1,12,-1
 800 1449 l 1,13,14
 687 1449 687 1449 612 1408 c 0,15,16
 554 1376 554 1376 554 1284 c 2,17,-1
 554 226 l 2,18,19
 554 134 554 134 612 102 c 0,20,21
 687 61 687 61 800 61 c 1,22,-1
 800 -240 l 1,0,1
EndSplineSet
Validated: 1
EndChar

StartChar: bar
Encoding: 124 124 93
Width: 690
GlyphClass: 2
Flags: W
VStem: 210 270<-76 1586>
LayerCount: 2
Fore
SplineSet
210 -200 m 1,0,-1
 210 1586 l 1,1,-1
 470 1710 l 1,2,-1
 480 1710 l 1,3,-1
 480 -76 l 1,4,-1
 220 -200 l 1,5,-1
 210 -200 l 1,0,-1
EndSplineSet
Validated: 1
EndChar

StartChar: braceright
Encoding: 125 125 94
Width: 830
GlyphClass: 2
Flags: W
HStem: -240 301<30 219.383> 1449 301<30 219.383>
VStem: 276 320<116.661 620 890 1393.34>
LayerCount: 2
Fore
SplineSet
30 -240 m 1,0,-1
 30 61 l 1,1,2
 143 61 143 61 218 102 c 0,3,4
 276 134 276 134 276 226 c 2,5,-1
 276 1284 l 2,6,7
 276 1376 276 1376 218 1408 c 0,8,9
 143 1449 143 1449 30 1449 c 1,10,-1
 30 1750 l 1,11,12
 260 1750 260 1750 428 1648 c 128,-1,13
 596 1546 596 1546 596 1319 c 2,14,-1
 596 890 l 1,15,-1
 820 890 l 1,16,-1
 820 880 l 1,17,-1
 695 620 l 1,18,-1
 596 620 l 1,19,-1
 596 191 l 2,20,21
 596 -36 596 -36 428 -138 c 128,-1,22
 260 -240 260 -240 30 -240 c 1,0,-1
EndSplineSet
Validated: 1
EndChar

StartChar: asciitilde
Encoding: 126 126 95
Width: 1178
GlyphClass: 2
Flags: W
HStem: 515 482
LayerCount: 2
Fore
SplineSet
1058 997 m 1,0,-1
 1068 997 l 1,1,2
 1068 515 1068 515 752 515 c 0,3,4
 616 515 616 515 489 666 c 0,5,6
 453 709 453 709 444 718 c 0,7,8
 433 729 433 729 421 729 c 0,9,10
 387 729 387 729 387 642 c 1,11,-1
 120 515 l 1,12,-1
 110 515 l 1,13,14
 110 997 110 997 426 997 c 0,15,16
 562 997 562 997 689 846 c 0,17,18
 725 803 725 803 734 794 c 0,19,20
 745 783 745 783 757 783 c 0,21,22
 791 783 791 783 791 870 c 1,23,-1
 1058 997 l 1,0,-1
EndSplineSet
Validated: 1
EndChar

StartChar: exclamdown
Encoding: 161 161 97
Width: 640
GlyphClass: 2
Flags: W
HStem: -430 21G<160 212.177> 755 365<203.122 437.869>
VStem: 140 360<817.422 1057.43> 160 320<-283 558>
LayerCount: 2
Fore
SplineSet
170 -430 m 1,0,-1
 160 -430 l 1,1,-1
 160 558 l 1,2,-1
 470 705 l 1,3,-1
 480 705 l 1,4,-1
 480 -283 l 1,5,-1
 170 -430 l 1,0,-1
320 1120 m 0,6,7
 396 1120 396 1120 448 1066 c 128,-1,8
 500 1012 500 1012 500 938 c 0,9,10
 500 862 500 862 448 809 c 0,11,12
 395 755 395 755 320 755 c 128,-1,13
 245 755 245 755 192.5 808.5 c 128,-1,14
 140 862 140 862 140 937 c 128,-1,15
 140 1012 140 1012 193 1066 c 128,-1,16
 246 1120 246 1120 320 1120 c 0,6,7
EndSplineSet
Validated: 1
EndChar

StartChar: cent
Encoding: 162 162 98
Width: 1080
GlyphClass: 2
Flags: W
VStem: 120 300<295.047 804.953> 535 120<-69 -14.8823 271 829 1114.88 1169>
LayerCount: 2
Fore
SplineSet
655 -69 m 1,0,-1
 545 -120 l 1,1,-1
 535 -120 l 1,2,-1
 535 -19 l 1,3,4
 387 -9 387 -9 263 67 c 0,5,6
 120 154 120 154 120 340 c 2,7,-1
 120 760 l 2,8,9
 120 946 120 946 263 1033 c 0,10,11
 387 1109 387 1109 535 1119 c 1,12,-1
 535 1169 l 1,13,-1
 645 1220 l 1,14,-1
 655 1220 l 1,15,-1
 655 1116 l 1,16,17
 785 1101 785 1101 897 1033 c 0,18,19
 1027 954 1027 954 1039 791 c 1,20,-1
 750 653 l 1,21,-1
 740 653 l 1,22,-1
 740 718 l 2,23,24
 740 781 740 781 700 807 c 0,25,26
 679 821 679 821 655 829 c 1,27,-1
 655 271 l 1,28,29
 679 279 679 279 700 293 c 0,30,31
 717 304 717 304 726 321 c 1,32,-1
 1030 465 l 1,33,-1
 1040 465 l 1,34,-1
 1040 340 l 2,35,36
 1040 154 1040 154 897 67 c 0,37,38
 785 -1 785 -1 655 -16 c 1,39,-1
 655 -69 l 1,0,-1
535 264 m 1,40,-1
 535 836 l 1,41,42
 494 829 494 829 460 807 c 0,43,44
 420 781 420 781 420 718 c 2,45,-1
 420 382 l 2,46,47
 420 319 420 319 460 293 c 0,48,49
 494 271 494 271 535 264 c 1,40,-1
EndSplineSet
Validated: 1
EndChar

StartChar: sterling
Encoding: 163 163 99
Width: 1375
GlyphClass: 2
Flags: W
HStem: 0 300<246 260 580 1129> 550 300<247 260 580 859> 1250 280<614.217 859.185>
VStem: 260 320<300 550 850 1214.95>
LayerCount: 2
Fore
SplineSet
110 0 m 1,0,-1
 110 10 l 1,1,-1
 246 300 l 1,2,-1
 260 300 l 1,3,-1
 260 550 l 1,4,-1
 111 550 l 1,5,-1
 111 560 l 1,6,-1
 247 850 l 1,7,-1
 260 850 l 1,8,-1
 260 1170 l 2,9,10
 260 1356 260 1356 403 1443 c 128,-1,11
 546 1530 546 1530 726.5 1530 c 128,-1,12
 907 1530 907 1530 1050 1443 c 0,13,14
 1180 1364 1180 1364 1192 1201 c 1,15,-1
 903 1063 l 1,16,-1
 893 1063 l 1,17,-1
 893 1128 l 2,18,19
 893 1191 893 1191 853 1217 c 0,20,21
 802 1250 802 1250 736.5 1250 c 128,-1,22
 671 1250 671 1250 620 1217 c 0,23,24
 580 1191 580 1191 580 1128 c 2,25,-1
 580 850 l 1,26,-1
 995 850 l 1,27,-1
 995 840 l 1,28,-1
 859 550 l 1,29,-1
 580 550 l 1,30,-1
 580 300 l 1,31,-1
 1265 300 l 1,32,-1
 1265 290 l 1,33,-1
 1129 0 l 1,34,-1
 110 0 l 1,0,-1
EndSplineSet
Validated: 1
EndChar

StartChar: currency
Encoding: 164 164 100
Width: 1535
GlyphClass: 2
Flags: W
HStem: 180 300<576.267 958.794> 1028 300<573.97 960.03>
VStem: 202 320<531.402 977.856> 1012 320<532.251 977.209>
LayerCount: 2
Fore
SplineSet
767 480 m 128,-1,1
 879 480 879 480 954 521 c 0,2,3
 1012 553 1012 553 1012 645 c 2,4,-1
 1012 863 l 2,5,6
 1012 955 1012 955 954 987 c 0,7,8
 879 1028 879 1028 767 1028 c 128,-1,9
 655 1028 655 1028 580 987 c 0,10,11
 522 955 522 955 522 863 c 2,12,-1
 522 645 l 2,13,14
 522 553 522 553 580 521 c 0,15,0
 655 480 655 480 767 480 c 128,-1,1
767 1328 m 128,-1,17
 932 1328 932 1328 1065 1275 c 1,18,-1
 1113 1323 l 1,19,-1
 1418 1215 l 1,20,-1
 1425 1208 l 1,21,-1
 1296 1079 l 1,22,23
 1332 1001 1332 1001 1332 897 c 2,24,-1
 1332 611 l 2,25,26
 1332 509 1332 509 1298 432 c 1,27,-1
 1425 305 l 1,28,-1
 1418 298 l 1,29,-1
 1112 190 l 1,30,-1
 1068 234 l 1,31,32
 934 180 934 180 767 180 c 0,33,34
 593 180 593 180 455 239 c 1,35,-1
 423 206 l 1,36,-1
 117 314 l 1,37,-1
 110 321 l 1,38,-1
 232 442 l 1,39,40
 202 515 202 515 202 611 c 2,41,-1
 202 897 l 2,42,43
 202 1002 202 1002 238 1080 c 1,44,-1
 110 1209 l 1,45,-1
 117 1216 l 1,46,-1
 421 1323 l 1,47,-1
 469 1275 l 1,48,16
 602 1328 602 1328 767 1328 c 128,-1,17
EndSplineSet
Validated: 1
EndChar

StartChar: yen
Encoding: 165 165 101
Width: 1270
GlyphClass: 2
Flags: W
HStem: -20 21G<475 527.105> 94 140<271 475 795 999> 294 140<271 351 919 999> 1510 20G<347.823 400 1137.82 1190>
VStem: 80 320<733.27 1383> 870 320<733.27 1383>
LayerCount: 2
Fore
SplineSet
485 -20 m 1,0,-1
 475 -20 l 1,1,-1
 475 94 l 1,2,-1
 210 94 l 1,3,-1
 210 104 l 1,4,-1
 271 234 l 1,5,-1
 475 234 l 1,6,-1
 475 294 l 1,7,-1
 210 294 l 1,8,-1
 210 304 l 1,9,-1
 271 434 l 1,10,-1
 351 434 l 1,11,12
 297 455 297 455 248 485 c 0,13,14
 80 587 80 587 80 814 c 2,15,-1
 80 1383 l 1,16,-1
 390 1530 l 1,17,-1
 400 1530 l 1,18,-1
 400 848 l 2,19,20
 400 756 400 756 458 724 c 0,21,22
 533 683 533 683 635 683 c 128,-1,23
 737 683 737 683 812 724 c 0,24,25
 870 756 870 756 870 848 c 2,26,-1
 870 1383 l 1,27,-1
 1180 1530 l 1,28,-1
 1190 1530 l 1,29,-1
 1190 814 l 2,30,31
 1190 587 1190 587 1022 485 c 0,32,33
 973 455 973 455 919 434 c 1,34,-1
 1060 434 l 1,35,-1
 1060 424 l 1,36,-1
 999 294 l 1,37,-1
 795 294 l 1,38,-1
 795 234 l 1,39,-1
 1060 234 l 1,40,-1
 1060 224 l 1,41,-1
 999 94 l 1,42,-1
 725 94 l 1,43,-1
 485 -20 l 1,0,-1
EndSplineSet
Validated: 1
EndChar

StartChar: brokenbar
Encoding: 166 166 102
Width: 690
GlyphClass: 2
Flags: W
VStem: 210 270<-76 589 913 1586>
LayerCount: 2
Fore
SplineSet
210 -200 m 1,0,-1
 210 589 l 1,1,-1
 470 713 l 1,2,-1
 480 713 l 1,3,-1
 480 -76 l 1,4,-1
 220 -200 l 1,5,-1
 210 -200 l 1,0,-1
470 1710 m 1,6,-1
 480 1710 l 1,7,-1
 480 913 l 1,8,-1
 220 789 l 1,9,-1
 210 789 l 1,10,-1
 210 1586 l 1,11,-1
 470 1710 l 1,6,-1
EndSplineSet
Validated: 1
EndChar

StartChar: section
Encoding: 167 167 103
Width: 1109
GlyphClass: 2
Flags: W
HStem: -20 233<472.365 639.337> 383 254<425.442 632.3> 873 254<476.7 683.558> 1297 233<469.663 636.635>
VStem: 110 300<657.718 815.342> 170 284<1145.53 1277.92> 655 284<232.081 364.466> 699 300<694.658 852.282>
LayerCount: 2
Fore
SplineSet
549.5 -20 m 128,-1,1
 394 -20 394 -20 282 56 c 0,2,3
 173 131 173 131 163 231 c 1,4,-1
 442 364 l 1,5,-1
 452 364 l 1,6,-1
 452 289 l 2,7,8
 452 246 452 246 483 227 c 0,9,10
 506 213 506 213 550 213 c 0,11,12
 609 213 609 213 632 231.5 c 128,-1,13
 655 250 655 250 655 279 c 2,14,-1
 655 319 l 2,15,16
 655 348 655 348 633 365 c 0,17,18
 611 383 611 383 536 383 c 0,19,20
 359 383 359 383 234 472 c 0,21,22
 110 560 110 560 110 727 c 2,23,-1
 110 760 l 2,24,25
 110 867 110 867 155 941 c 1,26,-1
 419 816 l 1,27,28
 410 795 410 795 410 766 c 2,29,-1
 410 731 l 2,30,31
 410 637 410 637 542 637 c 0,32,33
 710 637 710 637 824.5 559.5 c 128,-1,34
 939 482 939 482 939 322 c 2,35,-1
 939 295 l 2,36,37
 939 133 939 133 822 56.5 c 128,-1,0
 705 -20 705 -20 549.5 -20 c 128,-1,1
559.5 1530 m 128,-1,39
 715 1530 715 1530 827 1454 c 0,40,41
 936 1379 936 1379 946 1279 c 1,42,-1
 667 1146 l 1,43,-1
 657 1146 l 1,44,-1
 657 1221 l 2,45,46
 657 1264 657 1264 626 1283 c 0,47,48
 603 1297 603 1297 559 1297 c 0,49,50
 500 1297 500 1297 477 1278.5 c 128,-1,51
 454 1260 454 1260 454 1231 c 2,52,-1
 454 1191 l 2,53,54
 454 1162 454 1162 476 1145 c 0,55,56
 498 1127 498 1127 573 1127 c 0,57,58
 750 1127 750 1127 875 1038 c 0,59,60
 999 950 999 950 999 783 c 2,61,-1
 999 750 l 2,62,63
 999 643 999 643 954 569 c 1,64,-1
 690 694 l 1,65,66
 699 715 699 715 699 744 c 2,67,-1
 699 779 l 2,68,69
 699 873 699 873 567 873 c 0,70,71
 399 873 399 873 284.5 950.5 c 128,-1,72
 170 1028 170 1028 170 1188 c 2,73,-1
 170 1215 l 2,74,75
 170 1377 170 1377 287 1453.5 c 128,-1,38
 404 1530 404 1530 559.5 1530 c 128,-1,39
EndSplineSet
Validated: 1
EndChar

StartChar: dieresis
Encoding: 168 168 104
Width: 690
GlyphClass: 2
Flags: W
HStem: 1210 297<73.8326 277.652 411.833 616.167>
VStem: 30 292<1255.38 1461.62> 368 292<1255.38 1461.62>
LayerCount: 2
Fore
SplineSet
514.5 1507 m 128,-1,1
 575 1507 575 1507 617.5 1463 c 128,-1,2
 660 1419 660 1419 660 1358.5 c 128,-1,3
 660 1298 660 1298 617.5 1254 c 128,-1,4
 575 1210 575 1210 514 1210 c 128,-1,5
 453 1210 453 1210 410.5 1254 c 128,-1,6
 368 1298 368 1298 368 1358 c 0,7,8
 368 1419 368 1419 411 1462 c 0,9,0
 454 1507 454 1507 514.5 1507 c 128,-1,1
175.5 1507 m 128,-1,11
 236 1507 236 1507 279 1463 c 128,-1,12
 322 1419 322 1419 322 1358.5 c 128,-1,13
 322 1298 322 1298 279 1254 c 128,-1,14
 236 1210 236 1210 176 1210 c 0,15,16
 115 1210 115 1210 72.5 1254 c 128,-1,17
 30 1298 30 1298 30 1358 c 0,18,19
 30 1419 30 1419 72 1462 c 0,20,10
 115 1507 115 1507 175.5 1507 c 128,-1,11
EndSplineSet
Validated: 1
EndChar

StartChar: copyright
Encoding: 169 169 105
Width: 1321
GlyphClass: 2
Flags: W
HStem: 386 48<505.181 810.676> 544 191<583.545 761.479> 1168 190<583.272 750.038> 1478 52<504.168 816.773>
VStem: 110 50<794.694 1125.05> 372 200<753.349 1149.68> 762 200<741.91 790 1115 1149.59> 1160 51<785.868 1126.58>
LayerCount: 2
Fore
SplineSet
667 1358 m 128,-1,1
 780 1358 780 1358 868 1304 c 0,2,3
 962 1248 962 1248 962 1135 c 2,4,-1
 962 1115 l 1,5,-1
 772 1040 l 1,6,-1
 762 1040 l 1,7,-1
 762 1106 l 2,8,9
 762 1137 762 1137 743 1150 c 0,10,11
 717 1168 717 1168 666 1168 c 0,12,13
 621 1168 621 1168 590 1150 c 0,14,15
 572 1140 572 1140 572 1106 c 2,16,-1
 572 797 l 2,17,18
 572 764 572 764 590 753 c 0,19,20
 620 735 620 735 667 735 c 0,21,22
 762 735 762 735 762 781 c 2,23,-1
 762 790 l 1,24,-1
 952 873 l 1,25,-1
 962 873 l 1,26,-1
 962 779 l 2,27,28
 962 655 962 655 870 599 c 0,29,30
 779 544 779 544 667 544 c 128,-1,31
 555 544 555 544 463.5 600 c 128,-1,32
 372 656 372 656 372 779 c 2,33,-1
 372 1124 l 2,34,35
 372 1248 372 1248 463 1303 c 128,-1,0
 554 1358 554 1358 667 1358 c 128,-1,1
661 1530 m 0,36,37
 903 1530 903 1530 1059 1357 c 0,38,39
 1211 1188 1211 1188 1211 953 c 0,40,41
 1211 701 1211 701 1050 549 c 0,42,43
 879 386 879 386 659 386 c 0,44,45
 436 386 436 386 271 549 c 0,46,47
 110 708 110 708 110 953 c 0,48,49
 110 1197 110 1197 268 1362 c 0,50,51
 429 1530 429 1530 661 1530 c 0,36,37
659 1478 m 0,52,53
 459 1478 459 1478 310 1330 c 0,54,55
 160 1181 160 1181 160 953 c 0,56,57
 160 750 160 750 307 587 c 0,58,59
 445 434 445 434 661 434 c 0,60,61
 862 434 862 434 1014 587 c 0,62,63
 1160 734 1160 734 1160 953 c 0,64,65
 1160 1185 1160 1185 1016 1327 c 0,66,67
 863 1478 863 1478 659 1478 c 0,52,53
EndSplineSet
Validated: 1
EndChar

StartChar: ordfeminine
Encoding: 170 170 106
Width: 581
GlyphClass: 2
Flags: W
HStem: 733 180<101 470> 969 131<213.032 369> 1225 120<213.155 359.744> 1406 164<207 356.859>
VStem: 51 156<1113.28 1211.78> 369 182<1102.56 1210.75 1335 1400.58>
LayerCount: 2
Fore
SplineSet
207 1570 m 1,0,-1
 293 1570 l 2,1,2
 394 1570 394 1570 472.5 1521 c 128,-1,3
 551 1472 551 1472 551 1370 c 2,4,-1
 551 1040 l 1,5,-1
 371 969 l 1,6,-1
 361 969 l 1,7,-1
 361 984 l 1,8,9
 333 969 333 969 301 969 c 0,10,11
 197 969 197 969 124 1017.5 c 128,-1,12
 51 1066 51 1066 51 1163 c 2,13,-1
 51 1168 l 2,14,15
 51 1253 51 1253 132 1302 c 0,16,17
 202 1345 202 1345 289 1345 c 0,18,19
 332 1345 332 1345 362 1335 c 1,20,21
 362 1406 362 1406 293 1406 c 2,22,-1
 146 1406 l 1,23,-1
 146 1416 l 1,24,-1
 207 1570 l 1,0,-1
289 1100 m 0,25,26
 369 1100 369 1100 369 1141 c 2,27,-1
 369 1184 l 2,28,29
 369 1203 369 1203 359 1211 c 0,30,31
 341 1225 341 1225 288 1225 c 0,32,33
 236 1225 236 1225 217 1212 c 0,34,35
 207 1205 207 1205 207 1185 c 2,36,-1
 207 1142 l 2,37,38
 207 1122 207 1122 218 1113 c 0,39,40
 235 1100 235 1100 289 1100 c 0,25,26
101 913 m 1,41,-1
 551 913 l 1,42,-1
 551 903 l 1,43,-1
 470 733 l 1,44,-1
 20 733 l 1,45,-1
 20 743 l 1,46,-1
 101 913 l 1,41,-1
EndSplineSet
Validated: 1
EndChar

StartChar: guillemotleft
Encoding: 171 171 107
Width: 1292
GlyphClass: 2
Flags: W
VStem: 110 312<599 911> 591 312<599 911>
DStem2: 422 755 110 755 0.50792 -0.861404<0 424.298> 110 755 422 755 0.50792 0.861404<158.471 582.769> 903 755 591 755 0.50792 -0.861404<0 424.298> 591 755 903 755 0.50792 0.861404<158.471 582.769>
LayerCount: 2
Fore
SplineSet
591 755 m 1,0,-1
 887 1257 l 1,1,-1
 897 1257 l 1,2,-1
 1132 1145 l 1,3,-1
 903 755 l 1,4,-1
 1132 365 l 1,5,-1
 897 253 l 1,6,-1
 887 253 l 1,7,-1
 591 755 l 1,0,-1
110 755 m 1,8,-1
 406 1257 l 1,9,-1
 416 1257 l 1,10,-1
 651 1145 l 1,11,-1
 422 755 l 1,12,-1
 651 365 l 1,13,-1
 416 253 l 1,14,-1
 406 253 l 1,15,-1
 110 755 l 1,8,-1
EndSplineSet
Validated: 1
EndChar

StartChar: logicalnot
Encoding: 172 172 108
Width: 1240
GlyphClass: 2
Flags: W
HStem: 620 270<235 759>
LayerCount: 2
Fore
SplineSet
235 890 m 1,0,-1
 1130 890 l 1,1,-1
 1130 880 l 1,2,-1
 879 358 l 1,3,-1
 633 358 l 1,4,-1
 759 620 l 1,5,-1
 110 620 l 1,6,-1
 110 630 l 1,7,-1
 235 890 l 1,0,-1
EndSplineSet
Validated: 1
EndChar

StartChar: uni00AD
Encoding: 173 173 109
Width: 1240
GlyphClass: 2
Flags: W
HStem: 620 270<235 1005>
LayerCount: 2
Fore
SplineSet
235 890 m 1,0,-1
 1130 890 l 1,1,-1
 1130 880 l 1,2,-1
 1005 620 l 1,3,-1
 110 620 l 1,4,-1
 110 630 l 1,5,-1
 235 890 l 1,0,-1
EndSplineSet
Validated: 1
EndChar

StartChar: registered
Encoding: 174 174 110
Width: 1321
GlyphClass: 2
Flags: W
HStem: 386 48<505.181 810.676> 778 191<588 662> 1164 191<588 747.934> 1478 52<504.168 816.773>
VStem: 110 50<794.694 1125.05> 388 200<623 778 969 1164> 768 200<987.38 1145.65> 1160 51<785.868 1126.58>
LayerCount: 2
Fore
SplineSet
588 1164 m 1,0,-1
 588 969 l 1,1,-1
 666 969 l 2,2,3
 717 969 717 969 749 987 c 0,4,5
 767 999 767 999 768 1032 c 2,6,-1
 768 1101 l 2,7,8
 767 1135 767 1135 749 1146 c 0,9,10
 715 1164 715 1164 666 1164 c 2,11,-1
 588 1164 l 1,0,-1
562 1355 m 1,12,-1
 666 1355 l 2,13,14
 785 1355 785 1355 877 1299 c 0,15,16
 968 1243 968 1243 968 1119 c 2,17,-1
 968 1015 l 2,18,19
 968 889 968 889 875 833 c 1,20,-1
 1027 624 l 1,21,-1
 835 548 l 1,22,-1
 825 548 l 1,23,-1
 662 778 l 1,24,-1
 588 778 l 1,25,-1
 588 623 l 1,26,-1
 398 548 l 1,27,-1
 388 548 l 1,28,-1
 388 1278 l 1,29,-1
 562 1355 l 1,12,-1
661 1530 m 0,30,31
 903 1530 903 1530 1059 1357 c 0,32,33
 1211 1188 1211 1188 1211 953 c 0,34,35
 1211 701 1211 701 1050 549 c 0,36,37
 879 386 879 386 659 386 c 0,38,39
 436 386 436 386 271 549 c 0,40,41
 110 708 110 708 110 953 c 0,42,43
 110 1197 110 1197 268 1362 c 0,44,45
 429 1530 429 1530 661 1530 c 0,30,31
659 1478 m 0,46,47
 459 1478 459 1478 310 1330 c 0,48,49
 160 1181 160 1181 160 953 c 0,50,51
 160 750 160 750 307 587 c 0,52,53
 445 434 445 434 661 434 c 0,54,55
 862 434 862 434 1014 587 c 0,56,57
 1160 734 1160 734 1160 953 c 0,58,59
 1160 1185 1160 1185 1016 1327 c 0,60,61
 863 1478 863 1478 659 1478 c 0,46,47
EndSplineSet
Validated: 1
EndChar

StartChar: macron
Encoding: 175 175 111
Width: 680
GlyphClass: 2
Flags: W
HStem: 1288 190<116 564>
VStem: 30 620
LayerCount: 2
Fore
SplineSet
116 1478 m 1,0,-1
 650 1478 l 1,1,-1
 650 1468 l 1,2,-1
 564 1288 l 1,3,-1
 30 1288 l 1,4,-1
 30 1298 l 1,5,-1
 116 1478 l 1,0,-1
EndSplineSet
Validated: 1
EndChar

StartChar: degree
Encoding: 176 176 112
Width: 724
GlyphClass: 2
Flags: W
HStem: 898 196<259.038 464.962> 1374 196<259.038 464.962>
VStem: 30 210<1117.57 1350.43> 484 210<1117.57 1350.43>
LayerCount: 2
Fore
SplineSet
362 1570 m 128,-1,1
 494 1570 494 1570 594 1509 c 128,-1,2
 694 1448 694 1448 694 1318 c 2,3,-1
 694 1150 l 2,4,5
 694 1020 694 1020 594 959 c 128,-1,6
 494 898 494 898 362 898 c 128,-1,7
 230 898 230 898 130 959 c 128,-1,8
 30 1020 30 1020 30 1150 c 2,9,-1
 30 1318 l 2,10,11
 30 1448 30 1448 130 1509 c 128,-1,0
 230 1570 230 1570 362 1570 c 128,-1,1
362 1374 m 128,-1,13
 304 1374 304 1374 268 1351 c 0,14,15
 240 1333 240 1333 240 1289 c 2,16,-1
 240 1179 l 2,17,18
 240 1135 240 1135 268 1117 c 0,19,20
 304 1094 304 1094 362 1094 c 128,-1,21
 420 1094 420 1094 456 1117 c 0,22,23
 484 1135 484 1135 484 1179 c 2,24,-1
 484 1289 l 2,25,26
 484 1333 484 1333 456 1351 c 0,27,12
 420 1374 420 1374 362 1374 c 128,-1,13
EndSplineSet
Validated: 1
EndChar

StartChar: plusminus
Encoding: 177 177 113
Width: 1240
GlyphClass: 2
Flags: W
HStem: 154 270<235 1005> 828 270<235 485 755 1005>
VStem: 485 270<578 828 1098 1348>
LayerCount: 2
Fore
SplineSet
235 424 m 1,0,-1
 1130 424 l 1,1,-1
 1130 414 l 1,2,-1
 1005 154 l 1,3,-1
 110 154 l 1,4,-1
 110 164 l 1,5,-1
 235 424 l 1,0,-1
745 1473 m 1,6,-1
 755 1473 l 1,7,-1
 755 1098 l 1,8,-1
 1130 1098 l 1,9,-1
 1130 1088 l 1,10,-1
 1005 828 l 1,11,-1
 755 828 l 1,12,-1
 755 578 l 1,13,-1
 495 453 l 1,14,-1
 485 453 l 1,15,-1
 485 828 l 1,16,-1
 110 828 l 1,17,-1
 110 838 l 1,18,-1
 235 1098 l 1,19,-1
 485 1098 l 1,20,-1
 485 1348 l 1,21,-1
 745 1473 l 1,6,-1
EndSplineSet
Validated: 1
EndChar

StartChar: uni00B2
Encoding: 178 178 114
Width: 671
GlyphClass: 2
Flags: W
HStem: 764 191<397 569> 1381 189<243.652 420.694>
VStem: 432 200<1189.62 1361.5>
LayerCount: 2
Fore
SplineSet
336.5 1570 m 128,-1,1
 450 1570 450 1570 540 1514 c 0,2,3
 632 1458 632 1458 632 1335 c 2,4,-1
 632 1295 l 2,5,6
 632 1141 632 1141 484 1024 c 2,7,-1
 397 955 l 1,8,-1
 641 955 l 1,9,-1
 641 945 l 1,10,-1
 569 764 l 1,11,-1
 30 764 l 1,12,-1
 30 774 l 1,13,-1
 115 966 l 1,14,-1
 329 1135 l 2,15,16
 432 1216 432 1216 432 1288 c 2,17,-1
 432 1318 l 2,18,19
 432 1346 432 1346 414 1362 c 0,20,21
 392 1381 392 1381 337 1381 c 0,22,23
 242 1381 242 1381 242 1332 c 2,24,-1
 242 1316 l 1,25,-1
 52 1241 l 1,26,-1
 42 1241 l 1,27,-1
 42 1335 l 2,28,29
 42 1459 42 1459 134 1516 c 0,30,0
 223 1570 223 1570 336.5 1570 c 128,-1,1
EndSplineSet
Validated: 1
EndChar

StartChar: uni00B3
Encoding: 179 179 115
Width: 654
GlyphClass: 2
Flags: W
HStem: 753 191<240.203 407.911> 1369 191<166 297>
VStem: 420 200<962.349 1094.68>
LayerCount: 2
Fore
SplineSet
166 1560 m 1,0,-1
 624 1560 l 1,1,-1
 454 1277 l 1,2,3
 496 1267 496 1267 526 1248 c 0,4,5
 620 1188 620 1188 620 1067 c 2,6,-1
 620 989 l 2,7,8
 620 865 620 865 528 808 c 0,9,10
 437 753 437 753 325 753 c 128,-1,11
 213 753 213 753 124 808 c 0,12,13
 30 866 30 866 30 987 c 1,14,-1
 220 1071 l 1,15,-1
 230 1071 l 1,16,-1
 230 1006 l 2,17,18
 230 972 230 972 248 962 c 0,19,20
 280 944 280 944 325 944 c 0,21,22
 371 944 371 944 401 962 c 0,23,24
 420 973 420 973 420 1006 c 2,25,-1
 420 1050 l 2,26,27
 420 1085 420 1085 401 1095 c 0,28,29
 367 1113 367 1113 327 1113 c 128,-1,30
 287 1113 287 1113 245 1097 c 1,31,-1
 179 1171 l 1,32,-1
 297 1369 l 1,33,-1
 86 1369 l 1,34,-1
 86 1379 l 1,35,-1
 166 1560 l 1,0,-1
EndSplineSet
Validated: 1
EndChar

StartChar: acute
Encoding: 180 180 116
Width: 405
GlyphClass: 2
Flags: W
HStem: 1160 410
VStem: 30 345
DStem2: 30 1244 218 1160 0.429396 0.903116<4.86464 360.972>
LayerCount: 2
Fore
SplineSet
195 1570 m 1,0,-1
 375 1485 l 1,1,-1
 218 1160 l 1,2,-1
 208 1160 l 1,3,-1
 30 1244 l 1,4,-1
 185 1570 l 1,5,-1
 195 1570 l 1,0,-1
EndSplineSet
Validated: 1
EndChar

StartChar: uni00B5
Encoding: 181 181 117
Width: 1230
GlyphClass: 2
Flags: W
HStem: -430 21G<140 192.029> -20 280<473.748 754.684> 1100 20G<387.971 440 1037.97 1090>
VStem: 140 300<-292 1 293.822 982> 790 300<295.047 982>
LayerCount: 2
Fore
SplineSet
140 982 m 1,0,-1
 430 1120 l 1,1,-1
 440 1120 l 1,2,-1
 440 382 l 2,3,4
 440 319 440 319 480 293 c 0,5,6
 531 260 531 260 615 260 c 128,-1,7
 699 260 699 260 750 293 c 0,8,9
 790 319 790 319 790 382 c 2,10,-1
 790 982 l 1,11,-1
 1080 1120 l 1,12,-1
 1090 1120 l 1,13,-1
 1090 340 l 2,14,15
 1090 154 1090 154 947 67 c 128,-1,16
 804 -20 804 -20 615 -20 c 0,17,18
 522 -20 522 -20 440 1 c 1,19,-1
 440 -292 l 1,20,-1
 150 -430 l 1,21,-1
 140 -430 l 1,22,-1
 140 982 l 1,0,-1
EndSplineSet
Validated: 1
EndChar

StartChar: paragraph
Encoding: 182 182 118
Width: 1220
GlyphClass: 2
Flags: W
HStem: -20 21G<740 792.308> 428 1102<337.076 736.282>
VStem: 740 120<32 451> 944 116<127 1144>
LayerCount: 2
Fore
SplineSet
750 -20 m 1,0,-1
 740 -20 l 1,1,-1
 740 451 l 1,2,3
 668 428 668 428 585 428 c 0,4,5
 396 428 396 428 253 515 c 128,-1,6
 110 602 110 602 110 788 c 2,7,-1
 110 1170 l 2,8,9
 110 1356 110 1356 253 1443 c 128,-1,10
 396 1530 396 1530 585 1530 c 128,-1,11
 774 1530 774 1530 917 1443 c 128,-1,12
 1060 1356 1060 1356 1060 1170 c 2,13,-1
 1060 127 l 1,14,-1
 944 72 l 1,15,-1
 944 1144 l 1,16,-1
 860 1106 l 1,17,-1
 860 32 l 1,18,-1
 750 -20 l 1,0,-1
EndSplineSet
Validated: 1
EndChar

StartChar: periodcentered
Encoding: 183 183 119
Width: 420
GlyphClass: 2
Flags: W
HStem: 573 365<92.1309 326.878>
VStem: 30 360<635.566 875.578>
LayerCount: 2
Fore
SplineSet
210 938 m 128,-1,1
 285 938 285 938 337.5 884.5 c 128,-1,2
 390 831 390 831 390 756 c 128,-1,3
 390 681 390 681 337 627 c 128,-1,4
 284 573 284 573 210 573 c 0,5,6
 134 573 134 573 82 627 c 128,-1,7
 30 681 30 681 30 755 c 0,8,9
 30 831 30 831 82 884 c 0,10,0
 135 938 135 938 210 938 c 128,-1,1
EndSplineSet
Validated: 1
EndChar

StartChar: cedilla
Encoding: 184 184 120
Width: 440
GlyphClass: 2
Flags: W
HStem: -410 410 -20 20G<136 299>
VStem: 136 163<-61.7314 0> 202 208<-207.507 -85.3716>
LayerCount: 2
Fore
SplineSet
30 -410 m 1,0,-1
 30 -400 l 1,1,-1
 116 -220 l 1,2,3
 202 -204 202 -204 202 -145 c 0,4,5
 202 -100 202 -100 136 -76 c 1,6,-1
 136 0 l 1,7,-1
 299 0 l 1,8,-1
 299 -40 l 1,9,10
 410 -83 410 -83 410 -187 c 0,11,12
 410 -410 410 -410 30 -410 c 1,0,-1
EndSplineSet
Validated: 1
EndChar

StartChar: uni00B9
Encoding: 185 185 121
Width: 412
GlyphClass: 2
Flags: W
VStem: 152 200<831 1294>
LayerCount: 2
Fore
SplineSet
342 1570 m 1,0,-1
 352 1570 l 1,1,-1
 352 831 l 1,2,-1
 162 756 l 1,3,-1
 152 756 l 1,4,-1
 152 1294 l 1,5,-1
 30 1242 l 1,6,-1
 30 1432 l 1,7,-1
 342 1570 l 1,0,-1
EndSplineSet
Validated: 1
EndChar

StartChar: ordmasculine
Encoding: 186 186 122
Width: 594
GlyphClass: 2
Flags: W
HStem: 733 180<101 483> 960 182<245.286 367.744> 1389 181<246.665 372.628>
VStem: 50 190<1155.25 1375.75> 374 190<1155.28 1387.05>
LayerCount: 2
Fore
SplineSet
308 1570 m 128,-1,1
 408 1570 408 1570 486 1522 c 0,2,3
 564 1476 564 1476 564 1371 c 2,4,-1
 564 1160 l 2,5,6
 564 1056 564 1056 485.5 1008 c 128,-1,7
 407 960 407 960 306.5 960 c 128,-1,8
 206 960 206 960 128 1009 c 0,9,10
 50 1056 50 1056 50 1160 c 2,11,-1
 50 1371 l 2,12,13
 50 1475 50 1475 129 1522.5 c 128,-1,0
 208 1570 208 1570 308 1570 c 128,-1,1
307 1389 m 0,14,15
 270 1389 270 1389 251 1376 c 0,16,17
 240 1368 240 1368 240 1349 c 2,18,-1
 240 1182 l 2,19,20
 240 1163 240 1163 250 1155 c 0,21,22
 266 1142 266 1142 307 1142 c 0,23,24
 347 1142 347 1142 363 1155 c 0,25,26
 374 1164 374 1164 374 1182 c 2,27,-1
 374 1349 l 2,28,29
 374 1389 374 1389 307 1389 c 0,14,15
101 913 m 1,30,-1
 564 913 l 1,31,-1
 564 903 l 1,32,-1
 483 733 l 1,33,-1
 20 733 l 1,34,-1
 20 743 l 1,35,-1
 101 913 l 1,30,-1
EndSplineSet
Validated: 1
EndChar

StartChar: guillemotright
Encoding: 187 187 123
Width: 1292
GlyphClass: 2
Flags: W
VStem: 389 312<599 911> 870 312<599 911>
DStem2: 405 1257 160 1145 0.50792 -0.861404<0 424.298> 160 365 405 253 0.50792 0.861404<27.963 452.261> 886 1257 641 1145 0.50792 -0.861404<0 424.298> 641 365 886 253 0.50792 0.861404<27.963 452.261>
LayerCount: 2
Fore
SplineSet
701 755 m 1,0,-1
 405 253 l 1,1,-1
 395 253 l 1,2,-1
 160 365 l 1,3,-1
 389 755 l 1,4,-1
 160 1145 l 1,5,-1
 395 1257 l 1,6,-1
 405 1257 l 1,7,-1
 701 755 l 1,0,-1
1182 755 m 1,8,-1
 886 253 l 1,9,-1
 876 253 l 1,10,-1
 641 365 l 1,11,-1
 870 755 l 1,12,-1
 641 1145 l 1,13,-1
 876 1257 l 1,14,-1
 886 1257 l 1,15,-1
 1182 755 l 1,8,-1
EndSplineSet
Validated: 1
EndChar

StartChar: onequarter
Encoding: 188 188 124
Width: 1543
GlyphClass: 2
Flags: W
HStem: -20 21G<450.053 511.325 1158 1218.67> 142 191<1070 1158> 1510 20G<376.783 432 916.661 977.77>
VStem: 232 200<791 1254> 1158 200<55 133 333 450>
DStem2: 255 93 502 -20 0.423093 0.906086<2.11609 1585.94>
LayerCount: 2
Fore
SplineSet
422 1530 m 1,0,-1
 432 1530 l 1,1,-1
 432 791 l 1,2,-1
 242 716 l 1,3,-1
 232 716 l 1,4,-1
 232 1254 l 1,5,-1
 110 1202 l 1,6,-1
 110 1392 l 1,7,-1
 422 1530 l 1,0,-1
492 -20 m 1,8,-1
 255 93 l 1,9,-1
 926 1530 l 1,10,-1
 936 1530 l 1,11,-1
 1172 1417 l 1,12,-1
 502 -20 l 1,13,-1
 492 -20 l 1,8,-1
1070 333 m 1,14,-1
 1158 333 l 1,15,-1
 1158 450 l 1,16,-1
 1070 333 l 1,14,-1
1168 -20 m 1,17,-1
 1158 -20 l 1,18,-1
 1158 142 l 1,19,-1
 770 142 l 1,20,-1
 770 152 l 1,21,-1
 1153 708 l 1,22,-1
 1348 794 l 1,23,-1
 1358 794 l 1,24,-1
 1358 333 l 1,25,-1
 1433 333 l 1,26,-1
 1433 323 l 1,27,-1
 1358 133 l 1,28,-1
 1358 55 l 1,29,-1
 1168 -20 l 1,17,-1
EndSplineSet
Validated: 1
EndChar

StartChar: onehalf
Encoding: 189 189 125
Width: 1677
GlyphClass: 2
Flags: W
HStem: -20 21G<450.053 511.325> 0 191<1323 1495> 617 189<1169.65 1346.69> 1510 20G<376.783 432 916.661 977.77>
VStem: 232 200<791 1254> 1358 200<425.624 597.497>
DStem2: 255 93 502 -20 0.423093 0.906086<2.11609 1585.94>
LayerCount: 2
Fore
SplineSet
956 0 m 1,0,-1
 956 10 l 1,1,-1
 1041 202 l 1,2,-1
 1255 371 l 2,3,4
 1358 452 1358 452 1358 524 c 2,5,-1
 1358 554 l 2,6,7
 1358 582 1358 582 1340 598 c 0,8,9
 1318 617 1318 617 1263 617 c 0,10,11
 1168 617 1168 617 1168 568 c 2,12,-1
 1168 552 l 1,13,-1
 978 477 l 1,14,-1
 968 477 l 1,15,-1
 968 571 l 2,16,17
 968 695 968 695 1060 752 c 0,18,19
 1149 806 1149 806 1262.5 806 c 128,-1,20
 1376 806 1376 806 1466 750 c 0,21,22
 1558 694 1558 694 1558 571 c 2,23,-1
 1558 531 l 2,24,25
 1558 377 1558 377 1410 260 c 2,26,-1
 1323 191 l 1,27,-1
 1567 191 l 1,28,-1
 1567 181 l 1,29,-1
 1495 0 l 1,30,-1
 956 0 l 1,0,-1
422 1530 m 1,31,-1
 432 1530 l 1,32,-1
 432 791 l 1,33,-1
 242 716 l 1,34,-1
 232 716 l 1,35,-1
 232 1254 l 1,36,-1
 110 1202 l 1,37,-1
 110 1392 l 1,38,-1
 422 1530 l 1,31,-1
492 -20 m 1,39,-1
 255 93 l 1,40,-1
 926 1530 l 1,41,-1
 936 1530 l 1,42,-1
 1172 1417 l 1,43,-1
 502 -20 l 1,44,-1
 492 -20 l 1,39,-1
EndSplineSet
Validated: 1
EndChar

StartChar: threequarters
Encoding: 190 190 126
Width: 1780
GlyphClass: 2
Flags: W
HStem: -20 21G<687.053 748.325 1395 1455.67> 142 191<1307 1395> 723 191<320.203 487.911> 1339 191<246 377>
VStem: 500 200<932.349 1064.68> 1395 200<55 133 333 450>
DStem2: 492 93 739 -20 0.423093 0.906086<2.11609 1585.94>
LayerCount: 2
Fore
SplineSet
246 1530 m 1,0,-1
 704 1530 l 1,1,-1
 534 1247 l 1,2,3
 576 1237 576 1237 606 1218 c 0,4,5
 700 1158 700 1158 700 1037 c 2,6,-1
 700 959 l 2,7,8
 700 835 700 835 608 778 c 0,9,10
 517 723 517 723 405 723 c 128,-1,11
 293 723 293 723 204 778 c 0,12,13
 110 836 110 836 110 957 c 1,14,-1
 300 1041 l 1,15,-1
 310 1041 l 1,16,-1
 310 976 l 2,17,18
 310 942 310 942 328 932 c 0,19,20
 360 914 360 914 405 914 c 0,21,22
 451 914 451 914 481 932 c 0,23,24
 500 943 500 943 500 976 c 2,25,-1
 500 1020 l 2,26,27
 500 1055 500 1055 481 1065 c 0,28,29
 447 1083 447 1083 407 1083 c 128,-1,30
 367 1083 367 1083 325 1067 c 1,31,-1
 259 1141 l 1,32,-1
 377 1339 l 1,33,-1
 166 1339 l 1,34,-1
 166 1349 l 1,35,-1
 246 1530 l 1,0,-1
729 -20 m 1,36,-1
 492 93 l 1,37,-1
 1163 1530 l 1,38,-1
 1173 1530 l 1,39,-1
 1409 1417 l 1,40,-1
 739 -20 l 1,41,-1
 729 -20 l 1,36,-1
1307 333 m 1,42,-1
 1395 333 l 1,43,-1
 1395 450 l 1,44,-1
 1307 333 l 1,42,-1
1405 -20 m 1,45,-1
 1395 -20 l 1,46,-1
 1395 142 l 1,47,-1
 1007 142 l 1,48,-1
 1007 152 l 1,49,-1
 1390 708 l 1,50,-1
 1585 794 l 1,51,-1
 1595 794 l 1,52,-1
 1595 333 l 1,53,-1
 1670 333 l 1,54,-1
 1670 323 l 1,55,-1
 1595 133 l 1,56,-1
 1595 55 l 1,57,-1
 1405 -20 l 1,45,-1
EndSplineSet
Validated: 1
EndChar

StartChar: questiondown
Encoding: 191 191 127
Width: 1320
GlyphClass: 2
Flags: W
HStem: -430 300<485.157 831.198> 755 365<578.122 812.869>
VStem: 110 320<-79.4062 203.064> 515 360<817.422 1057.43>
LayerCount: 2
Fore
SplineSet
660 -430 m 128,-1,1
 446 -430 446 -430 278 -328 c 128,-1,2
 110 -226 110 -226 110 1 c 2,3,-1
 110 44 l 2,4,5
 110 364 110 364 472 529 c 0,6,7
 529 555 529 555 529 594 c 1,8,-1
 842 741 l 1,9,-1
 852 741 l 1,10,11
 852 407 852 407 609 304 c 0,12,13
 430 228 430 228 430 62 c 2,14,-1
 430 35 l 2,15,16
 430 -54 430 -54 488 -89 c 0,17,18
 554 -130 554 -130 661.5 -130 c 128,-1,19
 769 -130 769 -130 832 -89 c 0,20,21
 878 -61 878 -61 887 0 c 1,22,-1
 1200 148 l 1,23,-1
 1210 148 l 1,24,-1
 1210 1 l 2,25,26
 1210 -226 1210 -226 1042 -328 c 128,-1,0
 874 -430 874 -430 660 -430 c 128,-1,1
695 1120 m 0,27,28
 771 1120 771 1120 823 1066 c 128,-1,29
 875 1012 875 1012 875 938 c 0,30,31
 875 862 875 862 823 809 c 0,32,33
 770 755 770 755 695 755 c 128,-1,34
 620 755 620 755 567.5 808.5 c 128,-1,35
 515 862 515 862 515 937 c 128,-1,36
 515 1012 515 1012 568 1066 c 128,-1,37
 621 1120 621 1120 695 1120 c 0,27,28
EndSplineSet
Validated: 1
EndChar

StartChar: endash
Encoding: 8211 8211 128
Width: 1240
GlyphClass: 2
Flags: W
HStem: 620 270<235 1005>
LayerCount: 2
Fore
SplineSet
235 890 m 1,0,-1
 1130 890 l 1,1,-1
 1130 880 l 1,2,-1
 1005 620 l 1,3,-1
 110 620 l 1,4,-1
 110 630 l 1,5,-1
 235 890 l 1,0,-1
EndSplineSet
Validated: 1
EndChar

StartChar: emdash
Encoding: 8212 8212 129
Width: 1570
GlyphClass: 2
Flags: W
HStem: 620 270<235 1335>
LayerCount: 2
Fore
SplineSet
235 890 m 1,0,-1
 1460 890 l 1,1,-1
 1460 880 l 1,2,-1
 1335 620 l 1,3,-1
 110 620 l 1,4,-1
 110 630 l 1,5,-1
 235 890 l 1,0,-1
EndSplineSet
Validated: 1
EndChar

StartChar: afii00208
Encoding: 8213 8213 130
Width: 1570
GlyphClass: 2
Flags: W
HStem: 620 270<235 1335>
LayerCount: 2
Fore
SplineSet
235 890 m 1,0,-1
 1460 890 l 1,1,-1
 1460 880 l 1,2,-1
 1335 620 l 1,3,-1
 110 620 l 1,4,-1
 110 630 l 1,5,-1
 235 890 l 1,0,-1
EndSplineSet
Validated: 1
EndChar

StartChar: quoteleft
Encoding: 8216 8216 131
Width: 496
GlyphClass: 2
Flags: W
HStem: 934 666
VStem: 30 264<1158.4 1384.82>
LayerCount: 2
Fore
SplineSet
366 1600 m 1,0,-1
 373 1593 l 1,1,2
 294 1444 294 1444 294 1296 c 0,3,4
 294 1140 294 1140 466 1060 c 1,5,-1
 197 934 l 1,6,-1
 187 934 l 1,7,8
 30 1036 30 1036 30 1218 c 0,9,10
 30 1475 30 1475 366 1600 c 1,0,-1
EndSplineSet
Validated: 1
EndChar

StartChar: quoteright
Encoding: 8217 8217 132
Width: 496
GlyphClass: 2
Flags: W
HStem: 934 666
VStem: 202 264<1149.18 1375.6>
LayerCount: 2
Fore
SplineSet
30 1474 m 1,0,-1
 299 1600 l 1,1,-1
 309 1600 l 1,2,3
 466 1498 466 1498 466 1316 c 0,4,5
 466 1059 466 1059 130 934 c 1,6,-1
 123 941 l 1,7,8
 202 1090 202 1090 202 1238 c 0,9,10
 202 1394 202 1394 30 1474 c 1,0,-1
EndSplineSet
Validated: 1
EndChar

StartChar: quotesinglbase
Encoding: 8218 8218 133
Width: 496
GlyphClass: 2
Flags: W
HStem: -328 666
VStem: 202 264<-112.817 113.6>
LayerCount: 2
Fore
SplineSet
30 212 m 1,0,-1
 299 338 l 1,1,-1
 309 338 l 1,2,3
 466 236 466 236 466 54 c 0,4,5
 466 -203 466 -203 130 -328 c 1,6,-1
 123 -321 l 1,7,8
 202 -172 202 -172 202 -24 c 0,9,10
 202 132 202 132 30 212 c 1,0,-1
EndSplineSet
Validated: 1
EndChar

StartChar: quotereversed
Encoding: 8219 8219 134
Width: 496
GlyphClass: 2
Flags: W
HStem: 934 666
VStem: 30 264<1149.18 1375.6>
LayerCount: 2
Fore
SplineSet
466 1474 m 1,0,1
 294 1394 294 1394 294 1238 c 0,2,3
 294 1090 294 1090 373 941 c 1,4,-1
 366 934 l 1,5,6
 30 1059 30 1059 30 1316 c 0,7,8
 30 1498 30 1498 187 1600 c 1,9,-1
 197 1600 l 1,10,-1
 466 1474 l 1,0,1
EndSplineSet
Validated: 1
EndChar

StartChar: quotedblleft
Encoding: 8220 8220 135
Width: 914
GlyphClass: 2
Flags: W
HStem: 934 666
VStem: 30 264<1158.4 1384.82> 448 264<1158.4 1384.82>
LayerCount: 2
Fore
SplineSet
366 1600 m 1,0,-1
 373 1593 l 1,1,2
 294 1444 294 1444 294 1296 c 0,3,4
 294 1140 294 1140 466 1060 c 1,5,-1
 197 934 l 1,6,-1
 187 934 l 1,7,8
 30 1036 30 1036 30 1218 c 0,9,10
 30 1475 30 1475 366 1600 c 1,0,-1
784 1600 m 1,11,-1
 791 1593 l 1,12,13
 712 1444 712 1444 712 1296 c 0,14,15
 712 1140 712 1140 884 1060 c 1,16,-1
 615 934 l 1,17,-1
 605 934 l 1,18,19
 448 1036 448 1036 448 1218 c 0,20,21
 448 1475 448 1475 784 1600 c 1,11,-1
EndSplineSet
Validated: 1
EndChar

StartChar: quotedblright
Encoding: 8221 8221 136
Width: 914
GlyphClass: 2
Flags: W
HStem: 934 666
VStem: 202 264<1149.18 1375.6> 620 264<1149.18 1375.6>
LayerCount: 2
Fore
SplineSet
448 1474 m 1,0,-1
 717 1600 l 1,1,-1
 727 1600 l 1,2,3
 884 1498 884 1498 884 1316 c 0,4,5
 884 1059 884 1059 548 934 c 1,6,-1
 541 941 l 1,7,8
 620 1090 620 1090 620 1238 c 0,9,10
 620 1394 620 1394 448 1474 c 1,0,-1
30 1474 m 1,11,-1
 299 1600 l 1,12,-1
 309 1600 l 1,13,14
 466 1498 466 1498 466 1316 c 0,15,16
 466 1059 466 1059 130 934 c 1,17,-1
 123 941 l 1,18,19
 202 1090 202 1090 202 1238 c 0,20,21
 202 1394 202 1394 30 1474 c 1,11,-1
EndSplineSet
Validated: 1
EndChar

StartChar: quotedblbase
Encoding: 8222 8222 137
Width: 914
GlyphClass: 2
Flags: W
HStem: -328 666
VStem: 202 264<-112.817 113.6> 620 264<-112.817 113.6>
LayerCount: 2
Fore
SplineSet
448 212 m 1,0,-1
 717 338 l 1,1,-1
 727 338 l 1,2,3
 884 236 884 236 884 54 c 0,4,5
 884 -203 884 -203 548 -328 c 1,6,-1
 541 -321 l 1,7,8
 620 -172 620 -172 620 -24 c 0,9,10
 620 132 620 132 448 212 c 1,0,-1
30 212 m 1,11,-1
 299 338 l 1,12,-1
 309 338 l 1,13,14
 466 236 466 236 466 54 c 0,15,16
 466 -203 466 -203 130 -328 c 1,17,-1
 123 -321 l 1,18,19
 202 -172 202 -172 202 -24 c 0,20,21
 202 132 202 132 30 212 c 1,11,-1
EndSplineSet
Validated: 1
EndChar

StartChar: dagger
Encoding: 8224 8224 138
Width: 1254
GlyphClass: 2
Flags: W
HStem: -20 21G<467 519.177> 914 300<249 467 787 1005> 1510 20G<735.108 787>
VStem: 467 320<127 914 1214 1382>
LayerCount: 2
Fore
SplineSet
477 -20 m 1,0,-1
 467 -20 l 1,1,-1
 467 914 l 1,2,-1
 110 914 l 1,3,-1
 110 924 l 1,4,-1
 249 1214 l 1,5,-1
 467 1214 l 1,6,-1
 467 1382 l 1,7,-1
 777 1530 l 1,8,-1
 787 1530 l 1,9,-1
 787 1214 l 1,10,-1
 1144 1214 l 1,11,-1
 1144 1204 l 1,12,-1
 1005 914 l 1,13,-1
 787 914 l 1,14,-1
 787 127 l 1,15,-1
 477 -20 l 1,0,-1
EndSplineSet
Validated: 1
EndChar

StartChar: daggerdbl
Encoding: 8225 8225 139
Width: 1254
GlyphClass: 2
Flags: W
HStem: -20 21G<467 518.892> 296 300<249 467 787 1005> 914 300<249 467 787 1005> 1510 20G<735.108 787>
VStem: 467 320<128 296 596 914 1214 1382>
LayerCount: 2
Fore
SplineSet
477 -20 m 1,0,-1
 467 -20 l 1,1,-1
 467 296 l 1,2,-1
 110 296 l 1,3,-1
 110 306 l 1,4,-1
 249 596 l 1,5,-1
 467 596 l 1,6,-1
 467 914 l 1,7,-1
 110 914 l 1,8,-1
 110 924 l 1,9,-1
 249 1214 l 1,10,-1
 467 1214 l 1,11,-1
 467 1382 l 1,12,-1
 777 1530 l 1,13,-1
 787 1530 l 1,14,-1
 787 1214 l 1,15,-1
 1144 1214 l 1,16,-1
 1144 1204 l 1,17,-1
 1005 914 l 1,18,-1
 787 914 l 1,19,-1
 787 596 l 1,20,-1
 1144 596 l 1,21,-1
 1144 586 l 1,22,-1
 1005 296 l 1,23,-1
 787 296 l 1,24,-1
 787 128 l 1,25,-1
 477 -20 l 1,0,-1
EndSplineSet
Validated: 1
EndChar

StartChar: bullet
Encoding: 8226 8226 140
Width: 950
GlyphClass: 2
Flags: W
HStem: 385 740<262.48 687.52>
LayerCount: 2
Fore
SplineSet
475 1125 m 128,-1,1
 620 1125 620 1125 730 1057.5 c 128,-1,2
 840 990 840 990 840 847 c 2,3,-1
 840 663 l 2,4,5
 840 520 840 520 730 452.5 c 128,-1,6
 620 385 620 385 475 385 c 128,-1,7
 330 385 330 385 220 452.5 c 128,-1,8
 110 520 110 520 110 663 c 2,9,-1
 110 847 l 2,10,11
 110 990 110 990 220 1057.5 c 128,-1,0
 330 1125 330 1125 475 1125 c 128,-1,1
EndSplineSet
Validated: 1
EndChar

StartChar: ellipsis
Encoding: 8230 8230 141
Width: 1292
GlyphClass: 2
Flags: W
HStem: -20 365<92.1309 326.878 528.131 762.878 964.131 1198.88>
VStem: 30 360<42.5657 282.578> 466 360<42.5657 282.578> 902 360<42.5657 282.578>
CounterMasks: 1 70
LayerCount: 2
Fore
SplineSet
1082 -20 m 0,0,1
 1006 -20 1006 -20 954 34 c 128,-1,2
 902 88 902 88 902 162 c 0,3,4
 902 238 902 238 954 291 c 0,5,6
 1007 345 1007 345 1082 345 c 128,-1,7
 1157 345 1157 345 1209.5 291.5 c 128,-1,8
 1262 238 1262 238 1262 163 c 128,-1,9
 1262 88 1262 88 1209 34 c 128,-1,10
 1156 -20 1156 -20 1082 -20 c 0,0,1
646 -20 m 0,11,12
 570 -20 570 -20 518 34 c 128,-1,13
 466 88 466 88 466 162 c 0,14,15
 466 238 466 238 518 291 c 0,16,17
 571 345 571 345 646 345 c 128,-1,18
 721 345 721 345 773.5 291.5 c 128,-1,19
 826 238 826 238 826 163 c 128,-1,20
 826 88 826 88 773 34 c 128,-1,21
 720 -20 720 -20 646 -20 c 0,11,12
210 -20 m 0,22,23
 134 -20 134 -20 82 34 c 128,-1,24
 30 88 30 88 30 162 c 0,25,26
 30 238 30 238 82 291 c 0,27,28
 135 345 135 345 210 345 c 128,-1,29
 285 345 285 345 337.5 291.5 c 128,-1,30
 390 238 390 238 390 163 c 128,-1,31
 390 88 390 88 337 34 c 128,-1,32
 284 -20 284 -20 210 -20 c 0,22,23
EndSplineSet
Validated: 1
EndChar

StartChar: perthousand
Encoding: 8240 8240 142
Width: 2624
GlyphClass: 2
Flags: W
HStem: -20 216<1260.04 1481.98 2038.04 2259.98> 504 216<1260.02 1481.98 2038.02 2259.98> 790 216<364.04 585.976> 1314 216<364.025 585.975>
VStem: 110 231<1031.66 1288.34> 609 231<1031.66 1288.34> 1006 231<221.663 478.337> 1505 231<221.663 478.337> 1784 231<221.663 478.337> 2283 231<221.663 478.337>
DStem2: 464 93 711 -20 0.423093 0.906086<2.11609 1585.94>
LayerCount: 2
Fore
SplineSet
2149 -20 m 128,-1,1
 2004 -20 2004 -20 1894 47.5 c 128,-1,2
 1784 115 1784 115 1784 258 c 2,3,-1
 1784 442 l 2,4,5
 1784 585 1784 585 1894 652.5 c 128,-1,6
 2004 720 2004 720 2149 720 c 128,-1,7
 2294 720 2294 720 2404 652.5 c 128,-1,8
 2514 585 2514 585 2514 442 c 2,9,-1
 2514 258 l 2,10,11
 2514 115 2514 115 2404 47.5 c 128,-1,0
 2294 -20 2294 -20 2149 -20 c 128,-1,1
2149.5 196 m 128,-1,13
 2213 196 2213 196 2252 221 c 0,14,15
 2283 242 2283 242 2283 290 c 2,16,-1
 2283 410 l 2,17,18
 2283 458 2283 458 2252 479 c 0,19,20
 2213 504 2213 504 2149 504 c 128,-1,21
 2085 504 2085 504 2046 479 c 0,22,23
 2015 458 2015 458 2015 410 c 2,24,-1
 2015 290 l 2,25,26
 2015 242 2015 242 2046 221 c 0,27,12
 2086 196 2086 196 2149.5 196 c 128,-1,13
1371 -20 m 128,-1,29
 1226 -20 1226 -20 1116 47.5 c 128,-1,30
 1006 115 1006 115 1006 258 c 2,31,-1
 1006 442 l 2,32,33
 1006 585 1006 585 1116 652.5 c 128,-1,34
 1226 720 1226 720 1371 720 c 128,-1,35
 1516 720 1516 720 1626 652.5 c 128,-1,36
 1736 585 1736 585 1736 442 c 2,37,-1
 1736 258 l 2,38,39
 1736 115 1736 115 1626 47.5 c 128,-1,28
 1516 -20 1516 -20 1371 -20 c 128,-1,29
1371.5 196 m 128,-1,41
 1435 196 1435 196 1474 221 c 0,42,43
 1505 242 1505 242 1505 290 c 2,44,-1
 1505 410 l 2,45,46
 1505 458 1505 458 1474 479 c 0,47,48
 1435 504 1435 504 1371 504 c 128,-1,49
 1307 504 1307 504 1268 479 c 0,50,51
 1237 458 1237 458 1237 410 c 2,52,-1
 1237 290 l 2,53,54
 1237 242 1237 242 1268 221 c 0,55,40
 1308 196 1308 196 1371.5 196 c 128,-1,41
475 1530 m 128,-1,57
 620 1530 620 1530 730 1462.5 c 128,-1,58
 840 1395 840 1395 840 1252 c 2,59,-1
 840 1068 l 2,60,61
 840 925 840 925 730 857.5 c 128,-1,62
 620 790 620 790 475 790 c 128,-1,63
 330 790 330 790 220 857.5 c 128,-1,64
 110 925 110 925 110 1068 c 2,65,-1
 110 1252 l 2,66,67
 110 1395 110 1395 220 1462.5 c 128,-1,56
 330 1530 330 1530 475 1530 c 128,-1,57
475 1314 m 128,-1,69
 411 1314 411 1314 372 1289 c 0,70,71
 341 1268 341 1268 341 1220 c 2,72,-1
 341 1100 l 2,73,74
 341 1052 341 1052 372 1031 c 0,75,76
 412 1006 412 1006 475.5 1006 c 128,-1,77
 539 1006 539 1006 578 1031 c 0,78,79
 609 1052 609 1052 609 1100 c 2,80,-1
 609 1220 l 2,81,82
 609 1268 609 1268 578 1289 c 0,83,68
 539 1314 539 1314 475 1314 c 128,-1,69
701 -20 m 1,84,-1
 464 93 l 1,85,-1
 1135 1530 l 1,86,-1
 1145 1530 l 1,87,-1
 1381 1417 l 1,88,-1
 711 -20 l 1,89,-1
 701 -20 l 1,84,-1
EndSplineSet
Validated: 1
EndChar

StartChar: minute
Encoding: 8242 8242 143
Width: 450
GlyphClass: 2
Flags: W
HStem: 1140 460
VStem: 30 390
LayerCount: 2
Fore
SplineSet
203 1600 m 1,0,-1
 213 1600 l 1,1,-1
 420 1501 l 1,2,-1
 188 1140 l 1,3,-1
 178 1140 l 1,4,-1
 30 1210 l 1,5,-1
 203 1600 l 1,0,-1
EndSplineSet
Validated: 1
EndChar

StartChar: second
Encoding: 8243 8243 144
Width: 770
GlyphClass: 2
Flags: W
HStem: 1140 460
LayerCount: 2
Fore
SplineSet
523 1600 m 1,0,-1
 533 1600 l 1,1,-1
 740 1501 l 1,2,-1
 508 1140 l 1,3,-1
 498 1140 l 1,4,-1
 350 1210 l 1,5,-1
 523 1600 l 1,0,-1
203 1600 m 1,6,-1
 213 1600 l 1,7,-1
 420 1501 l 1,8,-1
 188 1140 l 1,9,-1
 178 1140 l 1,10,-1
 30 1210 l 1,11,-1
 203 1600 l 1,6,-1
EndSplineSet
Validated: 1
EndChar

StartChar: guilsinglleft
Encoding: 8249 8249 145
Width: 811
GlyphClass: 2
Flags: W
VStem: 110 312<599 911>
DStem2: 422 755 110 755 0.50792 -0.861404<0 424.298> 110 755 422 755 0.50792 0.861404<158.471 582.769>
LayerCount: 2
Fore
SplineSet
110 755 m 1,0,-1
 406 1257 l 1,1,-1
 416 1257 l 1,2,-1
 651 1145 l 1,3,-1
 422 755 l 1,4,-1
 651 365 l 1,5,-1
 416 253 l 1,6,-1
 406 253 l 1,7,-1
 110 755 l 1,0,-1
EndSplineSet
Validated: 1
EndChar

StartChar: guilsinglright
Encoding: 8250 8250 146
Width: 811
GlyphClass: 2
Flags: W
VStem: 389 312<599 911>
DStem2: 405 1257 160 1145 0.50792 -0.861404<0 424.298> 160 365 405 253 0.50792 0.861404<27.963 452.261>
LayerCount: 2
Fore
SplineSet
701 755 m 1,0,-1
 405 253 l 1,1,-1
 395 253 l 1,2,-1
 160 365 l 1,3,-1
 389 755 l 1,4,-1
 160 1145 l 1,5,-1
 395 1257 l 1,6,-1
 405 1257 l 1,7,-1
 701 755 l 1,0,-1
EndSplineSet
Validated: 1
EndChar

StartChar: fraction
Encoding: 8260 8260 147
Width: 937
GlyphClass: 2
Flags: W
HStem: -20 21G<205.053 266.325> 1510 20G<671.661 732.77>
DStem2: 10 93 257 -20 0.423093 0.906086<2.11609 1585.94>
LayerCount: 2
Fore
SplineSet
247 -20 m 1,0,-1
 10 93 l 1,1,-1
 681 1530 l 1,2,-1
 691 1530 l 1,3,-1
 927 1417 l 1,4,-1
 257 -20 l 1,5,-1
 247 -20 l 1,0,-1
EndSplineSet
Validated: 1
EndChar

StartChar: Euro
Encoding: 8364 8364 148
Width: 1425
GlyphClass: 2
Flags: W
HStem: -20 300<590.202 936.121> 586 140<101 215 535 909> 786 140<101 215 535 909> 1230 300<590.157 939.709>
VStem: 215 320<330.375 586 726 786 926 1179.41>
LayerCount: 2
Fore
SplineSet
765 -20 m 128,-1,1
 551 -20 551 -20 383 82 c 128,-1,2
 215 184 215 184 215 411 c 2,3,-1
 215 586 l 1,4,-1
 40 586 l 1,5,-1
 40 596 l 1,6,-1
 101 726 l 1,7,-1
 215 726 l 1,8,-1
 215 786 l 1,9,-1
 40 786 l 1,10,-1
 40 796 l 1,11,-1
 101 926 l 1,12,-1
 215 926 l 1,13,-1
 215 1099 l 2,14,15
 215 1326 215 1326 383 1428 c 128,-1,16
 551 1530 551 1530 765 1530 c 128,-1,17
 979 1530 979 1530 1147 1428 c 0,18,19
 1307 1331 1307 1331 1315 1122 c 1,20,-1
 1005 974 l 1,21,-1
 995 974 l 1,22,-1
 995 1065 l 2,23,24
 992 1152 992 1152 937 1189 c 0,25,26
 875 1230 875 1230 766 1230 c 128,-1,27
 657 1230 657 1230 593 1189 c 0,28,29
 535 1154 535 1154 535 1065 c 2,30,-1
 535 926 l 1,31,-1
 970 926 l 1,32,-1
 970 916 l 1,33,-1
 909 786 l 1,34,-1
 535 786 l 1,35,-1
 535 726 l 1,36,-1
 970 726 l 1,37,-1
 970 716 l 1,38,-1
 909 586 l 1,39,-1
 535 586 l 1,40,-1
 535 445 l 2,41,42
 536 355 536 355 593 321 c 0,43,44
 661 280 661 280 765 280 c 128,-1,45
 869 280 869 280 937 321 c 0,46,47
 983 348 983 348 992 410 c 1,48,-1
 1305 558 l 1,49,-1
 1315 558 l 1,50,-1
 1315 411 l 2,51,52
 1315 184 1315 184 1147 82 c 128,-1,0
 979 -20 979 -20 765 -20 c 128,-1,1
EndSplineSet
Validated: 1
EndChar

StartChar: afii61248
Encoding: 8453 8453 149
Width: 1700
GlyphClass: 2
Flags: W
HStem: -20 191<1195.26 1378.33> 604 191<1195.73 1378.83> 716 191<321.545 499.479> 1340 190<321.272 488.038>
VStem: 110 200<925.349 1321.68> 500 200<913.91 962 1287 1321.59> 984 200<189.411 585.589> 1390 200<189.441 585.589>
DStem2: 384 93 631 -20 0.423093 0.906086<2.11609 1585.94>
LayerCount: 2
Fore
SplineSet
405 1530 m 128,-1,1
 518 1530 518 1530 606 1476 c 0,2,3
 700 1420 700 1420 700 1307 c 2,4,-1
 700 1287 l 1,5,-1
 510 1212 l 1,6,-1
 500 1212 l 1,7,-1
 500 1278 l 2,8,9
 500 1309 500 1309 481 1322 c 0,10,11
 455 1340 455 1340 404 1340 c 0,12,13
 359 1340 359 1340 328 1322 c 0,14,15
 310 1312 310 1312 310 1278 c 2,16,-1
 310 969 l 2,17,18
 310 936 310 936 328 925 c 0,19,20
 358 907 358 907 405 907 c 0,21,22
 500 907 500 907 500 953 c 2,23,-1
 500 962 l 1,24,-1
 690 1045 l 1,25,-1
 700 1045 l 1,26,-1
 700 951 l 2,27,28
 700 827 700 827 608 771 c 0,29,30
 517 716 517 716 405 716 c 128,-1,31
 293 716 293 716 201.5 772 c 128,-1,32
 110 828 110 828 110 951 c 2,33,-1
 110 1296 l 2,34,35
 110 1420 110 1420 201 1475 c 128,-1,0
 292 1530 292 1530 405 1530 c 128,-1,1
1288 171 m 0,36,37
 1348 171 1348 171 1371 189 c 0,38,39
 1390 203 1390 203 1390 233 c 2,40,-1
 1390 542 l 2,41,42
 1390 573 1390 573 1371 586 c 0,43,44
 1345 604 1345 604 1286 604 c 0,45,46
 1230 604 1230 604 1203 586 c 0,47,48
 1184 573 1184 573 1184 542 c 2,49,-1
 1184 233 l 2,50,51
 1184 202 1184 202 1203 189 c 0,52,53
 1229 171 1229 171 1288 171 c 0,36,37
1286.5 -20 m 128,-1,55
 1166 -20 1166 -20 1075 36 c 128,-1,56
 984 92 984 92 984 215 c 2,57,-1
 984 560 l 2,58,59
 984 684 984 684 1075.5 739.5 c 128,-1,60
 1167 795 1167 795 1287.5 795 c 128,-1,61
 1408 795 1408 795 1500 738 c 0,62,63
 1590 683 1590 683 1590 560 c 2,64,-1
 1590 215 l 2,65,66
 1590 90 1590 90 1498.5 35 c 128,-1,54
 1407 -20 1407 -20 1286.5 -20 c 128,-1,55
621 -20 m 1,67,-1
 384 93 l 1,68,-1
 1055 1530 l 1,69,-1
 1065 1530 l 1,70,-1
 1301 1417 l 1,71,-1
 631 -20 l 1,72,-1
 621 -20 l 1,67,-1
EndSplineSet
Validated: 1
EndChar

StartChar: afii61289
Encoding: 8467 8467 150
Width: 1147
GlyphClass: 2
Flags: W
HStem: 0 1G<110 486.273 636 745> 1510 20G<804.5 902>
LayerCount: 2
Fore
SplineSet
690 -20 m 0,0,1
 582 -20 582 -20 501 44 c 1,2,-1
 474 0 l 1,3,-1
 110 0 l 1,4,5
 272 162 272 162 375 325 c 1,6,7
 364 420 364 420 364 524 c 0,8,9
 364 686 364 686 411 865 c 0,10,11
 509 1240 509 1240 661 1423 c 0,12,13
 749 1530 749 1530 860 1530 c 0,14,15
 944 1530 944 1530 994 1480 c 0,16,17
 1058 1416 1058 1416 1058 1281 c 0,18,19
 1058 1186 1058 1186 1029 1041 c 0,20,21
 959 688 959 688 676 272 c 1,22,23
 678 216 678 216 699 216 c 128,-1,24
 720 216 720 216 745 260 c 0,25,26
 760 286 760 286 771 319 c 1,27,-1
 1087 319 l 1,28,29
 994 144 994 144 897 62 c 128,-1,30
 800 -20 800 -20 690 -20 c 0,0,1
EndSplineSet
Validated: 1
EndChar

StartChar: trademark
Encoding: 8482 8482 151
Width: 1791
GlyphClass: 2
Flags: W
HStem: 1339 191<140 273 473 614 881.679 1065.73 1286.43 1470.68>
VStem: 273 200<798 1339> 671 200<798 1328.62> 1076 200<798 1328.53> 1481 200<798 1328.56>
LayerCount: 2
Fore
SplineSet
971 1538 m 128,-1,1
 1088 1538 1088 1538 1176 1488 c 1,2,3
 1263 1537 1263 1537 1381 1537 c 128,-1,4
 1499 1537 1499 1537 1590 1482 c 0,5,6
 1681 1426 1681 1426 1681 1303 c 2,7,-1
 1681 798 l 1,8,-1
 1491 723 l 1,9,-1
 1481 723 l 1,10,-1
 1481 1285 l 2,11,12
 1481 1315 1481 1315 1463 1329 c 0,13,14
 1440 1347 1440 1347 1378 1347 c 128,-1,15
 1316 1347 1316 1347 1295 1329 c 0,16,17
 1276 1314 1276 1314 1276 1285 c 2,18,-1
 1276 798 l 1,19,-1
 1086 723 l 1,20,-1
 1076 723 l 1,21,-1
 1076 1285 l 2,22,23
 1076 1317 1076 1317 1058 1329 c 0,24,25
 1031 1347 1031 1347 974 1347 c 0,26,27
 916 1347 916 1347 889 1329 c 0,28,29
 871 1317 871 1317 871 1285 c 2,30,-1
 871 798 l 1,31,-1
 681 723 l 1,32,-1
 671 723 l 1,33,-1
 671 1303 l 2,34,35
 671 1427 671 1427 762.5 1482.5 c 128,-1,0
 854 1538 854 1538 971 1538 c 128,-1,1
140 1530 m 1,36,-1
 686 1530 l 1,37,-1
 686 1520 l 1,38,-1
 614 1339 l 1,39,-1
 473 1339 l 1,40,-1
 473 798 l 1,41,-1
 283 723 l 1,42,-1
 273 723 l 1,43,-1
 273 1339 l 1,44,-1
 60 1339 l 1,45,-1
 60 1349 l 1,46,-1
 140 1530 l 1,36,-1
EndSplineSet
Validated: 1
EndChar

StartChar: uni2126
Encoding: 8486 8486 152
Width: 1450
GlyphClass: 2
Flags: W
HStem: 0 300<296 452 997 1154> 1230 300<534.495 915.505>
VStem: 160 320<543.313 1179.73> 970 320<536.447 1179.73>
LayerCount: 2
Fore
SplineSet
688 0 m 1,0,-1
 160 0 l 1,1,-1
 160 10 l 1,2,-1
 296 300 l 1,3,-1
 452 300 l 1,4,5
 160 372 160 372 160 671 c 2,6,-1
 160 1099 l 2,7,8
 160 1326 160 1326 328 1428 c 128,-1,9
 496 1530 496 1530 725 1530 c 128,-1,10
 954 1530 954 1530 1122 1428 c 128,-1,11
 1290 1326 1290 1326 1290 1099 c 2,12,-1
 1290 671 l 2,13,14
 1290 370 1290 370 997 300 c 1,15,-1
 1290 300 l 1,16,-1
 1290 290 l 1,17,-1
 1154 0 l 1,18,-1
 762 0 l 1,19,-1
 762 442 l 1,20,21
 970 498 970 498 970 665 c 2,22,-1
 970 1065 l 2,23,24
 970 1157 970 1157 912 1189 c 0,25,26
 837 1230 837 1230 725 1230 c 128,-1,27
 613 1230 613 1230 538 1189 c 0,28,29
 480 1157 480 1157 480 1065 c 2,30,-1
 480 665 l 2,31,32
 480 506 480 506 688 443 c 1,33,-1
 688 0 l 1,0,-1
EndSplineSet
Validated: 1
EndChar

StartChar: estimated
Encoding: 8494 8494 153
Width: 1241
GlyphClass: 2
Flags: W
HStem: -20 183<441.95 798.867> 491 189<393 845> 935 185<439.039 799.176>
VStem: 60 333<316.826 491 680 791.88>
LayerCount: 2
Fore
SplineSet
619 -20 m 0,0,1
 368 -20 368 -20 214 145 c 128,-1,2
 60 310 60 310 60 553 c 0,3,4
 60 802 60 802 216 960 c 0,5,6
 374 1120 374 1120 616 1120 c 0,7,8
 859 1120 859 1120 1007 974 c 0,9,10
 1181 802 1181 802 1181 491 c 1,11,-1
 393 491 l 1,12,-1
 393 239 l 1,13,14
 488 163 488 163 619 163 c 0,15,16
 827 163 827 163 945 351 c 1,17,-1
 1109 255 l 1,18,19
 985 85 985 85 866 32.5 c 128,-1,20
 747 -20 747 -20 619 -20 c 0,0,1
845 680 m 1,21,-1
 845 862 l 1,22,23
 747 935 747 935 617 935 c 0,24,25
 485 935 485 935 393 861 c 1,26,-1
 393 680 l 1,27,-1
 845 680 l 1,21,-1
EndSplineSet
Validated: 1
EndChar

StartChar: partialdiff
Encoding: 8706 8706 154
Width: 1325
GlyphClass: 2
Flags: W
HStem: -20 273<452.903 666.396> 823 260<577.1 826.76> 1257 273<502.596 826.913>
VStem: 110 305<291.814 617.824> 906 309<1024 1178.17>
LayerCount: 2
Fore
SplineSet
532 -20 m 0,0,1
 262 -20 262 -20 163 171 c 0,2,3
 110 273 110 273 110 416 c 0,4,5
 110 673 110 673 264 878 c 128,-1,6
 418 1083 418 1083 690 1083 c 0,7,8
 809 1083 809 1083 906 1024 c 1,9,10
 903 1115 903 1115 865 1173 c 0,11,12
 808 1257 808 1257 686 1257 c 0,13,14
 531 1257 531 1257 380 1132 c 1,15,-1
 380 1443 l 1,16,17
 526 1530 526 1530 723 1530 c 0,18,19
 1040 1530 1040 1530 1156 1271 c 0,20,21
 1215 1139 1215 1139 1215 950 c 0,22,23
 1215 563 1215 563 1032 272 c 0,24,25
 851 -20 851 -20 532 -20 c 0,0,1
879 699 m 1,26,27
 858 756 858 756 815 788 c 0,28,29
 768 823 768 823 700 823 c 0,30,31
 591 823 591 823 510 706 c 0,32,33
 415 567 415 567 415 431 c 0,34,35
 415 344 415 344 453 295 c 0,36,37
 485 253 485 253 545 253 c 0,38,39
 652 253 652 253 747 376 c 128,-1,40
 842 499 842 499 879 699 c 1,26,27
EndSplineSet
Validated: 1
EndChar

StartChar: uni2206
Encoding: 8710 8710 155
Width: 1505
GlyphClass: 2
Flags: W
HStem: 0 300<440 1056> 1510 20G<822.846 883.17>
DStem2: 5 0 440 300 0.386112 0.922452<444.694 1255.31> 875 1530 750 1049 0.378162 -0.92574<398.011 1207.11>
LayerCount: 2
Fore
SplineSet
5 0 m 1,0,-1
 591 1400 l 1,1,-1
 865 1530 l 1,2,-1
 875 1530 l 1,3,-1
 1500 0 l 1,4,-1
 5 0 l 1,0,-1
440 300 m 1,5,-1
 1056 300 l 1,6,-1
 750 1049 l 1,7,-1
 440 300 l 1,5,-1
EndSplineSet
Validated: 1
EndChar

StartChar: product
Encoding: 8719 8719 156
Width: 1440
GlyphClass: 2
Flags: W
HStem: -430 21G<160 212.177 960 1012.18> 1210 300<480 960>
VStem: 160 320<-283 1210> 960 320<-283 1210>
LayerCount: 2
Fore
SplineSet
170 -430 m 1,0,-1
 160 -430 l 1,1,-1
 160 1384 l 1,2,-1
 428 1510 l 1,3,-1
 1280 1510 l 1,4,-1
 1280 -283 l 1,5,-1
 970 -430 l 1,6,-1
 960 -430 l 1,7,-1
 960 1210 l 1,8,-1
 480 1210 l 1,9,-1
 480 -283 l 1,10,-1
 170 -430 l 1,0,-1
EndSplineSet
Validated: 1
EndChar

StartChar: summation
Encoding: 8721 8721 157
Width: 1284
GlyphClass: 2
Flags: W
HStem: -410 300<575 1038> 1210 300<578 1032>
DStem2: 60 -410 575 -110 0.462139 0.886807<504.044 1120.87> 578 1210 74 1427 0.513148 -0.8583<0 537.296>
LayerCount: 2
Fore
SplineSet
60 -410 m 1,0,-1
 578 584 l 1,1,-1
 74 1427 l 1,2,-1
 250 1510 l 1,3,-1
 1168 1510 l 1,4,-1
 1168 1500 l 1,5,-1
 1032 1210 l 1,6,-1
 578 1210 l 1,7,-1
 944 598 l 1,8,-1
 575 -110 l 1,9,-1
 1174 -110 l 1,10,-1
 1174 -120 l 1,11,-1
 1038 -410 l 1,12,-1
 60 -410 l 1,0,-1
EndSplineSet
Validated: 1
EndChar

StartChar: minus
Encoding: 8722 8722 158
Width: 1240
GlyphClass: 2
Flags: W
HStem: 620 270<235 1005>
LayerCount: 2
Fore
SplineSet
235 890 m 1,0,-1
 1130 890 l 1,1,-1
 1130 880 l 1,2,-1
 1005 620 l 1,3,-1
 110 620 l 1,4,-1
 110 630 l 1,5,-1
 235 890 l 1,0,-1
EndSplineSet
Validated: 1
EndChar

StartChar: uni2215
Encoding: 8725 8725 159
Width: 937
GlyphClass: 2
Flags: W
HStem: -20 21G<205.053 266.325> 1510 20G<671.661 732.77>
DStem2: 10 93 257 -20 0.423093 0.906086<2.11609 1585.94>
LayerCount: 2
Fore
SplineSet
247 -20 m 1,0,-1
 10 93 l 1,1,-1
 681 1530 l 1,2,-1
 691 1530 l 1,3,-1
 927 1417 l 1,4,-1
 257 -20 l 1,5,-1
 247 -20 l 1,0,-1
EndSplineSet
Validated: 1
EndChar

StartChar: uni2219
Encoding: 8729 8729 160
Width: 420
GlyphClass: 2
Flags: W
HStem: 573 365<92.1309 326.878>
VStem: 30 360<635.566 875.578>
LayerCount: 2
Fore
SplineSet
210 938 m 128,-1,1
 285 938 285 938 337.5 884.5 c 128,-1,2
 390 831 390 831 390 756 c 128,-1,3
 390 681 390 681 337 627 c 128,-1,4
 284 573 284 573 210 573 c 0,5,6
 134 573 134 573 82 627 c 128,-1,7
 30 681 30 681 30 755 c 0,8,9
 30 831 30 831 82 884 c 0,10,0
 135 938 135 938 210 938 c 128,-1,1
EndSplineSet
Validated: 1
EndChar

StartChar: radical
Encoding: 8730 8730 161
Width: 1120
GlyphClass: 2
Flags: W
HStem: -20 21G<294.255 354.222> 1510 20G<846.886 907.609>
DStem2: 429 480 578 106 0.37651 0.926413<0 1122.6>
LayerCount: 2
Fore
SplineSet
312 -20 m 1,0,-1
 302 -20 l 1,1,-1
 10 734 l 1,2,-1
 273 858 l 1,3,-1
 283 858 l 1,4,-1
 429 480 l 1,5,-1
 855 1530 l 1,6,-1
 865 1530 l 1,7,-1
 1110 1415 l 1,8,-1
 578 106 l 1,9,-1
 312 -20 l 1,0,-1
EndSplineSet
Validated: 1
EndChar

StartChar: infinity
Encoding: 8734 8734 162
Width: 1449
GlyphClass: 2
Flags: W
HStem: 385 216<364.04 586.39 862.522 1084.98> 909 216<364.025 586.39 862.259 1084.98>
VStem: 110 231<626.663 883.337> 609 231<626.663 883.337> 1108 231<626.663 883.337>
CounterMasks: 1 38
LayerCount: 2
Fore
SplineSet
974.5 601 m 128,-1,1
 1038 601 1038 601 1077 626 c 0,2,3
 1108 647 1108 647 1108 695 c 2,4,-1
 1108 815 l 2,5,6
 1108 863 1108 863 1077 884 c 0,7,8
 1038 909 1038 909 974 909 c 128,-1,9
 910 909 910 909 871 884 c 0,10,11
 840 863 840 863 840 815 c 2,12,-1
 840 695 l 2,13,14
 840 647 840 647 871 626 c 0,15,0
 911 601 911 601 974.5 601 c 128,-1,1
475.5 601 m 128,-1,17
 539 601 539 601 578 626 c 0,18,19
 609 647 609 647 609 695 c 2,20,-1
 609 815 l 2,21,22
 609 863 609 863 578 884 c 0,23,24
 539 909 539 909 475 909 c 128,-1,25
 411 909 411 909 372 884 c 0,26,27
 341 863 341 863 341 815 c 2,28,-1
 341 695 l 2,29,30
 341 647 341 647 372 626 c 0,31,16
 412 601 412 601 475.5 601 c 128,-1,17
475 1125 m 0,32,33
 616 1125 616 1125 724 1061 c 1,34,35
 832 1125 832 1125 974 1125 c 0,36,37
 1119 1125 1119 1125 1229 1057.5 c 128,-1,38
 1339 990 1339 990 1339 847 c 2,39,-1
 1339 663 l 2,40,41
 1339 520 1339 520 1229 452.5 c 128,-1,42
 1119 385 1119 385 974 385 c 0,43,44
 833 385 833 385 724 449 c 1,45,46
 616 385 616 385 475 385 c 0,47,48
 330 385 330 385 220 452.5 c 128,-1,49
 110 520 110 520 110 663 c 2,50,-1
 110 847 l 2,51,52
 110 990 110 990 220 1057.5 c 128,-1,53
 330 1125 330 1125 475 1125 c 0,32,33
EndSplineSet
Validated: 1
EndChar

StartChar: approxequal
Encoding: 8776 8776 163
Width: 1178
GlyphClass: 2
Flags: W
VStem: 110 277<392 475.875 892 975.875> 791 277<536.125 620 1036.12 1120>
LayerCount: 2
Fore
SplineSet
1058 747 m 1,0,-1
 1068 747 l 1,1,2
 1068 265 1068 265 752 265 c 0,3,4
 616 265 616 265 489 416 c 0,5,6
 453 459 453 459 444 468 c 0,7,8
 433 479 433 479 421 479 c 0,9,10
 387 479 387 479 387 392 c 1,11,-1
 120 265 l 1,12,-1
 110 265 l 1,13,14
 110 747 110 747 426 747 c 0,15,16
 562 747 562 747 689 596 c 0,17,18
 725 553 725 553 734 544 c 0,19,20
 745 533 745 533 757 533 c 0,21,22
 791 533 791 533 791 620 c 1,23,-1
 1058 747 l 1,0,-1
1058 1247 m 1,24,-1
 1068 1247 l 1,25,26
 1068 765 1068 765 752 765 c 0,27,28
 616 765 616 765 489 916 c 0,29,30
 453 959 453 959 444 968 c 0,31,32
 433 979 433 979 421 979 c 0,33,34
 387 979 387 979 387 892 c 1,35,-1
 120 765 l 1,36,-1
 110 765 l 1,37,38
 110 1247 110 1247 426 1247 c 0,39,40
 562 1247 562 1247 689 1096 c 0,41,42
 725 1053 725 1053 734 1044 c 0,43,44
 745 1033 745 1033 757 1033 c 0,45,46
 791 1033 791 1033 791 1120 c 1,47,-1
 1058 1247 l 1,24,-1
EndSplineSet
Validated: 1
EndChar

StartChar: notequal
Encoding: 8800 8800 164
Width: 1240
GlyphClass: 2
Flags: W
HStem: 390 270<235 365 660 1005> 850 270<235 579 875 1005>
DStem2: 262 170 430 166 0.422674 0.906282<67.3842 242.917 612.302 750.259 1120.07 1296.51>
LayerCount: 2
Fore
SplineSet
235 1120 m 1,0,-1
 705 1120 l 1,1,-1
 810 1345 l 1,2,-1
 969 1345 l 1,3,-1
 978 1341 l 1,4,-1
 875 1120 l 1,5,-1
 1130 1120 l 1,6,-1
 1130 1110 l 1,7,-1
 1005 850 l 1,8,-1
 749 850 l 1,9,-1
 660 660 l 1,10,-1
 1130 660 l 1,11,-1
 1130 650 l 1,12,-1
 1005 390 l 1,13,-1
 534 390 l 1,14,-1
 430 166 l 1,15,-1
 271 166 l 1,16,-1
 262 170 l 1,17,-1
 365 390 l 1,18,-1
 110 390 l 1,19,-1
 110 400 l 1,20,-1
 235 660 l 1,21,-1
 491 660 l 1,22,-1
 579 850 l 1,23,-1
 110 850 l 1,24,-1
 110 860 l 1,25,-1
 235 1120 l 1,0,-1
EndSplineSet
Validated: 1
EndChar

StartChar: lessequal
Encoding: 8804 8804 165
Width: 1355
GlyphClass: 2
Flags: W
HStem: 154 270<235 1070>
DStem2: 586 919 110 806 0.942398 -0.334493<0 620.627> 227 1059 586 919 0.937801 0.347172<288.067 915.972>
LayerCount: 2
Fore
SplineSet
235 424 m 1,0,-1
 1195 424 l 1,1,-1
 1195 414 l 1,2,-1
 1070 154 l 1,3,-1
 110 154 l 1,4,-1
 110 164 l 1,5,-1
 235 424 l 1,0,-1
110 806 m 1,6,-1
 110 816 l 1,7,-1
 227 1059 l 1,8,-1
 1086 1377 l 1,9,-1
 1195 1151 l 1,10,-1
 1195 1141 l 1,11,-1
 586 919 l 1,12,-1
 1195 707 l 1,13,-1
 1195 697 l 1,14,-1
 1082 461 l 1,15,-1
 110 806 l 1,6,-1
EndSplineSet
Validated: 1
EndChar

StartChar: greaterequal
Encoding: 8805 8805 166
Width: 1355
GlyphClass: 2
Flags: W
HStem: 154 270<285 1120>
DStem2: 273 1377 160 1131 0.942398 -0.334493<0 620.627> 160 697 269 461 0.937801 0.347172<20.2877 648.193>
LayerCount: 2
Fore
SplineSet
285 424 m 1,0,-1
 1245 424 l 1,1,-1
 1245 414 l 1,2,-1
 1120 154 l 1,3,-1
 160 154 l 1,4,-1
 160 164 l 1,5,-1
 285 424 l 1,0,-1
1245 1032 m 1,6,-1
 1245 1022 l 1,7,-1
 1128 779 l 1,8,-1
 269 461 l 1,9,-1
 160 687 l 1,10,-1
 160 697 l 1,11,-1
 769 919 l 1,12,-1
 160 1131 l 1,13,-1
 160 1141 l 1,14,-1
 273 1377 l 1,15,-1
 1245 1032 l 1,6,-1
EndSplineSet
Validated: 1
EndChar

StartChar: lozenge
Encoding: 9674 9674 167
Width: 1178
GlyphClass: 2
Flags: W
HStem: -20 21G<575.042 602.903> 1510 20G<575.641 602.409>
DStem2: 60 738 365 756 0.555427 0.831565<184.373 560.738> 365 756 60 738 0.5723 -0.820044<0 422.804> 589 1530 574 1069 0.556885 -0.83059<374.549 800.569> 608 410 589 -20 0.57078 0.821103<0 369.659>
LayerCount: 2
Fore
SplineSet
608 410 m 1,0,-1
 814 717 l 1,1,-1
 574 1069 l 1,2,-1
 365 756 l 1,3,-1
 608 410 l 1,0,-1
589 -20 m 1,4,-1
 60 738 l 1,5,-1
 589 1530 l 1,6,-1
 1118 741 l 1,7,-1
 589 -20 l 1,4,-1
EndSplineSet
Validated: 1
EndChar

StartChar: Oslash
Encoding: 216 216 168
Width: 1370
Flags: W
HStem: -40 21G<250 389.375> -20 300<541.346 875.505> 1230 300<494.495 828.638>
VStem: 120 320<390.333 1179.73> 930 320<330.27 1119.58>
DStem2: 250 -36 380 -40 0.422823 0.906212<51.3421 127.201 466.624 1334.86 1674.85 1750.14>
LayerCount: 2
Fore
SplineSet
685 -20 m 0,0,1
 534 -20 534 -20 410 24 c 1,2,-1
 380 -40 l 1,3,-1
 259 -40 l 1,4,-1
 250 -36 l 1,5,-1
 301 74 l 1,6,7
 120 188 120 188 120 411 c 2,8,-1
 120 1099 l 2,9,10
 120 1326 120 1326 288 1428 c 128,-1,11
 456 1530 456 1530 685 1530 c 0,12,13
 836 1530 836 1530 960 1486 c 1,14,-1
 990 1550 l 1,15,-1
 1111 1550 l 1,16,-1
 1120 1546 l 1,17,-1
 1069 1436 l 1,18,19
 1250 1321 1250 1321 1250 1099 c 2,20,-1
 1250 411 l 2,21,22
 1250 184 1250 184 1082 82 c 128,-1,23
 914 -20 914 -20 685 -20 c 0,0,1
685 280 m 0,24,25
 797 280 797 280 872 321 c 0,26,27
 930 353 930 353 930 445 c 2,28,-1
 930 1065 l 2,29,30
 930 1098 930 1098 923 1123 c 1,31,-1
 540 302 l 1,32,33
 602 280 602 280 685 280 c 0,24,25
447 387 m 1,34,-1
 830 1208 l 1,35,36
 767 1230 767 1230 685 1230 c 0,37,38
 573 1230 573 1230 498 1189 c 0,39,40
 440 1157 440 1157 440 1065 c 2,41,-1
 440 445 l 2,42,43
 440 412 440 412 447 387 c 1,34,-1
EndSplineSet
Validated: 1
EndChar

StartChar: oslash
Encoding: 248 248 169
Width: 1190
Flags: W
HStem: -40 21G<255 395.333> -20 280<530.083 734.684> 840 280<455.316 659.917>
VStem: 120 300<334.658 804.953> 770 300<295.047 765.373>
DStem2: 295 49 386 -40 0.423012 0.906124<-42.151 3.38371 314.506 847.238 1158.36 1203.89>
LayerCount: 2
Fore
SplineSet
595 -20 m 0,0,1
 494 -20 494 -20 407 5 c 1,2,-1
 386 -40 l 1,3,-1
 265 -40 l 1,4,-1
 255 -36 l 1,5,-1
 295 49 l 1,6,7
 279 57 279 57 263 67 c 0,8,9
 120 154 120 154 120 340 c 2,10,-1
 120 760 l 2,11,12
 120 946 120 946 263 1033 c 128,-1,13
 406 1120 406 1120 595 1120 c 0,14,15
 696 1120 696 1120 783 1095 c 1,16,-1
 804 1140 l 1,17,-1
 925 1140 l 1,18,-1
 935 1136 l 1,19,-1
 895 1051 l 1,20,21
 911 1043 911 1043 927 1033 c 0,22,23
 1070 946 1070 946 1070 760 c 2,24,-1
 1070 340 l 2,25,26
 1070 154 1070 154 927 67 c 128,-1,27
 784 -20 784 -20 595 -20 c 0,0,1
595 260 m 0,28,29
 679 260 679 260 730 293 c 0,30,31
 770 319 770 319 770 382 c 2,32,-1
 770 718 l 2,33,34
 770 746 770 746 762 766 c 1,35,-1
 529 266 l 1,36,37
 559 260 559 260 595 260 c 0,28,29
428 334 m 1,38,-1
 661 834 l 1,39,40
 631 840 631 840 595 840 c 0,41,42
 511 840 511 840 460 807 c 0,43,44
 420 781 420 781 420 718 c 2,45,-1
 420 382 l 2,46,47
 420 355 420 355 428 334 c 1,38,-1
EndSplineSet
Validated: 1
EndChar

StartChar: multiply
Encoding: 215 215 170
Width: 1232
Flags: W
DStem2: 439 1123 160 1020 0.707107 -0.707107<0 250.316 520.431 770.746> 160 490 439 387 0.707107 0.707107<124.451 374.767 644.881 895.197>
LayerCount: 2
Fore
SplineSet
1065 1027 m 1,0,-1
 1072 1020 l 1,1,-1
 807 755 l 1,2,-1
 1072 490 l 1,3,-1
 1065 483 l 1,4,-1
 793 387 l 1,5,-1
 616 564 l 1,6,-1
 439 387 l 1,7,-1
 167 483 l 1,8,-1
 160 490 l 1,9,-1
 425 755 l 1,10,-1
 160 1020 l 1,11,-1
 167 1027 l 1,12,-1
 439 1123 l 1,13,-1
 616 946 l 1,14,-1
 793 1123 l 1,15,-1
 1065 1027 l 1,0,-1
EndSplineSet
Validated: 1
EndChar

StartChar: divide
Encoding: 247 247 171
Width: 1240
Flags: W
HStem: 155 365<502.131 736.878> 620 270<235 1005> 990 365<502.131 736.878>
VStem: 440 360<217.566 457.578 1052.57 1292.58>
CounterMasks: 1 e0
LayerCount: 2
Fore
SplineSet
235 890 m 1,0,-1
 1130 890 l 1,1,-1
 1130 880 l 1,2,-1
 1005 620 l 1,3,-1
 110 620 l 1,4,-1
 110 630 l 1,5,-1
 235 890 l 1,0,-1
620 1355 m 128,-1,7
 695 1355 695 1355 747.5 1301.5 c 128,-1,8
 800 1248 800 1248 800 1173 c 128,-1,9
 800 1098 800 1098 747 1044 c 128,-1,10
 694 990 694 990 620 990 c 0,11,12
 544 990 544 990 492 1044 c 128,-1,13
 440 1098 440 1098 440 1172 c 0,14,15
 440 1248 440 1248 492 1301 c 0,16,6
 545 1355 545 1355 620 1355 c 128,-1,7
620 155 m 0,17,18
 544 155 544 155 492 209 c 128,-1,19
 440 263 440 263 440 337 c 0,20,21
 440 413 440 413 492 466 c 0,22,23
 545 520 545 520 620 520 c 128,-1,24
 695 520 695 520 747.5 466.5 c 128,-1,25
 800 413 800 413 800 338 c 128,-1,26
 800 263 800 263 747 209 c 128,-1,27
 694 155 694 155 620 155 c 0,17,18
EndSplineSet
Validated: 1
EndChar

StartChar: uni1E02
Encoding: 7682 7682 172
Width: 1290
Flags: W
HStem: 0 300<480 875.068> 686 275<480 798.429> 1225 285<480 798.275> 1590 364<533.131 767.338>
VStem: 160 320<300 686 961 1225> 471 360<1654.3 1891.73> 840 310<987.632 1198.03> 920 320<343.648 640.125>
LayerCount: 2
Fore
SplineSet
480 686 m 1,0,-1
 480 300 l 1,1,-1
 675 300 l 2,2,3
 784 300 784 300 862 335 c 0,4,5
 920 362 920 362 920 442 c 2,6,-1
 920 544 l 2,7,8
 920 623 920 623 861 651 c 0,9,10
 786 686 786 686 675 686 c 2,11,-1
 480 686 l 1,0,-1
160 0 m 1,12,-1
 160 1384 l 1,13,-1
 428 1510 l 1,14,-1
 675 1510 l 2,15,16
 869 1510 869 1510 1002 1425 c 24,17,18
 1150 1331 1150 1331 1150 1141 c 2,19,-1
 1150 1060 l 2,20,21
 1150 934 1150 934 1073 855 c 1,22,23
 1240 756 1240 756 1240 539 c 2,24,-1
 1240 430 l 2,25,26
 1240 205 1240 205 1071 102.5 c 128,-1,27
 902 0 902 0 675 0 c 2,28,-1
 160 0 l 1,12,-1
480 1225 m 1,29,-1
 480 961 l 1,30,-1
 665 961 l 2,31,32
 750 961 750 961 800 987 c 24,33,34
 840 1007 840 1007 840 1057 c 2,35,-1
 840 1129 l 2,36,37
 840 1181 840 1181 800 1199 c 0,38,39
 745 1225 745 1225 665 1225 c 2,40,-1
 480 1225 l 1,29,-1
651 1954 m 0,41,42
 727 1954 727 1954 779 1901 c 128,-1,43
 831 1848 831 1848 831 1773 c 0,44,45
 831 1699 831 1699 778 1644 c 0,46,47
 726 1590 726 1590 651 1590 c 0,48,49
 574 1590 574 1590 522.5 1644 c 128,-1,50
 471 1698 471 1698 471 1772 c 0,51,52
 471 1848 471 1848 523 1900 c 0,53,54
 576 1954 576 1954 651 1954 c 0,41,42
EndSplineSet
Validated: 1
EndChar

StartChar: uni1E03
Encoding: 7683 7683 173
Width: 1210
Flags: W
HStem: -20 280<475.316 754.684> 840 280<474.772 754.684> 1180 364<574.131 808.338> 1510 20G<387.971 440>
VStem: 140 300<293.822 806.178 1089 1392> 512 360<1244.3 1481.73> 790 300<295.047 804.953>
LayerCount: 2
Fore
SplineSet
615 260 m 128,-1,1
 699 260 699 260 750 293 c 0,2,3
 790 319 790 319 790 382 c 2,4,-1
 790 718 l 2,5,6
 790 781 790 781 750 807 c 0,7,8
 699 840 699 840 615 840 c 128,-1,9
 531 840 531 840 480 807 c 0,10,11
 440 781 440 781 440 718 c 2,12,-1
 440 382 l 2,13,14
 440 319 440 319 480 293 c 0,15,0
 531 260 531 260 615 260 c 128,-1,1
615 -20 m 128,-1,17
 426 -20 426 -20 283 67 c 0,18,19
 140 155 140 155 140 340 c 2,20,-1
 140 1392 l 1,21,-1
 430 1530 l 1,22,-1
 440 1530 l 1,23,-1
 440 1089 l 1,24,25
 520 1120 520 1120 615 1120 c 0,26,27
 804 1120 804 1120 947 1033 c 128,-1,28
 1090 946 1090 946 1090 760 c 2,29,-1
 1090 340 l 2,30,31
 1090 154 1090 154 947 67 c 128,-1,16
 804 -20 804 -20 615 -20 c 128,-1,17
692 1544 m 0,32,33
 768 1544 768 1544 820 1491 c 128,-1,34
 872 1438 872 1438 872 1363 c 0,35,36
 872 1289 872 1289 819 1234 c 0,37,38
 767 1180 767 1180 692 1180 c 0,39,40
 615 1180 615 1180 563.5 1234 c 128,-1,41
 512 1288 512 1288 512 1362 c 0,42,43
 512 1438 512 1438 564 1490 c 0,44,45
 617 1544 617 1544 692 1544 c 0,32,33
EndSplineSet
Validated: 1
EndChar

StartChar: uni1E0A
Encoding: 7690 7690 174
Width: 1390
Flags: W
HStem: 0 300<480 893.699> 1210 300<480 893.699> 1590 364<568.131 802.338>
VStem: 160 320<300 1210> 506 360<1654.3 1891.73> 950 320<350.27 1159.73>
LayerCount: 2
Fore
SplineSet
480 300 m 1,0,-1
 705 300 l 2,1,2
 818 300 818 300 892 341 c 0,3,4
 950 373 950 373 950 465 c 2,5,-1
 950 1045 l 2,6,7
 950 1137 950 1137 892 1169 c 0,8,9
 817 1210 817 1210 705 1210 c 2,10,-1
 480 1210 l 1,11,-1
 480 300 l 1,0,-1
160 0 m 1,12,-1
 160 1383 l 1,13,-1
 428 1510 l 1,14,-1
 705 1510 l 2,15,16
 934 1510 934 1510 1102 1408 c 128,-1,17
 1270 1306 1270 1306 1270 1079 c 2,18,-1
 1270 431 l 2,19,20
 1270 204 1270 204 1102 102 c 128,-1,21
 934 0 934 0 705 0 c 2,22,-1
 160 0 l 1,12,-1
686 1954 m 0,23,24
 762 1954 762 1954 814 1901 c 128,-1,25
 866 1848 866 1848 866 1773 c 0,26,27
 866 1699 866 1699 813 1644 c 0,28,29
 761 1590 761 1590 686 1590 c 0,30,31
 609 1590 609 1590 557.5 1644 c 128,-1,32
 506 1698 506 1698 506 1772 c 0,33,34
 506 1848 506 1848 558 1900 c 0,35,36
 611 1954 611 1954 686 1954 c 0,23,24
EndSplineSet
Validated: 1
EndChar

StartChar: uni1E0B
Encoding: 7691 7691 175
Width: 1210
Flags: W
HStem: -20 280<455.316 734.684> 840 280<455.316 735.228> 1180 364<390.131 624.338>
VStem: 120 300<295.047 804.953> 328 360<1244.3 1481.73> 770 300<295.047 806.178 1089 1392>
LayerCount: 2
Fore
SplineSet
595 260 m 128,-1,1
 679 260 679 260 730 293 c 0,2,3
 770 319 770 319 770 382 c 2,4,-1
 770 718 l 2,5,6
 770 781 770 781 730 807 c 0,7,8
 679 840 679 840 595 840 c 128,-1,9
 511 840 511 840 460 807 c 0,10,11
 420 781 420 781 420 718 c 2,12,-1
 420 382 l 2,13,14
 420 319 420 319 460 293 c 0,15,0
 511 260 511 260 595 260 c 128,-1,1
595 -20 m 128,-1,17
 406 -20 406 -20 263 67 c 128,-1,18
 120 154 120 154 120 340 c 2,19,-1
 120 760 l 2,20,21
 120 946 120 946 263 1033 c 128,-1,22
 406 1120 406 1120 595 1120 c 0,23,24
 690 1120 690 1120 770 1089 c 1,25,-1
 770 1392 l 1,26,-1
 1060 1530 l 1,27,-1
 1070 1530 l 1,28,-1
 1070 340 l 2,29,30
 1070 154 1070 154 927 67 c 128,-1,16
 784 -20 784 -20 595 -20 c 128,-1,17
508 1544 m 0,31,32
 584 1544 584 1544 636 1491 c 128,-1,33
 688 1438 688 1438 688 1363 c 0,34,35
 688 1289 688 1289 635 1234 c 0,36,37
 583 1180 583 1180 508 1180 c 0,38,39
 431 1180 431 1180 379.5 1234 c 128,-1,40
 328 1288 328 1288 328 1362 c 0,41,42
 328 1438 328 1438 380 1490 c 0,43,44
 433 1544 433 1544 508 1544 c 0,31,32
EndSplineSet
Validated: 1
EndChar

StartChar: uni1E1E
Encoding: 7710 7710 176
Width: 1050
Flags: W
HStem: -20 21G<160 212.177> 605 300<480 904> 1210 300<480 904> 1590 364<491.131 725.338>
VStem: 160 320<127 605 905 1210> 429 360<1654.3 1891.73>
LayerCount: 2
Fore
SplineSet
609 1954 m 0,0,1
 685 1954 685 1954 737 1901 c 128,-1,2
 789 1848 789 1848 789 1773 c 0,3,4
 789 1699 789 1699 736 1644 c 0,5,6
 684 1590 684 1590 609 1590 c 0,7,8
 532 1590 532 1590 480.5 1644 c 128,-1,9
 429 1698 429 1698 429 1772 c 0,10,11
 429 1848 429 1848 481 1900 c 0,12,13
 534 1954 534 1954 609 1954 c 0,0,1
170 -20 m 1,14,-1
 160 -20 l 1,15,-1
 160 1384 l 1,16,-1
 428 1510 l 1,17,-1
 1040 1510 l 1,18,-1
 1040 1500 l 1,19,-1
 904 1210 l 1,20,-1
 480 1210 l 1,21,-1
 480 905 l 1,22,-1
 1040 905 l 1,23,-1
 1040 895 l 1,24,-1
 904 605 l 1,25,-1
 480 605 l 1,26,-1
 480 127 l 1,27,-1
 170 -20 l 1,14,-1
EndSplineSet
Validated: 1
EndChar

StartChar: uni1E1F
Encoding: 7711 7711 177
Width: 860
Flags: W
HStem: -20 21G<140 192.029> 662 280<440 682> 1230 280<481.604 721> 1590 364<348.131 582.338>
VStem: 140 300<118 662 942 1194.95> 286 360<1654.3 1891.73>
LayerCount: 2
Fore
SplineSet
150 -20 m 1,0,-1
 140 -20 l 1,1,-1
 140 1150 l 2,2,3
 140 1336 140 1336 283 1423 c 128,-1,4
 426 1510 426 1510 615 1510 c 2,5,-1
 850 1510 l 1,6,-1
 850 1500 l 1,7,-1
 721 1230 l 1,8,-1
 626 1230 l 2,9,10
 531 1230 531 1230 480 1197 c 0,11,12
 440 1171 440 1171 440 1108 c 2,13,-1
 440 942 l 1,14,-1
 811 942 l 1,15,-1
 811 932 l 1,16,-1
 682 662 l 1,17,-1
 440 662 l 1,18,-1
 440 118 l 1,19,-1
 150 -20 l 1,0,-1
466 1954 m 0,20,21
 542 1954 542 1954 594 1901 c 128,-1,22
 646 1848 646 1848 646 1773 c 0,23,24
 646 1699 646 1699 593 1644 c 0,25,26
 541 1590 541 1590 466 1590 c 0,27,28
 389 1590 389 1590 337.5 1644 c 128,-1,29
 286 1698 286 1698 286 1772 c 0,30,31
 286 1848 286 1848 338 1900 c 0,32,33
 391 1954 391 1954 466 1954 c 0,20,21
EndSplineSet
Validated: 1
EndChar

StartChar: uni1E40
Encoding: 7744 7744 178
Width: 2220
Flags: W
HStem: -20 21G<140 192.177 950 1002.18 1760 1812.18> 1230 300<514.812 897.571 1323.08 1705.35> 1590 364<986.131 1220.34>
VStem: 140 320<127 1179.73> 924 360<1654.3 1891.73> 950 320<127 1180.06> 1760 320<127 1179.73>
LayerCount: 2
Fore
SplineSet
150 -20 m 1,0,-1
 140 -20 l 1,1,-1
 140 1099 l 2,2,3
 140 1326 140 1326 308 1428 c 128,-1,4
 476 1530 476 1530 707 1530 c 128,-1,5
 938 1530 938 1530 1110 1423 c 1,6,7
 1284 1530 1284 1530 1514 1530 c 128,-1,8
 1744 1530 1744 1530 1912 1428 c 128,-1,9
 2080 1326 2080 1326 2080 1099 c 2,10,-1
 2080 127 l 1,11,-1
 1770 -20 l 1,12,-1
 1760 -20 l 1,13,-1
 1760 1065 l 2,14,15
 1760 1157 1760 1157 1702 1189 c 0,16,17
 1627 1230 1627 1230 1515 1230 c 128,-1,18
 1403 1230 1403 1230 1328 1189 c 0,19,20
 1270 1157 1270 1157 1270 1065 c 2,21,-1
 1270 127 l 1,22,-1
 960 -20 l 1,23,-1
 950 -20 l 1,24,-1
 950 1065 l 2,25,26
 950 1157 950 1157 892 1189 c 0,27,28
 817 1230 817 1230 705 1230 c 128,-1,29
 593 1230 593 1230 518 1189 c 0,30,31
 460 1157 460 1157 460 1065 c 2,32,-1
 460 127 l 1,33,-1
 150 -20 l 1,0,-1
1104 1954 m 0,34,35
 1180 1954 1180 1954 1232 1901 c 128,-1,36
 1284 1848 1284 1848 1284 1773 c 0,37,38
 1284 1699 1284 1699 1231 1644 c 0,39,40
 1179 1590 1179 1590 1104 1590 c 0,41,42
 1027 1590 1027 1590 975.5 1644 c 128,-1,43
 924 1698 924 1698 924 1772 c 0,44,45
 924 1848 924 1848 976 1900 c 0,46,47
 1029 1954 1029 1954 1104 1954 c 0,34,35
EndSplineSet
Validated: 1
EndChar

StartChar: uni1E41
Encoding: 7745 7745 179
Width: 1880
Flags: W
HStem: -20 21G<140 192.029 790 842.029 1440 1492.03> 840 280<475.316 755.498 1124.5 1404.68> 1180 364<814.131 1048.34>
VStem: 140 300<118 804.953> 752 360<1244.3 1481.73> 790 300<118 806.178> 1440 300<118 804.953>
LayerCount: 2
Fore
SplineSet
150 -20 m 1,0,-1
 140 -20 l 1,1,-1
 140 760 l 2,2,3
 140 946 140 946 283 1033 c 128,-1,4
 426 1120 426 1120 615 1120 c 0,5,6
 799 1120 799 1120 940 1037 c 1,7,8
 1081 1120 1081 1120 1265 1120 c 0,9,10
 1454 1120 1454 1120 1597 1033 c 128,-1,11
 1740 946 1740 946 1740 760 c 2,12,-1
 1740 118 l 1,13,-1
 1450 -20 l 1,14,-1
 1440 -20 l 1,15,-1
 1440 718 l 2,16,17
 1440 781 1440 781 1400 807 c 0,18,19
 1349 840 1349 840 1265 840 c 128,-1,20
 1181 840 1181 840 1130 807 c 0,21,22
 1090 781 1090 781 1090 718 c 2,23,-1
 1090 118 l 1,24,-1
 800 -20 l 1,25,-1
 790 -20 l 1,26,-1
 790 718 l 2,27,28
 790 781 790 781 750 807 c 0,29,30
 699 840 699 840 615 840 c 128,-1,31
 531 840 531 840 480 807 c 0,32,33
 440 781 440 781 440 718 c 2,34,-1
 440 118 l 1,35,-1
 150 -20 l 1,0,-1
932 1544 m 0,36,37
 1008 1544 1008 1544 1060 1491 c 128,-1,38
 1112 1438 1112 1438 1112 1363 c 0,39,40
 1112 1289 1112 1289 1059 1234 c 0,41,42
 1007 1180 1007 1180 932 1180 c 0,43,44
 855 1180 855 1180 803.5 1234 c 128,-1,45
 752 1288 752 1288 752 1362 c 0,46,47
 752 1438 752 1438 804 1490 c 0,48,49
 857 1544 857 1544 932 1544 c 0,36,37
EndSplineSet
Validated: 1
EndChar

StartChar: uni1E56
Encoding: 7766 7766 180
Width: 1270
Flags: W
HStem: -20 21G<160 212.177> 440 300<480 863.699> 1210 300<480 863.699> 1590 364<524.131 758.338>
VStem: 160 320<127 440 740 1210> 462 360<1654.3 1891.73> 920 320<790.27 1159.73>
LayerCount: 2
Fore
SplineSet
170 -20 m 1,0,-1
 160 -20 l 1,1,-1
 160 1383 l 1,2,-1
 428 1510 l 1,3,-1
 675 1510 l 2,4,5
 904 1510 904 1510 1072 1408 c 128,-1,6
 1240 1306 1240 1306 1240 1079 c 2,7,-1
 1240 871 l 2,8,9
 1240 644 1240 644 1072 542 c 128,-1,10
 904 440 904 440 675 440 c 2,11,-1
 480 440 l 1,12,-1
 480 127 l 1,13,-1
 170 -20 l 1,0,-1
480 1210 m 1,14,-1
 480 740 l 1,15,-1
 675 740 l 2,16,17
 788 740 788 740 862 781 c 0,18,19
 920 813 920 813 920 905 c 2,20,-1
 920 1045 l 2,21,22
 920 1137 920 1137 862 1169 c 0,23,24
 787 1210 787 1210 675 1210 c 2,25,-1
 480 1210 l 1,14,-1
642 1954 m 0,26,27
 718 1954 718 1954 770 1901 c 128,-1,28
 822 1848 822 1848 822 1773 c 0,29,30
 822 1699 822 1699 769 1644 c 0,31,32
 717 1590 717 1590 642 1590 c 0,33,34
 565 1590 565 1590 513.5 1644 c 128,-1,35
 462 1698 462 1698 462 1772 c 0,36,37
 462 1848 462 1848 514 1900 c 0,38,39
 567 1954 567 1954 642 1954 c 0,26,27
EndSplineSet
Validated: 19457
EndChar

StartChar: uni1E57
Encoding: 7767 7767 181
Width: 1210
Flags: W
HStem: -430 21G<140 192.029> -20 280<474.772 754.684> 840 280<475.316 754.684> 1180 364<495.131 729.338>
VStem: 140 300<-292 11 293.822 804.953> 433 360<1244.3 1481.73> 790 300<295.047 804.953>
LayerCount: 2
Fore
SplineSet
615 840 m 128,-1,1
 531 840 531 840 480 807 c 0,2,3
 440 781 440 781 440 718 c 2,4,-1
 440 382 l 2,5,6
 440 319 440 319 480 293 c 0,7,8
 531 260 531 260 615 260 c 128,-1,9
 699 260 699 260 750 293 c 0,10,11
 790 319 790 319 790 382 c 2,12,-1
 790 718 l 2,13,14
 790 781 790 781 750 807 c 0,15,0
 699 840 699 840 615 840 c 128,-1,1
615 -20 m 0,16,17
 520 -20 520 -20 440 11 c 1,18,-1
 440 -292 l 1,19,-1
 150 -430 l 1,20,-1
 140 -430 l 1,21,-1
 140 760 l 2,22,23
 140 946 140 946 283 1033 c 128,-1,24
 426 1120 426 1120 615 1120 c 128,-1,25
 804 1120 804 1120 947 1033 c 128,-1,26
 1090 946 1090 946 1090 760 c 2,27,-1
 1090 340 l 2,28,29
 1090 154 1090 154 947 67 c 128,-1,30
 804 -20 804 -20 615 -20 c 0,16,17
613 1544 m 0,31,32
 689 1544 689 1544 741 1491 c 128,-1,33
 793 1438 793 1438 793 1363 c 0,34,35
 793 1289 793 1289 740 1234 c 0,36,37
 688 1180 688 1180 613 1180 c 0,38,39
 536 1180 536 1180 484.5 1234 c 128,-1,40
 433 1288 433 1288 433 1362 c 0,41,42
 433 1438 433 1438 485 1490 c 0,43,44
 538 1544 538 1544 613 1544 c 0,31,32
EndSplineSet
Validated: 1
EndChar

StartChar: uni1E6A
Encoding: 7786 7786 182
Width: 1190
Flags: W
HStem: -20 21G<435 487.466> 1210 300<146 435 755 1044> 1590 364<471.131 705.338>
VStem: 409 360<1654.3 1891.73> 435 320<126 1210>
LayerCount: 2
Fore
SplineSet
589 1954 m 0,0,1
 665 1954 665 1954 717 1901 c 128,-1,2
 769 1848 769 1848 769 1773 c 0,3,4
 769 1699 769 1699 716 1644 c 0,5,6
 664 1590 664 1590 589 1590 c 0,7,8
 512 1590 512 1590 460.5 1644 c 128,-1,9
 409 1698 409 1698 409 1772 c 0,10,11
 409 1848 409 1848 461 1900 c 0,12,13
 514 1954 514 1954 589 1954 c 0,0,1
445 -20 m 1,14,-1
 435 -20 l 1,15,-1
 435 1210 l 1,16,-1
 10 1210 l 1,17,-1
 10 1220 l 1,18,-1
 146 1510 l 1,19,-1
 1180 1510 l 1,20,-1
 1180 1500 l 1,21,-1
 1044 1210 l 1,22,-1
 755 1210 l 1,23,-1
 755 126 l 1,24,-1
 445 -20 l 1,14,-1
EndSplineSet
Validated: 1
EndChar

StartChar: uni1E6B
Encoding: 7787 7787 183
Width: 890
Flags: W
HStem: -20 21G<300 352.105> 820 280<139 300 590 751> 1510 20G<537.895 590> 1590 364<327.131 561.338>
VStem: 265 360<1654.3 1891.73> 300 290<113 820 1100 1397>
LayerCount: 2
Fore
SplineSet
310 -20 m 1,0,-1
 300 -20 l 1,1,-1
 300 820 l 1,2,-1
 10 820 l 1,3,-1
 10 830 l 1,4,-1
 139 1100 l 1,5,-1
 300 1100 l 1,6,-1
 300 1397 l 1,7,-1
 580 1530 l 1,8,-1
 590 1530 l 1,9,-1
 590 1100 l 1,10,-1
 880 1100 l 1,11,-1
 880 1090 l 1,12,-1
 751 820 l 1,13,-1
 590 820 l 1,14,-1
 590 113 l 1,15,-1
 310 -20 l 1,0,-1
445 1954 m 0,16,17
 521 1954 521 1954 573 1901 c 128,-1,18
 625 1848 625 1848 625 1773 c 0,19,20
 625 1699 625 1699 572 1644 c 0,21,22
 520 1590 520 1590 445 1590 c 0,23,24
 368 1590 368 1590 316.5 1644 c 128,-1,25
 265 1698 265 1698 265 1772 c 0,26,27
 265 1848 265 1848 317 1900 c 0,28,29
 370 1954 370 1954 445 1954 c 0,16,17
EndSplineSet
Validated: 1
EndChar

StartChar: uni1E60
Encoding: 7776 7776 184
Width: 1170
Flags: W
HStem: -20 279<399.22 750.45> 676 317<465.536 755.65> 1261 269<456.756 708.02> 1590 364<451.131 685.338>
VStem: 118 310<1022.67 1231.27> 389 360<1654.3 1891.73> 800 320<305.719 629.61>
LayerCount: 2
Fore
SplineSet
574 -20 m 128,-1,1
 366 -20 366 -20 204 79 c 0,2,3
 41 179 41 179 30 379 c 1,4,-1
 340 526 l 1,5,-1
 350 526 l 1,6,-1
 350 411 l 2,7,8
 350 327 350 327 408 297 c 0,9,10
 481 259 481 259 575 259 c 128,-1,11
 669 259 669 259 742 297 c 0,12,13
 800 328 800 328 800 411 c 2,14,-1
 800 523 l 2,15,16
 800 608 800 608 746 638 c 0,17,18
 678 676 678 676 583 676 c 0,19,20
 418 676 418 676 261 774 c 0,21,22
 118 863 118 863 118 1055 c 2,23,-1
 118 1161 l 2,24,25
 118 1351 118 1351 260.5 1440.5 c 128,-1,26
 403 1530 403 1530 583 1530 c 128,-1,27
 763 1530 763 1530 897 1446 c 0,28,29
 1035 1359 1035 1359 1047 1203 c 1,30,-1
 748 1061 l 1,31,-1
 738 1061 l 1,32,-1
 738 1148 l 2,33,34
 738 1211 738 1211 701 1232 c 0,35,36
 651 1261 651 1261 586 1261 c 0,37,38
 509 1261 509 1261 464 1232 c 0,39,40
 428 1209 428 1209 428 1148 c 2,41,-1
 428 1106 l 2,42,43
 428 1043 428 1043 464 1022 c 0,44,45
 513 993 513 993 582 993 c 0,46,47
 790 993 790 993 955 890.5 c 128,-1,48
 1120 788 1120 788 1120 562 c 2,49,-1
 1120 411 l 2,50,51
 1120 185 1120 185 951 82.5 c 128,-1,0
 782 -20 782 -20 574 -20 c 128,-1,1
569 1954 m 0,52,53
 645 1954 645 1954 697 1901 c 128,-1,54
 749 1848 749 1848 749 1773 c 0,55,56
 749 1699 749 1699 696 1644 c 0,57,58
 644 1590 644 1590 569 1590 c 0,59,60
 492 1590 492 1590 440.5 1644 c 128,-1,61
 389 1698 389 1698 389 1772 c 0,62,63
 389 1848 389 1848 441 1900 c 0,64,65
 494 1954 494 1954 569 1954 c 0,52,53
EndSplineSet
Validated: 19457
EndChar

StartChar: uni1E61
Encoding: 7777 7777 185
Width: 958
Flags: W
HStem: -20 244<345.44 588.57> 453 264<395.7 602.558> 887 233<388.663 555.635> 1180 364<342.131 576.338>
VStem: 89 284<735.534 867.919> 280 360<1244.3 1481.73> 618 300<249.79 432.848>
LayerCount: 2
Fore
SplineSet
469.5 -20 m 128,-1,1
 289 -20 289 -20 160 68 c 0,2,3
 32 155 32 155 20 288 c 1,4,-1
 307 423 l 1,5,-1
 317 423 l 1,6,-1
 317 334 l 2,7,8
 317 273 317 273 353 252 c 0,9,10
 402 224 402 224 472 224 c 128,-1,11
 542 224 542 224 580 249 c 128,-1,12
 618 274 618 274 618 334 c 2,13,-1
 618 359 l 2,14,15
 618 453 618 453 486 453 c 0,16,17
 318 453 318 453 203.5 530.5 c 128,-1,18
 89 608 89 608 89 768 c 2,19,-1
 89 805 l 2,20,21
 89 967 89 967 206 1043.5 c 128,-1,22
 323 1120 323 1120 478.5 1120 c 128,-1,23
 634 1120 634 1120 746 1044 c 0,24,25
 855 969 855 969 865 869 c 1,26,-1
 586 736 l 1,27,-1
 576 736 l 1,28,-1
 576 811 l 2,29,30
 576 854 576 854 545 873 c 0,31,32
 522 887 522 887 478 887 c 0,33,34
 419 887 419 887 396 868.5 c 128,-1,35
 373 850 373 850 373 821 c 2,36,-1
 373 781 l 2,37,38
 373 752 373 752 395 735 c 0,39,40
 417 717 417 717 492 717 c 0,41,42
 669 717 669 717 794 628 c 0,43,44
 918 540 918 540 918 373 c 2,45,-1
 918 340 l 2,46,47
 918 155 918 155 784 67.5 c 128,-1,0
 650 -20 650 -20 469.5 -20 c 128,-1,1
460 1544 m 0,48,49
 536 1544 536 1544 588 1491 c 128,-1,50
 640 1438 640 1438 640 1363 c 0,51,52
 640 1289 640 1289 587 1234 c 0,53,54
 535 1180 535 1180 460 1180 c 0,55,56
 383 1180 383 1180 331.5 1234 c 128,-1,57
 280 1288 280 1288 280 1362 c 0,58,59
 280 1438 280 1438 332 1490 c 0,60,61
 385 1544 385 1544 460 1544 c 0,48,49
EndSplineSet
Validated: 1
EndChar

StartChar: Wgrave
Encoding: 7808 7808 186
Width: 2220
Flags: W
HStem: -20 300<514.654 896.921 1322.43 1705.19> 1510 20G<407.823 460 1217.82 1270 2027.82 2080>
VStem: 140 320<330.27 1383> 950 320<329.938 1383> 1760 320<330.27 1383>
DStem2: 1090 1980 900 1895 0.429396 -0.903116<0 356.108>
CounterMasks: 1 38
LayerCount: 2
Fore
SplineSet
706 -20 m 128,-1,1
 476 -20 476 -20 308 82 c 128,-1,2
 140 184 140 184 140 411 c 2,3,-1
 140 1383 l 1,4,-1
 450 1530 l 1,5,-1
 460 1530 l 1,6,-1
 460 445 l 2,7,8
 460 353 460 353 518 321 c 0,9,10
 593 280 593 280 705 280 c 128,-1,11
 817 280 817 280 892 321 c 0,12,13
 950 353 950 353 950 445 c 2,14,-1
 950 1383 l 1,15,-1
 1260 1530 l 1,16,-1
 1270 1530 l 1,17,-1
 1270 445 l 2,18,19
 1270 353 1270 353 1328 321 c 0,20,21
 1403 280 1403 280 1515 280 c 128,-1,22
 1627 280 1627 280 1702 321 c 0,23,24
 1760 353 1760 353 1760 445 c 2,25,-1
 1760 1383 l 1,26,-1
 2070 1530 l 1,27,-1
 2080 1530 l 1,28,-1
 2080 411 l 2,29,30
 2080 184 2080 184 1912 82 c 128,-1,31
 1744 -20 1744 -20 1513 -20 c 128,-1,32
 1282 -20 1282 -20 1110 87 c 1,33,0
 936 -20 936 -20 706 -20 c 128,-1,1
1080 1980 m 1,34,-1
 1090 1980 l 1,35,-1
 1245 1654 l 1,36,-1
 1067 1570 l 1,37,-1
 1057 1570 l 1,38,-1
 900 1895 l 1,39,-1
 1080 1980 l 1,34,-1
EndSplineSet
Validated: 1
EndChar

StartChar: wgrave
Encoding: 7809 7809 187
Width: 1880
Flags: W
HStem: -20 280<475.316 755.498 1124.5 1404.68> 1100 20G<387.971 440 1037.97 1090 1687.97 1740>
VStem: 140 300<295.047 982> 790 300<293.822 982> 1440 300<295.047 982>
DStem2: 909 1570 719 1485 0.429396 -0.903116<0 356.108>
CounterMasks: 1 38
LayerCount: 2
Fore
SplineSet
615 -20 m 0,0,1
 426 -20 426 -20 283 67 c 128,-1,2
 140 154 140 154 140 340 c 2,3,-1
 140 982 l 1,4,-1
 430 1120 l 1,5,-1
 440 1120 l 1,6,-1
 440 382 l 2,7,8
 440 319 440 319 480 293 c 0,9,10
 531 260 531 260 615 260 c 128,-1,11
 699 260 699 260 750 293 c 0,12,13
 790 319 790 319 790 382 c 2,14,-1
 790 982 l 1,15,-1
 1080 1120 l 1,16,-1
 1090 1120 l 1,17,-1
 1090 382 l 2,18,19
 1090 319 1090 319 1130 293 c 0,20,21
 1181 260 1181 260 1265 260 c 128,-1,22
 1349 260 1349 260 1400 293 c 0,23,24
 1440 319 1440 319 1440 382 c 2,25,-1
 1440 982 l 1,26,-1
 1730 1120 l 1,27,-1
 1740 1120 l 1,28,-1
 1740 340 l 2,29,30
 1740 154 1740 154 1597 67 c 128,-1,31
 1454 -20 1454 -20 1265 -20 c 0,32,33
 1081 -20 1081 -20 940 63 c 1,34,35
 799 -20 799 -20 615 -20 c 0,0,1
899 1570 m 1,36,-1
 909 1570 l 1,37,-1
 1064 1244 l 1,38,-1
 886 1160 l 1,39,-1
 876 1160 l 1,40,-1
 719 1485 l 1,41,-1
 899 1570 l 1,36,-1
EndSplineSet
Validated: 1
EndChar

StartChar: Wacute
Encoding: 7810 7810 188
Width: 2220
Flags: W
HStem: -20 300<514.654 896.921 1322.43 1705.19> 1510 20G<407.823 460 1217.82 1270 2027.82 2080>
VStem: 140 320<330.27 1383> 950 320<329.938 1383> 1760 320<330.27 1383>
DStem2: 946 1654 1134 1570 0.429396 0.903116<4.86464 360.972>
CounterMasks: 1 38
LayerCount: 2
Fore
SplineSet
706 -20 m 128,-1,1
 476 -20 476 -20 308 82 c 128,-1,2
 140 184 140 184 140 411 c 2,3,-1
 140 1383 l 1,4,-1
 450 1530 l 1,5,-1
 460 1530 l 1,6,-1
 460 445 l 2,7,8
 460 353 460 353 518 321 c 0,9,10
 593 280 593 280 705 280 c 128,-1,11
 817 280 817 280 892 321 c 0,12,13
 950 353 950 353 950 445 c 2,14,-1
 950 1383 l 1,15,-1
 1260 1530 l 1,16,-1
 1270 1530 l 1,17,-1
 1270 445 l 2,18,19
 1270 353 1270 353 1328 321 c 0,20,21
 1403 280 1403 280 1515 280 c 128,-1,22
 1627 280 1627 280 1702 321 c 0,23,24
 1760 353 1760 353 1760 445 c 2,25,-1
 1760 1383 l 1,26,-1
 2070 1530 l 1,27,-1
 2080 1530 l 1,28,-1
 2080 411 l 2,29,30
 2080 184 2080 184 1912 82 c 128,-1,31
 1744 -20 1744 -20 1513 -20 c 128,-1,32
 1282 -20 1282 -20 1110 87 c 1,33,0
 936 -20 936 -20 706 -20 c 128,-1,1
1111 1980 m 1,34,-1
 1291 1895 l 1,35,-1
 1134 1570 l 1,36,-1
 1124 1570 l 1,37,-1
 946 1654 l 1,38,-1
 1101 1980 l 1,39,-1
 1111 1980 l 1,34,-1
EndSplineSet
Validated: 1
EndChar

StartChar: wacute
Encoding: 7811 7811 189
Width: 1880
Flags: W
HStem: -20 280<475.316 755.498 1124.5 1404.68> 1100 20G<387.971 440 1037.97 1090 1687.97 1740>
VStem: 140 300<295.047 982> 790 300<293.822 982> 1440 300<295.047 982>
DStem2: 766 1244 954 1160 0.429396 0.903116<4.86464 360.972>
CounterMasks: 1 38
LayerCount: 2
Fore
SplineSet
615 -20 m 0,0,1
 426 -20 426 -20 283 67 c 128,-1,2
 140 154 140 154 140 340 c 2,3,-1
 140 982 l 1,4,-1
 430 1120 l 1,5,-1
 440 1120 l 1,6,-1
 440 382 l 2,7,8
 440 319 440 319 480 293 c 0,9,10
 531 260 531 260 615 260 c 128,-1,11
 699 260 699 260 750 293 c 0,12,13
 790 319 790 319 790 382 c 2,14,-1
 790 982 l 1,15,-1
 1080 1120 l 1,16,-1
 1090 1120 l 1,17,-1
 1090 382 l 2,18,19
 1090 319 1090 319 1130 293 c 0,20,21
 1181 260 1181 260 1265 260 c 128,-1,22
 1349 260 1349 260 1400 293 c 0,23,24
 1440 319 1440 319 1440 382 c 2,25,-1
 1440 982 l 1,26,-1
 1730 1120 l 1,27,-1
 1740 1120 l 1,28,-1
 1740 340 l 2,29,30
 1740 154 1740 154 1597 67 c 128,-1,31
 1454 -20 1454 -20 1265 -20 c 0,32,33
 1081 -20 1081 -20 940 63 c 1,34,35
 799 -20 799 -20 615 -20 c 0,0,1
931 1570 m 1,36,-1
 1111 1485 l 1,37,-1
 954 1160 l 1,38,-1
 944 1160 l 1,39,-1
 766 1244 l 1,40,-1
 921 1570 l 1,41,-1
 931 1570 l 1,36,-1
EndSplineSet
Validated: 1
EndChar

StartChar: Wdieresis
Encoding: 7812 7812 190
Width: 2220
Flags: W
HStem: -20 300<514.654 896.921 1322.43 1705.19> 1510 20G<407.823 460 1217.82 1270 2027.82 2080> 1620 297<821.833 1025.65 1159.83 1364.17>
VStem: 140 320<330.27 1383> 778 292<1665.38 1871.62> 950 320<329.938 1383> 1116 292<1665.38 1871.62> 1760 320<330.27 1383>
LayerCount: 2
Fore
SplineSet
706 -20 m 128,-1,1
 476 -20 476 -20 308 82 c 128,-1,2
 140 184 140 184 140 411 c 2,3,-1
 140 1383 l 1,4,-1
 450 1530 l 1,5,-1
 460 1530 l 1,6,-1
 460 445 l 2,7,8
 460 353 460 353 518 321 c 0,9,10
 593 280 593 280 705 280 c 128,-1,11
 817 280 817 280 892 321 c 0,12,13
 950 353 950 353 950 445 c 2,14,-1
 950 1383 l 1,15,-1
 1260 1530 l 1,16,-1
 1270 1530 l 1,17,-1
 1270 445 l 2,18,19
 1270 353 1270 353 1328 321 c 0,20,21
 1403 280 1403 280 1515 280 c 128,-1,22
 1627 280 1627 280 1702 321 c 0,23,24
 1760 353 1760 353 1760 445 c 2,25,-1
 1760 1383 l 1,26,-1
 2070 1530 l 1,27,-1
 2080 1530 l 1,28,-1
 2080 411 l 2,29,30
 2080 184 2080 184 1912 82 c 128,-1,31
 1744 -20 1744 -20 1513 -20 c 128,-1,32
 1282 -20 1282 -20 1110 87 c 1,33,0
 936 -20 936 -20 706 -20 c 128,-1,1
1262.5 1917 m 128,-1,35
 1323 1917 1323 1917 1365.5 1873 c 128,-1,36
 1408 1829 1408 1829 1408 1768.5 c 128,-1,37
 1408 1708 1408 1708 1365.5 1664 c 128,-1,38
 1323 1620 1323 1620 1262 1620 c 128,-1,39
 1201 1620 1201 1620 1158.5 1664 c 128,-1,40
 1116 1708 1116 1708 1116 1768 c 0,41,42
 1116 1829 1116 1829 1159 1872 c 0,43,34
 1202 1917 1202 1917 1262.5 1917 c 128,-1,35
923.5 1917 m 128,-1,45
 984 1917 984 1917 1027 1873 c 128,-1,46
 1070 1829 1070 1829 1070 1768.5 c 128,-1,47
 1070 1708 1070 1708 1027 1664 c 128,-1,48
 984 1620 984 1620 924 1620 c 0,49,50
 863 1620 863 1620 820.5 1664 c 128,-1,51
 778 1708 778 1708 778 1768 c 0,52,53
 778 1829 778 1829 820 1872 c 0,54,44
 863 1917 863 1917 923.5 1917 c 128,-1,45
EndSplineSet
Validated: 1
EndChar

StartChar: wdieresis
Encoding: 7813 7813 191
Width: 1880
Flags: W
HStem: -20 280<475.316 755.498 1124.5 1404.68> 1100 20G<387.971 440 1037.97 1090 1687.97 1740> 1210 297<657.833 861.652 995.833 1200.17>
VStem: 140 300<295.047 982> 614 292<1255.38 1461.62> 790 300<293.822 982> 952 292<1255.38 1461.62> 1440 300<295.047 982>
LayerCount: 2
Fore
SplineSet
615 -20 m 0,0,1
 426 -20 426 -20 283 67 c 128,-1,2
 140 154 140 154 140 340 c 2,3,-1
 140 982 l 1,4,-1
 430 1120 l 1,5,-1
 440 1120 l 1,6,-1
 440 382 l 2,7,8
 440 319 440 319 480 293 c 0,9,10
 531 260 531 260 615 260 c 128,-1,11
 699 260 699 260 750 293 c 0,12,13
 790 319 790 319 790 382 c 2,14,-1
 790 982 l 1,15,-1
 1080 1120 l 1,16,-1
 1090 1120 l 1,17,-1
 1090 382 l 2,18,19
 1090 319 1090 319 1130 293 c 0,20,21
 1181 260 1181 260 1265 260 c 128,-1,22
 1349 260 1349 260 1400 293 c 0,23,24
 1440 319 1440 319 1440 382 c 2,25,-1
 1440 982 l 1,26,-1
 1730 1120 l 1,27,-1
 1740 1120 l 1,28,-1
 1740 340 l 2,29,30
 1740 154 1740 154 1597 67 c 128,-1,31
 1454 -20 1454 -20 1265 -20 c 0,32,33
 1081 -20 1081 -20 940 63 c 1,34,35
 799 -20 799 -20 615 -20 c 0,0,1
1098.5 1507 m 128,-1,37
 1159 1507 1159 1507 1201.5 1463 c 128,-1,38
 1244 1419 1244 1419 1244 1358.5 c 128,-1,39
 1244 1298 1244 1298 1201.5 1254 c 128,-1,40
 1159 1210 1159 1210 1098 1210 c 128,-1,41
 1037 1210 1037 1210 994.5 1254 c 128,-1,42
 952 1298 952 1298 952 1358 c 0,43,44
 952 1419 952 1419 995 1462 c 0,45,36
 1038 1507 1038 1507 1098.5 1507 c 128,-1,37
759.5 1507 m 128,-1,47
 820 1507 820 1507 863 1463 c 128,-1,48
 906 1419 906 1419 906 1358.5 c 128,-1,49
 906 1298 906 1298 863 1254 c 128,-1,50
 820 1210 820 1210 760 1210 c 0,51,52
 699 1210 699 1210 656.5 1254 c 128,-1,53
 614 1298 614 1298 614 1358 c 0,54,55
 614 1419 614 1419 656 1462 c 0,56,46
 699 1507 699 1507 759.5 1507 c 128,-1,47
EndSplineSet
Validated: 1
EndChar

StartChar: Ygrave
Encoding: 7922 7922 192
Width: 1270
Flags: W
HStem: -20 21G<475 527.177> 1510 20G<347.823 400 1137.82 1190>
VStem: 80 320<733.27 1383> 475 320<127 407.402> 870 320<733.27 1383>
DStem2: 688 1980 498 1895 0.429396 -0.903116<0 356.108>
CounterMasks: 1 38
LayerCount: 2
Fore
SplineSet
485 -20 m 1,0,-1
 475 -20 l 1,1,-1
 475 398 l 1,2,3
 352 422 352 422 248 485 c 0,4,5
 80 587 80 587 80 814 c 2,6,-1
 80 1383 l 1,7,-1
 390 1530 l 1,8,-1
 400 1530 l 1,9,-1
 400 848 l 2,10,11
 400 756 400 756 458 724 c 0,12,13
 533 683 533 683 635 683 c 128,-1,14
 737 683 737 683 812 724 c 0,15,16
 870 756 870 756 870 848 c 2,17,-1
 870 1383 l 1,18,-1
 1180 1530 l 1,19,-1
 1190 1530 l 1,20,-1
 1190 814 l 2,21,22
 1190 587 1190 587 1022 485 c 0,23,24
 918 422 918 422 795 398 c 1,25,-1
 795 127 l 1,26,-1
 485 -20 l 1,0,-1
678 1980 m 1,27,-1
 688 1980 l 1,28,-1
 843 1654 l 1,29,-1
 665 1570 l 1,30,-1
 655 1570 l 1,31,-1
 498 1895 l 1,32,-1
 678 1980 l 1,27,-1
EndSplineSet
Validated: 1
EndChar

StartChar: ygrave
Encoding: 7923 7923 193
Width: 1250
Flags: W
HStem: -410 250<395 748.396> -20 280<475.316 755.512> 1100 20G<387.971 440 1037.97 1090>
VStem: 140 300<295.047 982> 790 300<-126.178 11 293.822 982>
DStem2: 649 1570 459 1485 0.429396 -0.903116<0 356.108>
LayerCount: 2
Fore
SplineSet
280 -410 m 1,0,-1
 280 -400 l 1,1,-1
 395 -160 l 1,2,-1
 604 -160 l 2,3,4
 699 -160 699 -160 750 -127 c 0,5,6
 790 -101 790 -101 790 -38 c 2,7,-1
 790 11 l 1,8,9
 712 -20 712 -20 615 -20 c 0,10,11
 426 -20 426 -20 283 67 c 128,-1,12
 140 154 140 154 140 340 c 2,13,-1
 140 982 l 1,14,-1
 430 1120 l 1,15,-1
 440 1120 l 1,16,-1
 440 382 l 2,17,18
 440 319 440 319 480 293 c 0,19,20
 531 260 531 260 615 260 c 128,-1,21
 699 260 699 260 750 293 c 0,22,23
 790 319 790 319 790 382 c 2,24,-1
 790 982 l 1,25,-1
 1080 1120 l 1,26,-1
 1090 1120 l 1,27,-1
 1090 -50 l 2,28,29
 1090 -236 1090 -236 947 -323 c 128,-1,30
 804 -410 804 -410 615 -410 c 2,31,-1
 280 -410 l 1,0,-1
639 1570 m 1,32,-1
 649 1570 l 1,33,-1
 804 1244 l 1,34,-1
 626 1160 l 1,35,-1
 616 1160 l 1,36,-1
 459 1485 l 1,37,-1
 639 1570 l 1,32,-1
EndSplineSet
Validated: 1
EndChar

StartChar: AE
Encoding: 198 198 194
Width: 1728
Flags: W
HStem: -20 21G<140 192.177> 0 300<1108 1582> 605 300<460 788 1108 1532> 1210 300<1108 1532> 1230 300<514.495 787.143>
VStem: 140 320<127 605 905 1179.73> 788 320<300 605 905 1210>
LayerCount: 2
Fore
SplineSet
1582 0 m 1,0,-1
 788 0 l 1,1,-1
 788 605 l 1,2,-1
 460 605 l 1,3,-1
 460 127 l 1,4,-1
 150 -20 l 1,5,-1
 140 -20 l 1,6,-1
 140 1099 l 2,7,8
 140 1326 140 1326 308 1428 c 128,-1,9
 476 1530 476 1530 705 1530 c 0,10,11
 810 1530 810 1530 898 1510 c 1,12,-1
 1668 1510 l 1,13,-1
 1668 1500 l 1,14,-1
 1532 1210 l 1,15,-1
 1108 1210 l 1,16,-1
 1108 905 l 1,17,-1
 1668 905 l 1,18,-1
 1668 895 l 1,19,-1
 1532 605 l 1,20,-1
 1108 605 l 1,21,-1
 1108 300 l 1,22,-1
 1718 300 l 1,23,-1
 1718 290 l 1,24,-1
 1582 0 l 1,0,-1
788 1224 m 1,25,26
 749 1230 749 1230 705 1230 c 0,27,28
 593 1230 593 1230 518 1189 c 0,29,30
 460 1157 460 1157 460 1065 c 2,31,-1
 460 905 l 1,32,-1
 788 905 l 1,33,-1
 788 1224 l 1,25,26
EndSplineSet
Validated: 1
EndChar

StartChar: Eth
Encoding: 208 208 195
Width: 1390
Flags: W
HStem: 0 300<480 893.699> 665 180<81 160 480 724> 1210 300<480 893.699>
VStem: 160 320<300 665 845 1210> 950 320<350.27 1159.73>
CounterMasks: 1 e0
LayerCount: 2
Fore
SplineSet
160 0 m 1,0,-1
 160 665 l 1,1,-1
 0 665 l 1,2,-1
 0 675 l 1,3,-1
 81 845 l 1,4,-1
 160 845 l 1,5,-1
 160 1383 l 1,6,-1
 428 1510 l 1,7,-1
 705 1510 l 2,8,9
 934 1510 934 1510 1102 1408 c 128,-1,10
 1270 1306 1270 1306 1270 1079 c 2,11,-1
 1270 431 l 2,12,13
 1270 204 1270 204 1102 102 c 128,-1,14
 934 0 934 0 705 0 c 2,15,-1
 160 0 l 1,0,-1
480 300 m 1,16,-1
 705 300 l 2,17,18
 818 300 818 300 892 341 c 0,19,20
 950 373 950 373 950 465 c 2,21,-1
 950 1045 l 2,22,23
 950 1137 950 1137 892 1169 c 0,24,25
 817 1210 817 1210 705 1210 c 2,26,-1
 480 1210 l 1,27,-1
 480 845 l 1,28,-1
 805 845 l 1,29,-1
 805 835 l 1,30,-1
 724 665 l 1,31,-1
 480 665 l 1,32,-1
 480 300 l 1,16,-1
EndSplineSet
Validated: 1
EndChar

StartChar: Dcroat
Encoding: 272 272 196
Width: 1390
Flags: W
HStem: 0 300<480 893.699> 665 180<81 160 480 724> 1210 300<480 893.699>
VStem: 160 320<300 665 845 1210> 950 320<350.27 1159.73>
CounterMasks: 1 e0
LayerCount: 2
Fore
SplineSet
160 0 m 1,0,-1
 160 665 l 1,1,-1
 0 665 l 1,2,-1
 0 675 l 1,3,-1
 81 845 l 1,4,-1
 160 845 l 1,5,-1
 160 1383 l 1,6,-1
 428 1510 l 1,7,-1
 705 1510 l 2,8,9
 934 1510 934 1510 1102 1408 c 128,-1,10
 1270 1306 1270 1306 1270 1079 c 2,11,-1
 1270 431 l 2,12,13
 1270 204 1270 204 1102 102 c 128,-1,14
 934 0 934 0 705 0 c 2,15,-1
 160 0 l 1,0,-1
480 300 m 1,16,-1
 705 300 l 2,17,18
 818 300 818 300 892 341 c 0,19,20
 950 373 950 373 950 465 c 2,21,-1
 950 1045 l 2,22,23
 950 1137 950 1137 892 1169 c 0,24,25
 817 1210 817 1210 705 1210 c 2,26,-1
 480 1210 l 1,27,-1
 480 845 l 1,28,-1
 805 845 l 1,29,-1
 805 835 l 1,30,-1
 724 665 l 1,31,-1
 480 665 l 1,32,-1
 480 300 l 1,16,-1
EndSplineSet
Validated: 1
EndChar

StartChar: Hbar
Encoding: 294 294 197
Width: 1440
Flags: W
HStem: -20 21G<160 212.177 960 1012.18> 605 300<480 960> 1197 180<111 160 480 960 1280 1329> 1510 20G<427.823 480 1227.82 1280>
VStem: 160 320<127 605 905 1197 1377 1383> 960 320<127 605 905 1197 1377 1383>
LayerCount: 2
Fore
SplineSet
170 -20 m 1,0,-1
 160 -20 l 1,1,-1
 160 1197 l 1,2,-1
 30 1197 l 1,3,-1
 30 1207 l 1,4,-1
 111 1377 l 1,5,-1
 160 1377 l 1,6,-1
 160 1383 l 1,7,-1
 470 1530 l 1,8,-1
 480 1530 l 1,9,-1
 480 1377 l 1,10,-1
 960 1377 l 1,11,-1
 960 1383 l 1,12,-1
 1270 1530 l 1,13,-1
 1280 1530 l 1,14,-1
 1280 1377 l 1,15,-1
 1410 1377 l 1,16,-1
 1410 1367 l 1,17,-1
 1329 1197 l 1,18,-1
 1280 1197 l 1,19,-1
 1280 127 l 1,20,-1
 970 -20 l 1,21,-1
 960 -20 l 1,22,-1
 960 605 l 1,23,-1
 480 605 l 1,24,-1
 480 127 l 1,25,-1
 170 -20 l 1,0,-1
480 1197 m 1,26,-1
 480 905 l 1,27,-1
 960 905 l 1,28,-1
 960 1197 l 1,29,-1
 480 1197 l 1,26,-1
EndSplineSet
Validated: 19457
EndChar

StartChar: IJ
Encoding: 306 306 198
Width: 1831
Flags: W
HStem: -20 300<1013.65 1338.35> 1210 300<882 1391> 1510 20G<427.823 480>
VStem: 160 320<127 1383> 1391 320<330.27 1210>
LayerCount: 2
Fore
SplineSet
1176 -20 m 128,-1,1
 977 -20 977 -20 809 82 c 0,2,3
 652 177 652 177 641 389 c 1,4,-1
 951 535 l 1,5,-1
 961 535 l 1,6,-1
 961 445 l 2,7,8
 961 353 961 353 1019 321 c 0,9,10
 1094 280 1094 280 1176 280 c 128,-1,11
 1258 280 1258 280 1333 321 c 0,12,13
 1391 353 1391 353 1391 445 c 2,14,-1
 1391 1210 l 1,15,-1
 746 1210 l 1,16,-1
 746 1220 l 1,17,-1
 882 1510 l 1,18,-1
 1711 1510 l 1,19,-1
 1711 411 l 2,20,21
 1711 184 1711 184 1543 82 c 128,-1,0
 1375 -20 1375 -20 1176 -20 c 128,-1,1
170 -20 m 1,22,-1
 160 -20 l 1,23,-1
 160 1383 l 1,24,-1
 470 1530 l 1,25,-1
 480 1530 l 1,26,-1
 480 127 l 1,27,-1
 170 -20 l 1,22,-1
EndSplineSet
Validated: 1
EndChar

StartChar: lslash
Encoding: 322 322 199
Width: 766
Flags: W
HStem: -20 21G<233 285.029> 1510 20G<480.971 533>
VStem: 233 300<118 588 926 1392>
LayerCount: 2
Fore
SplineSet
243 -20 m 1,0,-1
 233 -20 l 1,1,-1
 233 588 l 1,2,-1
 54 505 l 1,3,-1
 50 514 l 1,4,-1
 50 701 l 1,5,-1
 233 786 l 1,6,-1
 233 1392 l 1,7,-1
 523 1530 l 1,8,-1
 533 1530 l 1,9,-1
 533 926 l 1,10,-1
 712 1009 l 1,11,-1
 716 1000 l 1,12,-1
 716 813 l 1,13,-1
 533 728 l 1,14,-1
 533 118 l 1,15,-1
 243 -20 l 1,0,-1
EndSplineSet
Validated: 19457
EndChar

StartChar: Lslash
Encoding: 321 321 200
Width: 1100
Flags: W
HStem: 0 300<480 954> 1510 20G<427.534 480>
VStem: 160 320<300 540 887 1384>
LayerCount: 2
Fore
SplineSet
160 0 m 1,0,-1
 160 540 l 1,1,-1
 84 505 l 1,2,-1
 80 514 l 1,3,-1
 80 701 l 1,4,-1
 160 738 l 1,5,-1
 160 1384 l 1,6,-1
 470 1530 l 1,7,-1
 480 1530 l 1,8,-1
 480 887 l 1,9,-1
 742 1009 l 1,10,-1
 746 1000 l 1,11,-1
 746 813 l 1,12,-1
 480 689 l 1,13,-1
 480 300 l 1,14,-1
 1090 300 l 1,15,-1
 1090 290 l 1,16,-1
 954 0 l 1,17,-1
 160 0 l 1,0,-1
EndSplineSet
Validated: 1
EndChar

StartChar: Eng
Encoding: 330 330 201
Width: 1410
Flags: W
HStem: -410 21G<646 819.5> -20 21G<140 192.177> 1230 300<514.495 895.505>
VStem: 140 320<127 1179.73> 950 320<-59.7305 1179.73>
LayerCount: 2
Fore
SplineSet
150 -20 m 1,0,-1
 140 -20 l 1,1,-1
 140 1099 l 2,2,3
 140 1326 140 1326 308 1428 c 128,-1,4
 476 1530 476 1530 705 1530 c 128,-1,5
 934 1530 934 1530 1102 1428 c 128,-1,6
 1270 1326 1270 1326 1270 1099 c 2,7,-1
 1270 21 l 2,8,9
 1270 -206 1270 -206 1102 -308 c 128,-1,10
 934 -410 934 -410 705 -410 c 2,11,-1
 646 -410 l 1,12,-1
 646 -400 l 1,13,-1
 788 -103 l 1,14,15
 848 -93 848 -93 892 -69 c 0,16,17
 950 -37 950 -37 950 55 c 2,18,-1
 950 1065 l 2,19,20
 950 1157 950 1157 892 1189 c 0,21,22
 817 1230 817 1230 705 1230 c 128,-1,23
 593 1230 593 1230 518 1189 c 0,24,25
 460 1157 460 1157 460 1065 c 2,26,-1
 460 127 l 1,27,-1
 150 -20 l 1,0,-1
EndSplineSet
Validated: 1
EndChar

StartChar: OE
Encoding: 338 338 202
Width: 1714
Flags: W
HStem: -20 300<494.495 773.169> 0 300<1094 1568> 605 300<1094 1518> 1210 300<1094 1518> 1230 300<494.495 771.975>
VStem: 120 320<330.27 1179.73> 774 320<300 605 905 1210>
LayerCount: 2
Fore
SplineSet
1568 0 m 1,0,-1
 878 0 l 1,1,2
 790 -20 790 -20 685 -20 c 0,3,4
 456 -20 456 -20 288 82 c 128,-1,5
 120 184 120 184 120 411 c 2,6,-1
 120 1099 l 2,7,8
 120 1326 120 1326 288 1428 c 128,-1,9
 456 1530 456 1530 685 1530 c 0,10,11
 791 1530 791 1530 879 1510 c 1,12,-1
 1654 1510 l 1,13,-1
 1654 1500 l 1,14,-1
 1518 1210 l 1,15,-1
 1094 1210 l 1,16,-1
 1094 905 l 1,17,-1
 1654 905 l 1,18,-1
 1654 895 l 1,19,-1
 1518 605 l 1,20,-1
 1094 605 l 1,21,-1
 1094 300 l 1,22,-1
 1704 300 l 1,23,-1
 1704 290 l 1,24,-1
 1568 0 l 1,0,-1
774 1223 m 1,25,26
 733 1230 733 1230 685 1230 c 0,27,28
 573 1230 573 1230 498 1189 c 0,29,30
 440 1157 440 1157 440 1065 c 2,31,-1
 440 445 l 2,32,33
 440 353 440 353 498 321 c 0,34,35
 573 280 573 280 685 280 c 0,36,37
 733 280 733 280 774 287 c 1,38,-1
 774 1223 l 1,25,26
EndSplineSet
Validated: 1
EndChar

StartChar: Thorn
Encoding: 222 222 203
Width: 1270
Flags: W
HStem: -20 21G<160 212.177> 220 300<480 863.699> 990 300<480 863.699> 1510 20G<427.823 480>
VStem: 160 320<127 220 520 990 1290 1383> 920 320<570.27 939.73>
LayerCount: 2
Fore
SplineSet
170 -20 m 1,0,-1
 160 -20 l 1,1,-1
 160 1383 l 1,2,-1
 470 1530 l 1,3,-1
 480 1530 l 1,4,-1
 480 1290 l 1,5,-1
 675 1290 l 2,6,7
 904 1290 904 1290 1072 1188 c 128,-1,8
 1240 1086 1240 1086 1240 859 c 2,9,-1
 1240 651 l 2,10,11
 1240 424 1240 424 1072 322 c 128,-1,12
 904 220 904 220 675 220 c 2,13,-1
 480 220 l 1,14,-1
 480 127 l 1,15,-1
 170 -20 l 1,0,-1
480 520 m 1,16,-1
 675 520 l 2,17,18
 788 520 788 520 862 561 c 0,19,20
 920 593 920 593 920 685 c 2,21,-1
 920 825 l 2,22,23
 920 917 920 917 862 949 c 0,24,25
 787 990 787 990 675 990 c 2,26,-1
 480 990 l 1,27,-1
 480 520 l 1,16,-1
EndSplineSet
Validated: 1
EndChar

StartChar: Tbar
Encoding: 358 358 204
Width: 1190
Flags: W
HStem: -20 21G<435 487.466> 416 180<321 435 755 869> 1210 300<146 435 755 1044>
VStem: 435 320<126 416 596 1210>
LayerCount: 2
Fore
SplineSet
445 -20 m 1,0,-1
 435 -20 l 1,1,-1
 435 416 l 1,2,-1
 240 416 l 1,3,-1
 240 426 l 1,4,-1
 321 596 l 1,5,-1
 435 596 l 1,6,-1
 435 1210 l 1,7,-1
 10 1210 l 1,8,-1
 10 1220 l 1,9,-1
 146 1510 l 1,10,-1
 1180 1510 l 1,11,-1
 1180 1500 l 1,12,-1
 1044 1210 l 1,13,-1
 755 1210 l 1,14,-1
 755 596 l 1,15,-1
 950 596 l 1,16,-1
 950 586 l 1,17,-1
 869 416 l 1,18,-1
 755 416 l 1,19,-1
 755 126 l 1,20,-1
 445 -20 l 1,0,-1
EndSplineSet
Validated: 1
EndChar

StartChar: tbar
Encoding: 359 359 205
Width: 890
Flags: W
HStem: -20 21G<300 352.105> 416 180<176 300 590 714> 820 280<139 300 590 751> 1510 20G<537.895 590>
VStem: 300 290<113 416 596 820 1100 1397>
LayerCount: 2
Fore
SplineSet
95 416 m 1,0,-1
 95 426 l 1,1,-1
 176 596 l 1,2,-1
 300 596 l 1,3,-1
 300 820 l 1,4,-1
 10 820 l 1,5,-1
 10 830 l 1,6,-1
 139 1100 l 1,7,-1
 300 1100 l 1,8,-1
 300 1397 l 1,9,-1
 580 1530 l 1,10,-1
 590 1530 l 1,11,-1
 590 1100 l 1,12,-1
 880 1100 l 1,13,-1
 880 1090 l 1,14,-1
 751 820 l 1,15,-1
 590 820 l 1,16,-1
 590 596 l 1,17,-1
 795 596 l 1,18,-1
 795 586 l 1,19,-1
 714 416 l 1,20,-1
 590 416 l 1,21,-1
 590 113 l 1,22,-1
 310 -20 l 1,23,-1
 300 -20 l 1,24,-1
 300 416 l 1,25,-1
 95 416 l 1,0,-1
EndSplineSet
Validated: 1
EndChar

StartChar: thorn
Encoding: 254 254 206
Width: 1230
Flags: W
HStem: -430 21G<160 212.029> -20 280<494.772 774.684> 840 280<494.772 774.684> 1510 20G<407.971 460>
VStem: 160 300<-292 11 293.822 806.178 1089 1392> 810 300<295.047 804.953>
LayerCount: 2
Fore
SplineSet
170 -430 m 1,0,-1
 160 -430 l 1,1,-1
 160 1392 l 17,2,-1
 450 1530 l 1,3,-1
 460 1530 l 1,4,-1
 460 1089 l 1,5,6
 540 1120 540 1120 635 1120 c 0,7,8
 824 1120 824 1120 967 1033 c 128,-1,9
 1110 946 1110 946 1110 760 c 2,10,-1
 1110 340 l 2,11,12
 1110 154 1110 154 967 67 c 128,-1,13
 824 -20 824 -20 635 -20 c 0,14,15
 540 -20 540 -20 460 11 c 1,16,-1
 460 -292 l 1,17,-1
 170 -430 l 1,0,-1
635 840 m 128,-1,19
 551 840 551 840 500 807 c 0,20,21
 460 781 460 781 460 718 c 2,22,-1
 460 382 l 2,23,24
 460 319 460 319 500 293 c 0,25,26
 551 260 551 260 635 260 c 128,-1,27
 719 260 719 260 770 293 c 0,28,29
 810 319 810 319 810 382 c 2,30,-1
 810 718 l 2,31,32
 810 781 810 781 770 807 c 0,33,18
 719 840 719 840 635 840 c 128,-1,19
EndSplineSet
Validated: 1
EndChar

StartChar: eth
Encoding: 240 240 207
Width: 1190
Flags: W
HStem: -20 280<455.316 734.684> 1510 20G<470.886 539.4>
VStem: 120 300<295.047 806.178> 770 300<295.047 806.178>
LayerCount: 2
Fore
SplineSet
595 260 m 128,-1,1
 679 260 679 260 730 293 c 0,2,3
 770 319 770 319 770 382 c 2,4,-1
 770 718 l 2,5,6
 770 781 770 781 730 807 c 0,7,8
 679 840 679 840 595 840 c 128,-1,9
 511 840 511 840 460 807 c 0,10,11
 420 781 420 781 420 718 c 2,12,-1
 420 382 l 2,13,14
 420 319 420 319 460 293 c 0,15,0
 511 260 511 260 595 260 c 128,-1,1
595 -20 m 128,-1,17
 406 -20 406 -20 263 67 c 128,-1,18
 120 154 120 154 120 340 c 2,19,-1
 120 760 l 2,20,21
 120 943 120 943 263 1033 c 0,22,23
 365 1097 365 1097 540 1111 c 1,24,-1
 427 1219 l 1,25,-1
 245 1134 l 1,26,-1
 241 1143 l 1,27,-1
 241 1330 l 1,28,-1
 300 1357 l 1,29,-1
 254 1407 l 1,30,-1
 513 1530 l 1,31,-1
 523 1530 l 1,32,-1
 564 1480 l 1,33,-1
 740 1562 l 1,34,-1
 744 1553 l 1,35,-1
 744 1366 l 1,36,-1
 683 1338 l 1,37,-1
 987 986 l 2,38,39
 1070 890 1070 890 1070 760 c 2,40,-1
 1070 340 l 2,41,42
 1070 154 1070 154 927 67 c 128,-1,16
 784 -20 784 -20 595 -20 c 128,-1,17
EndSplineSet
Validated: 1
EndChar

StartChar: oe
Encoding: 339 339 208
Width: 1777
Flags: W
HStem: -20 280<455.316 734.932 1070.03 1331.34> 840 280<455.316 734.932 1069.79 1323.45>
VStem: 120 300<295.047 804.953> 770 300<293.822 364 588 806.178>
DStem2: 1070 588 1070 364 0.904364 0.426761<0 329.556>
LayerCount: 2
Fore
SplineSet
595 260 m 128,-1,1
 679 260 679 260 730 293 c 0,2,3
 770 319 770 319 770 382 c 2,4,-1
 770 718 l 2,5,6
 770 781 770 781 730 807 c 0,7,8
 679 840 679 840 595 840 c 128,-1,9
 511 840 511 840 460 807 c 0,10,11
 420 781 420 781 420 718 c 2,12,-1
 420 382 l 2,13,14
 420 319 420 319 460 293 c 0,15,0
 511 260 511 260 595 260 c 128,-1,1
595 -20 m 0,16,17
 406 -20 406 -20 263 67 c 128,-1,18
 120 154 120 154 120 340 c 2,19,-1
 120 760 l 2,20,21
 120 946 120 946 263 1033 c 128,-1,22
 406 1120 406 1120 595 1120 c 0,23,24
 765 1120 765 1120 898 1049 c 1,25,26
 1030 1120 1030 1120 1192 1120 c 0,27,28
 1371 1120 1371 1120 1514 1033 c 128,-1,29
 1657 946 1657 946 1657 760 c 2,30,-1
 1657 641 l 1,31,-1
 1070 364 l 1,32,-1
 1070 340 l 2,33,34
 1070 315 1070 315 1068 293 c 1,35,36
 1118 260 1118 260 1192 260 c 128,-1,37
 1266 260 1266 260 1317 293 c 0,38,39
 1334 304 1334 304 1343 321 c 1,40,-1
 1647 465 l 1,41,-1
 1657 465 l 1,42,-1
 1657 340 l 2,43,44
 1657 154 1657 154 1514 67 c 128,-1,45
 1371 -20 1371 -20 1192 -20 c 0,46,47
 1031 -20 1031 -20 898 51 c 1,48,49
 765 -20 765 -20 595 -20 c 0,16,17
1070 588 m 1,50,-1
 1357 725 l 1,51,52
 1357 781 1357 781 1317 807 c 0,53,54
 1266 840 1266 840 1192 840 c 128,-1,55
 1118 840 1118 840 1068 807 c 1,56,57
 1070 784 1070 784 1070 760 c 2,58,-1
 1070 588 l 1,50,-1
EndSplineSet
Validated: 1
EndChar

StartChar: eng
Encoding: 331 331 209
Width: 1230
Flags: W
HStem: -410 21G<555 709.5> -20 21G<140 192.029> 840 280<475.316 754.684>
VStem: 140 300<118 804.953> 790 300<-94.9531 804.953>
LayerCount: 2
Fore
SplineSet
150 -20 m 1,0,-1
 140 -20 l 1,1,-1
 140 760 l 2,2,3
 140 946 140 946 283 1033 c 128,-1,4
 426 1120 426 1120 615 1120 c 128,-1,5
 804 1120 804 1120 947 1033 c 128,-1,6
 1090 946 1090 946 1090 760 c 2,7,-1
 1090 -50 l 2,8,9
 1090 -236 1090 -236 947 -323 c 128,-1,10
 804 -410 804 -410 615 -410 c 2,11,-1
 555 -410 l 1,12,-1
 555 -400 l 1,13,-1
 688 -122 l 1,14,15
 727 -112 727 -112 750 -97 c 0,16,17
 790 -71 790 -71 790 -8 c 2,18,-1
 790 718 l 2,19,20
 790 781 790 781 750 807 c 0,21,22
 699 840 699 840 615 840 c 128,-1,23
 531 840 531 840 480 807 c 0,24,25
 440 781 440 781 440 718 c 2,26,-1
 440 118 l 1,27,-1
 150 -20 l 1,0,-1
EndSplineSet
Validated: 1
EndChar

StartChar: kgreenlandic
Encoding: 312 312 210
Width: 1210
Flags: W
HStem: -20 21G<160 212.029 790 842.029> 1100 20G<407.971 460 790.4 866.034>
VStem: 160 300<118 525.178 820 982> 790 300<118 524.172>
LayerCount: 2
Fore
SplineSet
170 -20 m 1,0,-1
 160 -20 l 1,1,-1
 160 982 l 1,2,-1
 450 1120 l 1,3,-1
 460 1120 l 1,4,-1
 460 820 l 1,5,-1
 814 1120 l 1,6,-1
 824 1120 l 1,7,-1
 1072 1002 l 1,8,-1
 829 804 l 1,9,10
 894 784 894 784 947 752 c 0,11,12
 1090 666 1090 666 1090 479 c 2,13,-1
 1090 118 l 1,14,-1
 800 -20 l 1,15,-1
 790 -20 l 1,16,-1
 790 437 l 2,17,18
 790 500 790 500 750 526 c 0,19,20
 699 559 699 559 625 559 c 128,-1,21
 551 559 551 559 500 526 c 0,22,23
 460 500 460 500 460 437 c 2,24,-1
 460 118 l 1,25,-1
 170 -20 l 1,0,-1
EndSplineSet
Validated: 1
EndChar

StartChar: ij
Encoding: 307 307 211
Width: 1220
Flags: W
HStem: -410 21G<525 679.5> -20 21G<160 212.029> 1100 20G<407.971 460 1007.97 1060> 1180 364<192.131 426.338 792.131 1026.34>
VStem: 130 360<1244.3 1481.73> 160 300<118 982> 730 360<1244.3 1481.73> 760 300<-126.178 982>
LayerCount: 2
Fore
SplineSet
910 1544 m 0,0,1
 986 1544 986 1544 1038 1491 c 128,-1,2
 1090 1438 1090 1438 1090 1363 c 0,3,4
 1090 1289 1090 1289 1037 1234 c 0,5,6
 985 1180 985 1180 910 1180 c 0,7,8
 833 1180 833 1180 781.5 1234 c 128,-1,9
 730 1288 730 1288 730 1362 c 0,10,11
 730 1438 730 1438 782 1490 c 0,12,13
 835 1544 835 1544 910 1544 c 0,0,1
525 -410 m 1,14,-1
 525 -400 l 1,15,-1
 642 -155 l 1,16,17
 689 -147 689 -147 720 -127 c 0,18,19
 760 -101 760 -101 760 -38 c 2,20,-1
 760 982 l 1,21,-1
 1050 1120 l 1,22,-1
 1060 1120 l 1,23,-1
 1060 -50 l 2,24,25
 1060 -236 1060 -236 917 -323 c 128,-1,26
 774 -410 774 -410 585 -410 c 2,27,-1
 525 -410 l 1,14,-1
170 -20 m 1,28,-1
 160 -20 l 1,29,-1
 160 982 l 1,30,-1
 450 1120 l 1,31,-1
 460 1120 l 1,32,-1
 460 118 l 1,33,-1
 170 -20 l 1,28,-1
310 1544 m 0,34,35
 386 1544 386 1544 438 1491 c 128,-1,36
 490 1438 490 1438 490 1363 c 0,37,38
 490 1289 490 1289 437 1234 c 0,39,40
 385 1180 385 1180 310 1180 c 0,41,42
 233 1180 233 1180 181.5 1234 c 128,-1,43
 130 1288 130 1288 130 1362 c 0,44,45
 130 1438 130 1438 182 1490 c 0,46,47
 235 1544 235 1544 310 1544 c 0,34,35
EndSplineSet
Validated: 1
EndChar

StartChar: hbar
Encoding: 295 295 212
Width: 1250
Flags: W
HStem: -20 21G<160 212.029 810 862.029> 840 280<494.539 774.684> 1197 180<111 160 460 609> 1510 20G<407.971 460>
VStem: 160 300<118 806.178 1089 1197 1377 1392> 810 300<118 804.953>
LayerCount: 2
Fore
SplineSet
170 -20 m 1,0,-1
 160 -20 l 1,1,-1
 160 1197 l 1,2,-1
 30 1197 l 1,3,-1
 30 1207 l 1,4,-1
 111 1377 l 1,5,-1
 160 1377 l 1,6,-1
 160 1392 l 1,7,-1
 450 1530 l 1,8,-1
 460 1530 l 1,9,-1
 460 1377 l 1,10,-1
 690 1377 l 1,11,-1
 690 1367 l 1,12,-1
 609 1197 l 1,13,-1
 460 1197 l 1,14,-1
 460 1089 l 1,15,16
 548 1120 548 1120 635 1120 c 0,17,18
 824 1120 824 1120 967 1033 c 128,-1,19
 1110 946 1110 946 1110 760 c 2,20,-1
 1110 118 l 1,21,-1
 820 -20 l 1,22,-1
 810 -20 l 1,23,-1
 810 718 l 2,24,25
 810 781 810 781 770 807 c 0,26,27
 719 840 719 840 635 840 c 128,-1,28
 551 840 551 840 500 807 c 0,29,30
 460 781 460 781 460 718 c 2,31,-1
 460 118 l 1,32,-1
 170 -20 l 1,0,-1
EndSplineSet
Validated: 19457
EndChar

StartChar: longs
Encoding: 383 383 213
Width: 940
Flags: W
HStem: -20 21G<220 272.029> 1230 280<561.604 801>
VStem: 220 300<118 662 942 1194.95>
LayerCount: 2
Fore
SplineSet
230 -20 m 1,0,-1
 220 -20 l 1,1,-1
 220 662 l 1,2,-1
 10 662 l 1,3,-1
 10 672 l 1,4,-1
 139 942 l 1,5,-1
 220 942 l 1,6,-1
 220 1150 l 2,7,8
 220 1336 220 1336 363 1423 c 128,-1,9
 506 1510 506 1510 695 1510 c 2,10,-1
 930 1510 l 1,11,-1
 930 1500 l 1,12,-1
 801 1230 l 1,13,-1
 706 1230 l 2,14,15
 611 1230 611 1230 560 1197 c 0,16,17
 520 1171 520 1171 520 1108 c 2,18,-1
 520 118 l 1,19,-1
 230 -20 l 1,0,-1
EndSplineSet
Validated: 1
EndChar

StartChar: florin
Encoding: 402 402 214
Width: 880
Flags: W
HStem: -410 21G<-75 79.5> 662 280<460 702> 1230 280<501.604 741>
VStem: 160 300<-126.178 662 942 1194.95>
LayerCount: 2
Fore
SplineSet
-75 -410 m 1,0,-1
 -75 -400 l 1,1,-1
 42 -155 l 1,2,3
 89 -147 89 -147 120 -127 c 0,4,5
 160 -101 160 -101 160 -38 c 2,6,-1
 160 1150 l 2,7,8
 160 1336 160 1336 303 1423 c 128,-1,9
 446 1510 446 1510 635 1510 c 2,10,-1
 870 1510 l 1,11,-1
 870 1500 l 1,12,-1
 741 1230 l 1,13,-1
 646 1230 l 2,14,15
 551 1230 551 1230 500 1197 c 0,16,17
 460 1171 460 1171 460 1108 c 2,18,-1
 460 942 l 1,19,-1
 831 942 l 1,20,-1
 831 932 l 1,21,-1
 702 662 l 1,22,-1
 460 662 l 1,23,-1
 460 -50 l 2,24,25
 460 -236 460 -236 317 -323 c 128,-1,26
 174 -410 174 -410 -15 -410 c 2,27,-1
 -75 -410 l 1,0,-1
EndSplineSet
Validated: 1
EndChar

StartChar: dcroat
Encoding: 273 273 215
Width: 1210
Flags: W
HStem: -20 280<455.316 734.684> 840 280<455.316 735.228> 1197 180<621 770 1070 1089> 1510 20G<1017.97 1070>
VStem: 120 300<295.047 804.953> 770 300<295.047 806.178 1089 1197 1377 1392>
LayerCount: 2
Fore
SplineSet
595 -20 m 128,-1,1
 406 -20 406 -20 263 67 c 128,-1,2
 120 154 120 154 120 340 c 2,3,-1
 120 760 l 2,4,5
 120 946 120 946 263 1033 c 128,-1,6
 406 1120 406 1120 595 1120 c 0,7,8
 690 1120 690 1120 770 1089 c 1,9,-1
 770 1197 l 1,10,-1
 540 1197 l 1,11,-1
 540 1207 l 1,12,-1
 621 1377 l 1,13,-1
 770 1377 l 1,14,-1
 770 1392 l 1,15,-1
 1060 1530 l 1,16,-1
 1070 1530 l 1,17,-1
 1070 1377 l 1,18,-1
 1170 1377 l 1,19,-1
 1170 1367 l 1,20,-1
 1089 1197 l 1,21,-1
 1070 1197 l 1,22,-1
 1070 340 l 2,23,24
 1070 154 1070 154 927 67 c 128,-1,0
 784 -20 784 -20 595 -20 c 128,-1,1
595 260 m 128,-1,26
 679 260 679 260 730 293 c 0,27,28
 770 319 770 319 770 382 c 2,29,-1
 770 718 l 2,30,31
 770 781 770 781 730 807 c 0,32,33
 679 840 679 840 595 840 c 128,-1,34
 511 840 511 840 460 807 c 0,35,36
 420 781 420 781 420 718 c 2,37,-1
 420 382 l 2,38,39
 420 319 420 319 460 293 c 0,40,25
 511 260 511 260 595 260 c 128,-1,26
EndSplineSet
Validated: 19457
EndChar

StartChar: germandbls
Encoding: 223 223 216
Width: 1219
Flags: W
HStem: -20 280<604 837.429> 691 280<603 744.181> 1252 278<474.846 754.123>
VStem: 140 300<118 1218.24> 789 301<1000.7 1218.24> 879 300<289.645 648.7>
LayerCount: 2
Fore
SplineSet
150 -20 m 1,0,-1
 140 -20 l 1,1,-1
 140 1170 l 2,2,3
 140 1348 140 1348 283 1439 c 128,-1,4
 426 1530 426 1530 615 1530 c 128,-1,5
 804 1530 804 1530 947 1443 c 128,-1,6
 1090 1356 1090 1356 1090 1170 c 2,7,-1
 1090 1034 l 2,8,9
 1090 919 1090 919 1005 843 c 1,10,11
 1179 750 1179 750 1179 550 c 2,12,-1
 1179 340 l 2,13,14
 1179 154 1179 154 1036.5 67 c 128,-1,15
 894 -20 894 -20 704 -20 c 2,16,-1
 475 -20 l 1,17,-1
 475 -10 l 1,18,-1
 604 260 l 1,19,-1
 704 260 l 2,20,21
 789 260 789 260 839 288 c 24,22,23
 879 311 879 311 879 366 c 2,24,-1
 879 556 l 2,25,26
 879 620 879 620 828 656 c 0,27,28
 778 691 778 691 703 691 c 2,29,-1
 474 691 l 1,30,-1
 474 701 l 1,31,-1
 603 971 l 1,32,33
 688 971 688 971 746 1000 c 0,34,35
 789 1022 789 1022 789 1077 c 2,36,-1
 789 1130 l 2,37,38
 789 1195 789 1195 749 1219 c 0,39,40
 694 1252 694 1252 614 1252 c 0,41,42
 532 1252 532 1252 479 1219 c 0,43,44
 440 1195 440 1195 440 1130 c 2,45,-1
 440 118 l 1,46,-1
 150 -20 l 1,0,-1
EndSplineSet
Validated: 1
EndChar

StartChar: ae
Encoding: 230 230 217
Width: 1671
Flags: W
HStem: -20 280<961.295 1225.34> -20 220<374.226 630.513> 485 229<374.935 631.141> 820 280<329 625.695> 840 280<956.063 1217.45>
VStem: 40 300<233.76 451.178> 665 295<273.957 362 682 781.053>
DStem2: 960 587 960 362 0.904298 0.426902<0 333.672>
LayerCount: 2
Fore
SplineSet
670 -20 m 1,0,-1
 660 -20 l 1,1,-1
 660 16 l 1,2,3
 598 -20 598 -20 500 -20 c 0,4,5
 320 -20 320 -20 188 61 c 0,6,7
 40 151 40 151 40 328 c 2,8,-1
 40 366 l 2,9,10
 40 545 40 545 182.5 629.5 c 128,-1,11
 325 714 325 714 500 714 c 0,12,13
 598 714 598 714 659 682 c 1,14,15
 659 820 659 820 485 820 c 2,16,-1
 200 820 l 1,17,-1
 200 830 l 1,18,-1
 329 1100 l 1,19,-1
 485 1100 l 2,20,21
 651 1100 651 1100 773 1039 c 1,22,23
 912 1120 912 1120 1086 1120 c 0,24,25
 1265 1120 1265 1120 1408 1033 c 128,-1,26
 1551 946 1551 946 1551 760 c 2,27,-1
 1551 641 l 1,28,-1
 960 362 l 1,29,-1
 960 294 l 17,30,31
 1015 260 1015 260 1086 260 c 0,32,33
 1160 260 1160 260 1211 293 c 0,34,35
 1228 304 1228 304 1237 321 c 1,36,-1
 1541 465 l 1,37,-1
 1551 465 l 1,38,-1
 1551 340 l 2,39,40
 1551 154 1551 154 1408 67 c 128,-1,41
 1265 -20 1265 -20 1086 -20 c 0,42,43
 932 -20 932 -20 805 44 c 1,44,-1
 670 -20 l 1,0,-1
503 200 m 0,45,46
 574 200 574 200 625 233 c 0,47,48
 665 259 665 259 665 322 c 2,49,-1
 665 363 l 2,50,51
 665 428 665 428 625 452 c 0,52,53
 569 485 569 485 502 485 c 0,54,55
 432 485 432 485 380 452 c 0,56,57
 340 426 340 426 340 363 c 2,58,-1
 340 322 l 2,59,60
 340 257 340 257 380 233 c 0,61,62
 436 200 436 200 503 200 c 0,45,46
955 803 m 1,63,64
 960 773 960 773 960 741 c 2,65,-1
 960 587 l 1,66,-1
 1251 725 l 1,67,68
 1251 781 1251 781 1211 807 c 0,69,70
 1160 840 1160 840 1085 840 c 128,-1,71
 1010 840 1010 840 955 803 c 1,63,64
EndSplineSet
Validated: 1
EndChar

StartChar: S
Encoding: 83 83 218
Width: 1170
Flags: W
HStem: -20 279<399.22 750.45> 676 317<465.536 755.65> 1261 269<456.756 708.02>
VStem: 118 310<1022.67 1231.27> 800 320<305.719 629.61>
LayerCount: 2
Fore
SplineSet
574 -20 m 128,-1,1
 366 -20 366 -20 204 79 c 0,2,3
 41 179 41 179 30 379 c 1,4,-1
 340 526 l 1,5,-1
 350 526 l 1,6,-1
 350 411 l 2,7,8
 350 327 350 327 408 297 c 0,9,10
 481 259 481 259 575 259 c 128,-1,11
 669 259 669 259 742 297 c 0,12,13
 800 328 800 328 800 411 c 2,14,-1
 800 523 l 2,15,16
 800 608 800 608 746 638 c 0,17,18
 678 676 678 676 583 676 c 0,19,20
 418 676 418 676 261 774 c 0,21,22
 118 863 118 863 118 1055 c 2,23,-1
 118 1161 l 2,24,25
 118 1351 118 1351 260.5 1440.5 c 128,-1,26
 403 1530 403 1530 583 1530 c 128,-1,27
 763 1530 763 1530 897 1446 c 0,28,29
 1035 1359 1035 1359 1047 1203 c 1,30,-1
 748 1061 l 1,31,-1
 738 1061 l 1,32,-1
 738 1148 l 2,33,34
 738 1211 738 1211 701 1232 c 0,35,36
 651 1261 651 1261 586 1261 c 0,37,38
 509 1261 509 1261 464 1232 c 0,39,40
 428 1209 428 1209 428 1148 c 2,41,-1
 428 1106 l 2,42,43
 428 1043 428 1043 464 1022 c 0,44,45
 513 993 513 993 582 993 c 0,46,47
 790 993 790 993 955 890.5 c 128,-1,48
 1120 788 1120 788 1120 562 c 2,49,-1
 1120 411 l 2,50,51
 1120 185 1120 185 951 82.5 c 128,-1,0
 782 -20 782 -20 574 -20 c 128,-1,1
EndSplineSet
Validated: 19457
EndChar

StartChar: s
Encoding: 115 115 219
Width: 958
Flags: W
HStem: -20 244<345.44 588.57> 453 264<395.7 602.558> 887 233<388.663 555.635>
VStem: 89 284<735.534 867.919> 618 300<249.79 432.848>
LayerCount: 2
Fore
SplineSet
469.5 -20 m 128,-1,1
 289 -20 289 -20 160 68 c 0,2,3
 32 155 32 155 20 288 c 1,4,-1
 307 423 l 1,5,-1
 317 423 l 1,6,-1
 317 334 l 2,7,8
 317 273 317 273 353 252 c 0,9,10
 402 224 402 224 472 224 c 128,-1,11
 542 224 542 224 580 249 c 128,-1,12
 618 274 618 274 618 334 c 2,13,-1
 618 359 l 2,14,15
 618 453 618 453 486 453 c 0,16,17
 318 453 318 453 203.5 530.5 c 128,-1,18
 89 608 89 608 89 768 c 2,19,-1
 89 805 l 2,20,21
 89 967 89 967 206 1043.5 c 128,-1,22
 323 1120 323 1120 478.5 1120 c 128,-1,23
 634 1120 634 1120 746 1044 c 0,24,25
 855 969 855 969 865 869 c 1,26,-1
 586 736 l 1,27,-1
 576 736 l 1,28,-1
 576 811 l 2,29,30
 576 854 576 854 545 873 c 0,31,32
 522 887 522 887 478 887 c 0,33,34
 419 887 419 887 396 868.5 c 128,-1,35
 373 850 373 850 373 821 c 2,36,-1
 373 781 l 2,37,38
 373 752 373 752 395 735 c 0,39,40
 417 717 417 717 492 717 c 0,41,42
 669 717 669 717 794 628 c 0,43,44
 918 540 918 540 918 373 c 2,45,-1
 918 340 l 2,46,47
 918 155 918 155 784 67.5 c 128,-1,0
 650 -20 650 -20 469.5 -20 c 128,-1,1
EndSplineSet
Validated: 1
EndChar

StartChar: circumflex
Encoding: 710 710 220
Width: 642
Flags: W
HStem: 1160 410
VStem: 30 582
LayerCount: 2
Fore
SplineSet
386 1570 m 1,0,-1
 396 1570 l 1,1,-1
 612 1245 l 1,2,-1
 434 1160 l 1,3,-1
 424 1160 l 1,4,-1
 323 1322 l 1,5,-1
 218 1160 l 1,6,-1
 208 1160 l 1,7,-1
 30 1245 l 1,8,-1
 206 1484 l 1,9,-1
 386 1570 l 1,0,-1
EndSplineSet
Validated: 1
EndChar

StartChar: caron
Encoding: 711 711 221
Width: 642
Flags: W
HStem: 1160 410
VStem: 30 582
LayerCount: 2
Fore
SplineSet
208 1570 m 1,0,-1
 218 1570 l 1,1,-1
 319 1408 l 1,2,-1
 424 1570 l 1,3,-1
 434 1570 l 1,4,-1
 612 1485 l 1,5,-1
 436 1246 l 1,6,-1
 256 1160 l 1,7,-1
 246 1160 l 1,8,-1
 30 1485 l 1,9,-1
 208 1570 l 1,0,-1
EndSplineSet
Validated: 1
EndChar

StartChar: uni02C9
Encoding: 713 713 222
Width: 680
Flags: W
HStem: 1270 190<116 564>
VStem: 30 620
LayerCount: 2
Fore
SplineSet
116 1460 m 1,0,-1
 650 1460 l 1,1,-1
 650 1450 l 1,2,-1
 564 1270 l 1,3,-1
 30 1270 l 1,4,-1
 30 1280 l 1,5,-1
 116 1460 l 1,0,-1
EndSplineSet
Validated: 1
EndChar

StartChar: breve
Encoding: 728 728 223
Width: 680
Flags: W
HStem: 1240 200<172.531 507.469>
VStem: 30 620<1308.34 1346>
LayerCount: 2
Fore
SplineSet
120 1535 m 1,0,1
 190 1440 190 1440 340 1440 c 128,-1,2
 490 1440 490 1440 560 1535 c 1,3,-1
 650 1346 l 1,4,-1
 650 1336 l 1,5,6
 518 1240 518 1240 340 1240 c 128,-1,7
 162 1240 162 1240 30 1336 c 1,8,-1
 30 1346 l 1,9,-1
 120 1535 l 1,0,1
EndSplineSet
Validated: 1
EndChar

StartChar: dotaccent
Encoding: 729 729 224
Width: 420
Flags: W
HStem: 1180 364<92.1309 326.338>
VStem: 30 360<1244.3 1481.73>
LayerCount: 2
Fore
SplineSet
210 1544 m 0,0,1
 286 1544 286 1544 338 1491 c 128,-1,2
 390 1438 390 1438 390 1363 c 0,3,4
 390 1289 390 1289 337 1234 c 0,5,6
 285 1180 285 1180 210 1180 c 0,7,8
 133 1180 133 1180 81.5 1234 c 128,-1,9
 30 1288 30 1288 30 1362 c 0,10,11
 30 1438 30 1438 82 1490 c 0,12,13
 135 1544 135 1544 210 1544 c 0,0,1
EndSplineSet
Validated: 1
EndChar

StartChar: ring
Encoding: 730 730 225
Width: 456
Flags: W
HStem: 1160 112<160.15 297.342> 1448 112<159.9 297.373>
VStem: 30 111<1291.16 1428.97> 315 111<1292.14 1428.97>
LayerCount: 2
Fore
SplineSet
229.5 1448 m 128,-1,1
 192 1448 192 1448 166.5 1422 c 128,-1,2
 141 1396 141 1396 141 1360 c 128,-1,3
 141 1324 141 1324 166.5 1298 c 128,-1,4
 192 1272 192 1272 228 1272 c 256,5,6
 266 1272 266 1272 292 1300 c 0,7,8
 315 1325 315 1325 315 1360 c 0,9,10
 315 1396 315 1396 291 1422 c 128,-1,0
 267 1448 267 1448 229.5 1448 c 128,-1,1
230 1560 m 0,11,12
 310 1560 310 1560 368 1502 c 0,13,14
 426 1442 426 1442 426 1361 c 0,15,16
 426 1277 426 1277 368 1219 c 0,17,18
 309 1160 309 1160 228 1160 c 256,19,20
 148 1160 148 1160 88 1219 c 0,21,22
 30 1277 30 1277 30 1361 c 0,23,24
 30 1442 30 1442 88 1502 c 0,25,26
 146 1560 146 1560 230 1560 c 0,11,12
EndSplineSet
Validated: 1
EndChar

StartChar: ogonek
Encoding: 731 731 226
Width: 399
Flags: W
HStem: -430 430 -20 20G<191 274>
VStem: 30 207<-275.73 -100.771>
LayerCount: 2
Fore
SplineSet
191 0 m 1,0,-1
 311 0 l 1,1,2
 237 -75 237 -75 237 -164 c 0,3,4
 237 -287 237 -287 369 -320 c 1,5,-1
 139 -430 l 1,6,-1
 129 -430 l 1,7,8
 30 -354 30 -354 30 -236 c 0,9,10
 30 -94 30 -94 191 0 c 1,0,-1
EndSplineSet
Validated: 1
EndChar

StartChar: tilde
Encoding: 732 732 227
Width: 680
Flags: W
HStem: 1210 182<400.253 463.619> 1339 182<216.381 279.747>
VStem: 30 620
LayerCount: 2
Fore
SplineSet
640 1521 m 1,0,-1
 650 1521 l 1,1,2
 650 1210 650 1210 451 1210 c 0,3,4
 353 1210 353 1210 272 1305 c 0,5,6
 243 1339 243 1339 234 1339 c 0,7,8
 216 1339 216 1339 216 1294 c 1,9,-1
 40 1210 l 1,10,-1
 30 1210 l 1,11,12
 30 1521 30 1521 229 1521 c 0,13,14
 327 1521 327 1521 408 1426 c 0,15,16
 437 1392 437 1392 446 1392 c 0,17,18
 464 1392 464 1392 464 1437 c 1,19,-1
 640 1521 l 1,0,-1
EndSplineSet
Validated: 1
EndChar

StartChar: hungarumlaut
Encoding: 733 733 228
Width: 668
Flags: W
HStem: 1170 390
VStem: 30 608
DStem2: 30 1246 199 1170 0.426352 0.904557<3.30711 347.131> 319 1246 488 1170 0.426352 0.904557<3.30711 347.131>
LayerCount: 2
Fore
SplineSet
477 1560 m 1,0,-1
 638 1483 l 1,1,-1
 488 1170 l 1,2,-1
 478 1170 l 1,3,-1
 319 1246 l 1,4,-1
 467 1560 l 1,5,-1
 477 1560 l 1,0,-1
188 1560 m 1,6,-1
 349 1483 l 1,7,-1
 199 1170 l 1,8,-1
 189 1170 l 1,9,-1
 30 1246 l 1,10,-1
 178 1560 l 1,11,-1
 188 1560 l 1,6,-1
EndSplineSet
Validated: 1
EndChar

StartChar: uni1E9E
Encoding: 7838 7838 229
Width: 1275
Flags: W
HStem: -20 300<681 862.31> 1224 285<480 778.465>
VStem: 160 320<127 1224> 915 320<330.27 641.908>
LayerCount: 2
Fore
SplineSet
170 -20 m 1,0,-1
 160 -20 l 1,1,-1
 160 1383 l 1,2,-1
 428 1509 l 1,3,-1
 675 1509 l 2,4,5
 869 1509 869 1509 1002 1424 c 0,6,7
 1075 1377 1075 1377 1115 1302 c 1,8,-1
 951 952 l 1,9,10
 1013 928 1013 928 1067 896 c 0,11,12
 1235 796 1235 796 1235 567 c 2,13,-1
 1235 411 l 2,14,15
 1235 184 1235 184 1067 82 c 128,-1,16
 899 -20 899 -20 685 -20 c 0,17,-1
 545 -20 l 1,18,-1
 545 -10 l 1,19,-1
 681 280 l 1,20,21
 783 280 783 280 857 321 c 0,22,23
 915 353 915 353 915 445 c 2,24,-1
 915 533 l 2,25,26
 915 620 915 620 857 657 c 0,27,28
 792 698 792 698 688 698 c 2,29,-1
 547 698 l 1,30,-1
 547 708 l 1,31,-1
 780 1206 l 1,32,33
 731 1224 731 1224 665 1224 c 2,34,-1
 480 1224 l 1,35,-1
 480 127 l 1,36,-1
 170 -20 l 1,0,-1
EndSplineSet
Validated: 1
EndChar

StartChar: uni203D
Encoding: 8253 8253 230
Width: 1320
Flags: W
HStem: -20 365<507.131 741.878> 1230 300<488.818 834.709>
VStem: 445 360<42.5657 282.578> 521 230<815 963> 890 320<896.936 1173.34>
LayerCount: 2
Fore
SplineSet
625 -20 m 0,0,1
 549 -20 549 -20 497 34 c 128,-1,2
 445 88 445 88 445 162 c 0,3,4
 445 238 445 238 497 291 c 0,5,6
 550 345 550 345 625 345 c 128,-1,7
 700 345 700 345 752.5 291.5 c 128,-1,8
 805 238 805 238 805 163 c 128,-1,9
 805 88 805 88 752 34 c 128,-1,10
 699 -20 699 -20 625 -20 c 0,0,1
660 1530 m 128,-1,12
 874 1530 874 1530 1042 1428 c 128,-1,13
 1210 1326 1210 1326 1210 1099 c 2,14,-1
 1210 1056 l 2,15,16
 1210 736 1210 736 848 571 c 0,17,18
 791 545 791 545 791 506 c 1,19,-1
 478 359 l 1,20,-1
 468 359 l 1,21,22
 468 515 468 515 521 621 c 1,23,-1
 521 963 l 1,24,-1
 741 1068 l 1,25,-1
 751 1068 l 1,26,-1
 751 815 l 1,27,28
 890 891 890 891 890 1038 c 2,29,-1
 890 1065 l 2,30,31
 887 1152 887 1152 832 1189 c 0,32,33
 771 1230 771 1230 662 1230 c 0,34,35
 552 1230 552 1230 488 1189 c 0,36,37
 442 1161 442 1161 433 1100 c 1,38,-1
 120 952 l 1,39,-1
 110 952 l 1,40,-1
 110 1099 l 2,41,42
 110 1326 110 1326 278 1428 c 128,-1,11
 446 1530 446 1530 660 1530 c 128,-1,12
EndSplineSet
Validated: 1
EndChar

StartChar: afii61352
Encoding: 8470 8470 231
Width: 2010
Flags: W
HStem: -20 21G<140 192.177 950 1002.18> 0 180<1437 1819> 227 182<1581.29 1703.74> 656 181<1582.66 1708.63> 1230 300<514.495 895.505>
VStem: 140 320<127 1179.73> 950 320<127 1179.73> 1386 190<422.253 642.747> 1710 190<422.283 654.046>
LayerCount: 2
Fore
SplineSet
1644 837 m 128,-1,1
 1744 837 1744 837 1822 789 c 0,2,3
 1900 743 1900 743 1900 638 c 2,4,-1
 1900 427 l 2,5,6
 1900 323 1900 323 1821.5 275 c 128,-1,7
 1743 227 1743 227 1642.5 227 c 128,-1,8
 1542 227 1542 227 1464 276 c 0,9,10
 1386 323 1386 323 1386 427 c 2,11,-1
 1386 638 l 2,12,13
 1386 742 1386 742 1465 789.5 c 128,-1,0
 1544 837 1544 837 1644 837 c 128,-1,1
1643 656 m 0,14,15
 1606 656 1606 656 1587 643 c 0,16,17
 1576 635 1576 635 1576 616 c 2,18,-1
 1576 449 l 2,19,20
 1576 430 1576 430 1586 422 c 0,21,22
 1602 409 1602 409 1643 409 c 0,23,24
 1683 409 1683 409 1699 422 c 0,25,26
 1710 431 1710 431 1710 449 c 2,27,-1
 1710 616 l 2,28,29
 1710 656 1710 656 1643 656 c 0,14,15
1437 180 m 1,30,-1
 1900 180 l 1,31,-1
 1900 170 l 1,32,-1
 1819 0 l 1,33,-1
 1356 0 l 1,34,-1
 1356 10 l 1,35,-1
 1437 180 l 1,30,-1
150 -20 m 1,36,-1
 140 -20 l 1,37,-1
 140 1099 l 2,38,39
 140 1326 140 1326 308 1428 c 128,-1,40
 476 1530 476 1530 705 1530 c 128,-1,41
 934 1530 934 1530 1102 1428 c 128,-1,42
 1270 1326 1270 1326 1270 1099 c 2,43,-1
 1270 127 l 1,44,-1
 960 -20 l 1,45,-1
 950 -20 l 1,46,-1
 950 1065 l 2,47,48
 950 1157 950 1157 892 1189 c 0,49,50
 817 1230 817 1230 705 1230 c 128,-1,51
 593 1230 593 1230 518 1189 c 0,52,53
 460 1157 460 1157 460 1065 c 2,54,-1
 460 127 l 1,55,-1
 150 -20 l 1,36,-1
EndSplineSet
Validated: 1
EndChar

StartChar: uni2117
Encoding: 8471 8471 232
Width: 1321
Flags: W
HStem: 386 48<505.181 810.676> 758 190<611 770.995> 1143 191<611 770.934> 1478 52<504.168 816.773>
VStem: 110 50<794.694 1125.05> 411 200<602 758 948 1143> 791 200<966.38 1124.65> 1160 51<785.868 1126.58>
LayerCount: 2
Fore
SplineSet
585 1334 m 1,0,-1
 689 1334 l 2,1,2
 808 1334 808 1334 900 1278 c 0,3,4
 991 1222 991 1222 991 1098 c 2,5,-1
 991 994 l 2,6,7
 991 870 991 870 900 814 c 0,8,9
 808 758 808 758 689 758 c 2,10,-1
 611 758 l 1,11,-1
 611 602 l 1,12,-1
 421 527 l 1,13,-1
 411 527 l 1,14,-1
 411 1257 l 1,15,-1
 585 1334 l 1,0,-1
611 1143 m 1,16,-1
 611 948 l 1,17,-1
 689 948 l 2,18,19
 740 948 740 948 772 966 c 0,20,21
 790 978 790 978 791 1011 c 2,22,-1
 791 1080 l 2,23,24
 790 1114 790 1114 772 1125 c 0,25,26
 738 1143 738 1143 689 1143 c 2,27,-1
 611 1143 l 1,16,-1
661 1530 m 0,28,29
 903 1530 903 1530 1059 1357 c 0,30,31
 1211 1188 1211 1188 1211 953 c 0,32,33
 1211 701 1211 701 1050 549 c 0,34,35
 879 386 879 386 659 386 c 0,36,37
 436 386 436 386 271 549 c 0,38,39
 110 708 110 708 110 953 c 0,40,41
 110 1197 110 1197 268 1362 c 0,42,43
 429 1530 429 1530 661 1530 c 0,28,29
659 1478 m 0,44,45
 459 1478 459 1478 310 1330 c 0,46,47
 160 1181 160 1181 160 953 c 0,48,49
 160 750 160 750 307 587 c 0,50,51
 445 434 445 434 661 434 c 0,52,53
 862 434 862 434 1014 587 c 0,54,55
 1160 734 1160 734 1160 953 c 0,56,57
 1160 1185 1160 1185 1016 1327 c 0,58,59
 863 1478 863 1478 659 1478 c 0,44,45
EndSplineSet
Validated: 1
EndChar

